<?xml version="1.0" encoding="utf-8"?>
<!-- Generator: Adobe Illustrator 16.0.3, SVG Export Plug-In . SVG Version: 6.00 Build 0)  -->
<!DOCTYPE svg PUBLIC "-//W3C//DTD SVG 1.1//EN" "http://www.w3.org/Graphics/SVG/1.1/DTD/svg11.dtd">
<svg version="1.1" id="Layer_1" xmlns="http://www.w3.org/2000/svg" xmlns:xlink="http://www.w3.org/1999/xlink" x="0px" y="0px"
	 width="360px" height="360px" viewBox="0 0 360 360" enable-background="new 0 0 360 360" xml:space="preserve">
<g sodipodi:docname="twitter_bootstrap_logo.svg" inkscape:version="0.48.1 r9760" xmlns:inkscape="http://www.inkscape.org/namespaces/inkscape" xmlns:sodipodi="http://sodipodi.sourceforge.net/DTD/sodipodi-0.dtd" xmlns:svg="http://www.w3.org/2000/svg" xmlns:rdf="http://www.w3.org/1999/02/22-rdf-syntax-ns#" xmlns:cc="http://creativecommons.org/ns#" xmlns:dc="http://purl.org/dc/elements/1.1/">
	<path fill="#563D7C" d="M342,288c0,29.7-24.3,54-54,54H72c-29.7,0-54-24.3-54-54V72c0-29.7,24.3-54,54-54h216c29.7,0,54,24.3,54,54
		V288z"/>
	<path fill="#FFFFFF" d="M106.042,88.412h91.853c16.941,0,30.547,3.865,40.764,11.647c10.218,7.783,15.354,19.483,15.354,35.206
		c0,9.529-2.33,17.683-6.988,24.459c-4.659,6.776-11.329,12.07-20.012,15.776v0.529c11.646,2.488,20.488,7.994,26.47,16.518
		c5.983,8.577,9,19.271,9,32.188c0,7.412-1.323,14.347-3.97,20.753c-2.647,6.459-6.776,12.018-12.44,16.676
		c-5.666,4.659-12.866,8.365-21.707,11.118s-19.322,4.13-31.5,4.13h-86.823V88.412z M139.129,167.559h54
		c7.942,0,14.56-2.223,19.853-6.776c5.295-4.553,7.942-11.012,7.942-19.482c0-9.529-2.382-16.252-7.147-20.118
		c-4.765-3.864-11.647-5.824-20.647-5.824h-54V167.559L139.129,167.559z M139.129,250.412h58.5c10.06,0,17.895-2.594,23.4-7.836
		c5.559-5.188,8.365-12.6,8.365-22.129c0-9.371-2.753-16.519-8.365-21.6c-5.611-5.083-13.341-7.519-23.4-7.519h-58.5V250.412z"/>
</g>
<rect fill="none" width="360" height="360"/>
</svg>
