<?xml version="1.0" encoding="utf-8"?>
<!-- Generator: Adobe Illustrator 16.0.3, SVG Export Plug-In . SVG Version: 6.00 Build 0)  -->
<!DOCTYPE svg PUBLIC "-//W3C//DTD SVG 1.1//EN" "http://www.w3.org/Graphics/SVG/1.1/DTD/svg11.dtd">
<svg version="1.1" id="Layer_1" xmlns="http://www.w3.org/2000/svg" xmlns:xlink="http://www.w3.org/1999/xlink" x="0px" y="0px"
	 width="360px" height="360px" viewBox="0 0 360 360" enable-background="new 0 0 360 360" xml:space="preserve">
<rect fill="none" width="360" height="360"/>
<g>
	<path d="M86.597,18h14.555v14.428h13.416V18h14.555v43.664h-14.555V47.109h-13.289v14.555H86.597 M148.359,32.555h-12.846V18h40.31
		v14.555h-12.909v29.109h-14.555 M182.215,18h15.251l9.365,15.377L216.197,18h15.25v43.664h-14.555V40.022l-10.188,15.694
		l-10.188-15.694v21.642h-14.302 M238.662,18h14.555v29.236h20.629v14.428h-35.184"/>
	<path fill="#E44D26" d="M86.091,316.055L65.208,81.661h229.584l-20.883,234.267L179.81,342"/>
	<path fill="#F16529" d="M180,322.066V100.898h93.846l-17.908,199.969"/>
	<path fill="#EBEBEB" d="M107.859,129.565H180v28.729h-40.626l2.658,29.426H180v28.666h-64.294 M116.972,230.814h28.856
		l2.025,22.972L180,262.393v29.995l-58.978-16.453"/>
	<path fill="#FFFFFF" d="M251.888,129.565h-72.014v28.729h69.356 M246.635,187.721h-66.761v28.729h35.437l-3.354,37.336
		l-32.083,8.606v29.868l58.851-16.326"/>
</g>
</svg>
