<?xml version="1.0" encoding="utf-8"?>
<!-- Generator: Adobe Illustrator 16.0.3, SVG Export Plug-In . SVG Version: 6.00 Build 0)  -->
<!DOCTYPE svg PUBLIC "-//W3C//DTD SVG 1.1//EN" "http://www.w3.org/Graphics/SVG/1.1/DTD/svg11.dtd">
<svg version="1.1"
	 id="svg2" sodipodi:docname="MongoDB-Logo.svg" inkscape:version="0.91 r13725" xmlns:inkscape="http://www.inkscape.org/namespaces/inkscape" xmlns:sodipodi="http://sodipodi.sourceforge.net/DTD/sodipodi-0.dtd" xmlns:svg="http://www.w3.org/2000/svg" xmlns:rdf="http://www.w3.org/1999/02/22-rdf-syntax-ns#" xmlns:cc="http://creativecommons.org/ns#" xmlns:dc="http://purl.org/dc/elements/1.1/"
	 xmlns="http://www.w3.org/2000/svg" xmlns:xlink="http://www.w3.org/1999/xlink" x="0px" y="0px" width="360px" height="360px"
	 viewBox="0 0 360 360" enable-background="new 0 0 360 360" xml:space="preserve">
<sodipodi:namedview  id="namedview4" pagecolor="#ffffff" bordercolor="#666666" borderopacity="1" inkscape:zoom="2.0079853" inkscape:cx="210.82244" inkscape:cy="57.558266" showgrid="false" inkscape:window-maximized="1" inkscape:window-y="0" inkscape:window-x="0" inkscape:window-height="1145" inkscape:window-width="1920" inkscape:current-layer="g10" inkscape:pageshadow="2" inkscape:pageopacity="0" guidetolerance="10" gridtolerance="10" objecttolerance="10">
	</sodipodi:namedview>
<g id="g10" transform="matrix(1.25,0,0,-1.25,0,143.2125)" inkscape:label="ink_ext_XXXXXX" inkscape:groupmode="layer">
	<g id="g12" transform="scale(0.1,0.1)">
		<g id="g14">
			<g>
				<defs>
					<path id="SVGID_1_" d="M313.711-628.97l-18.422,6.102c0,0,2.352,93.258-31.289,99.789
						c-22.18,25.695,3.414,1097.754,83.992,3.672c0,0-27.578-13.852-32.797-37.359C309.977-580.298,313.711-628.97,313.711-628.97z"
						/>
				</defs>
				<clipPath id="SVGID_2_">
					<use xlink:href="#SVGID_1_"  overflow="visible"/>
				</clipPath>
				<g id="g16" clip-path="url(#SVGID_2_)">
					
						<linearGradient id="path30_1_" gradientUnits="userSpaceOnUse" x1="705.1015" y1="-794.3215" x2="705.7167" y2="-794.3215" gradientTransform="matrix(43.0493 -14.5243 -13.1019 -38.6334 -40569.5039 -20738.9492)">
						<stop  offset="0" style="stop-color:#929669"/>
						<stop  offset="0.2308" style="stop-color:#929669"/>
						<stop  offset="1" style="stop-color:#FDFCF1"/>
					</linearGradient>
					<path id="path30" inkscape:connector-curvature="0" fill="url(#path30_1_)" d="M313.711-628.97l-18.422,6.102
						c0,0,2.352,93.258-31.289,99.789c-22.18,25.695,3.414,1097.754,83.992,3.672c0,0-27.578-13.852-32.797-37.359
						C309.977-580.298,313.711-628.97,313.711-628.97"/>
				</g>
			</g>
		</g>
		<g id="g32">
			<g>
				<defs>
					<path id="SVGID_3_" d="M323.648-538.907c0,0,160.117,105.453,122.609,324.461C410.133-55.322,324.836-3.009,315.672,16.96
						c-10.086,14.125-20.25,39.18-20.25,39.18l6.813-443.352C302.234-387.212,288.141-522.587,323.648-538.907z"/>
				</defs>
				<clipPath id="SVGID_4_">
					<use xlink:href="#SVGID_3_"  overflow="visible"/>
				</clipPath>
				<g id="g34" clip-path="url(#SVGID_4_)">
					
						<linearGradient id="path46_1_" gradientUnits="userSpaceOnUse" x1="701.9335" y1="-866.9933" x2="702.5488" y2="-866.9933" gradientTransform="matrix(30.1458 -117.0264 -125.9163 -20.1877 -130059.9844 64694.2422)">
						<stop  offset="0" style="stop-color:#45AA3A"/>
						<stop  offset="1" style="stop-color:#3D9439"/>
					</linearGradient>
					<path id="path46" inkscape:connector-curvature="0" fill="url(#path46_1_)" d="M323.648-538.907
						c0,0,160.117,105.453,122.609,324.461C410.133-55.322,324.836-3.009,315.672,16.96c-10.086,14.125-20.25,39.18-20.25,39.18
						l6.813-443.352C302.234-387.212,288.141-522.587,323.648-538.907"/>
				</g>
			</g>
		</g>
		<g id="g48">
			<g>
				<defs>
					<path id="SVGID_5_" d="M285.914-544.806c0,0-150.195,102.469-141.555,283.25S259.086,8.116,279.75,24.241
						c13.352,14.242,13.906,19.734,14.938,33.773c9.367-20.109,7.805-300.391,8.797-333.148
						C307.336-402.665,296.422-520.736,285.914-544.806L285.914-544.806z"/>
				</defs>
				<clipPath id="SVGID_6_">
					<use xlink:href="#SVGID_5_"  overflow="visible"/>
				</clipPath>
				<g id="g50" clip-path="url(#SVGID_6_)">
					
						<linearGradient id="path62_1_" gradientUnits="userSpaceOnUse" x1="659.4453" y1="-803.634" x2="660.06" y2="-803.634" gradientTransform="matrix(52.7619 11.988 16.4871 -49.2638 -21415.4043 -47775.957)">
						<stop  offset="0" style="stop-color:#41A83B"/>
						<stop  offset="1" style="stop-color:#5EBC44"/>
					</linearGradient>
					<path id="path62" inkscape:connector-curvature="0" fill="url(#path62_1_)" d="M285.914-544.806
						c0,0-150.195,102.469-141.555,283.25S259.086,8.116,279.75,24.241c13.352,14.242,13.906,19.734,14.938,33.773
						c9.367-20.109,7.805-300.391,8.797-333.148C307.336-402.665,296.422-520.736,285.914-544.806"/>
				</g>
			</g>
		</g>
		<path id="path64" inkscape:connector-curvature="0" fill="#C0BDBA" d="M2100.773-486.447c10.617-8.5,31.859-12,50.586-12
			c24.289,0,48.063,4.508,71.328,25.484c23.773,21.492,39.961,54.461,39.961,106.922c0,50.453-19.219,91.422-58.68,115.406
			c-22.258,13.984-51.086,19.484-83.977,19.484c-9.609,0-19.219-0.5-24.789-3c-1.516-1-4.555-4.992-4.555-7
			c-1.008-8.984-1.008-77.438-1.008-117.898c0-41.469,0-99.414,1.008-106.414C2091.164-471.462,2094.187-481.954,2100.773-486.447z
			 M1999.797-208.665c8.594,0,41.273-1.5,56.453-1.5c28.336,0,48.055,1.5,101.172,1.5c44.523,0,81.961-11.992,108.766-34.977
			c32.383-27.977,49.578-66.945,49.578-114.406c0-67.445-30.852-106.414-61.703-128.398
			c-30.867-22.984-70.836-35.977-127.992-35.977c-30.359,0-82.477,1-125.984,1.5h-0.594c-2.016,4,3.727,19.578,7.289,19.984
			c11.766,1.336,14.945,1.789,20.406,4.031c9.18,3.773,11.352,8.461,12.375,24.945c1.508,30.977,1.008,67.945,1.008,109.914
			c0,29.977,0.5,88.43-0.508,106.914c-1.523,15.492-8.086,19.484-21.242,22.484c-6.586,1.5-15.688,3-28.328,4.5
			C1989.476-225.157,1997.265-211.665,1999.797-208.665"/>
		<path id="path66" inkscape:connector-curvature="0" fill="#C0BDBA" d="M2449.734-233.15c-2.023-0.5-4.555-5.5-4.555-8
			c-0.5-17.977-1-64.938-1-97.406c0-1,1.508-2.5,2.531-2.5c6.57-0.508,22.758-1.008,36.414-1.008c19.227,0,30.367,2.508,36.43,5.5
			c16.188,7.992,23.766,25.477,23.766,44.461c0,43.469-30.352,59.953-75.359,59.953
			C2464.922-232.15,2456.312-232.15,2449.734-233.15L2449.734-233.15z M2564.57-432.993c0,43.969-32.367,68.938-91.563,68.938
			c-2.531,0-21.25,0.508-25.805-0.5c-1.516-0.484-3.023-1.484-3.023-2.484c0-31.484-0.516-81.938,1-101.922
			c1.016-8.492,7.094-20.484,14.68-23.984c8.102-4.5,26.297-5.5,38.945-5.5C2533.719-498.447,2564.57-478.954,2564.57-432.993
			L2564.57-432.993z M2358.375-208.665c4.547,0,18.016-1.5,52.406-1.5c32.383,0,58.688,1,90.055,1
			c38.945,0,92.57-13.992,92.57-71.953c0-28.469-20.234-51.453-46.531-62.445c-1.523-0.5-1.523-1.5,0-2
			c37.43-9.492,70.313-32.469,70.313-76.43c0-42.969-26.813-69.953-65.766-86.938c-23.781-10.492-53.109-13.992-82.977-13.992
			c-22.758,0-83.758,2.5-117.656,2c-3.547,1.5,3.242,17.492,6.273,19.984c8.102,0.492,14.344,1.086,22.945,3.586
			c12.133,2.992,13.578,6.906,15.094,24.891c1.023,15.484,1.023,70.938,1.023,110.414c0,53.961,0.492,90.43,0,108.414
			c-0.516,13.992-5.57,18.484-15.188,20.984c-7.586,1.5-20.227,3-30.344,4.5C2348.054-225.657,2355.844-210.665,2358.375-208.665"/>
		<path id="path68" inkscape:connector-curvature="0" fill="#414044" d="M548.578-522.197c-0.844,1.344-1.734,5.313-1.547,10.094
			c0.141,3.641,0.859,5.945,1.539,6.734c9.539,1.508,14.063,2.523,19.422,3.961c8.945,2.211,12.313,7.047,12.844,18.484
			c1.461,26.945,1.555,77.477,1.016,113.008l0.008,1.047c0.039,3.813,0.094,9.016-4.688,12.695
			c-7.016,4.625-15.766,8.445-26.836,11.773c-4.234,1.25-6.578,3.469-6.453,6.078c0.133,2.5,2.789,5.688,8.313,6.75
			c14.648,1.516,53.063,10.656,68.133,17.609c0.891-1.086,2.297-3.438,2.023-7.172c-0.109-1.578-0.25-3.234-0.391-4.938
			c-0.43-5.023-0.906-10.711-0.906-16.391c0-1.672,1.813-3.25,3.734-3.25c0.977,0,1.883,0.375,2.617,1.109
			c28.719,22.469,54.406,30.5,67.633,30.5c21.734,0,38.641-10.375,51.711-31.703c0.766-1.125,1.797-1.719,2.945-1.719
			c1.102,0,2.133,0.563,2.742,1.469c26.414,20.008,52.586,31.953,70.086,31.953c41.414,0,66.148-30.969,66.148-82.82
			c0-14.898-0.148-33.789-0.281-51.414c-0.125-15.469-0.234-29.969-0.234-40c0-2.438,3.258-9.188,8.172-10.531
			c6.047-2.953,14.805-4.453,25.852-6.359l0.422-0.063c0.844-2.977-0.914-14.539-2.602-16.906
			c-2.742,0.023-6.539,0.227-11.266,0.461c-8.602,0.438-20.383,1.039-34.109,1.039c-27.516,0-41.891-0.547-55.625-1.43
			c-1.031,3.43-1.398,14.492-0.133,16.805c8.008,1.5,11.969,2.5,16.773,3.922c8.758,2.891,11.281,6.859,11.789,18.477
			c0.203,8.273,1.789,80.984-1.023,98.258c-2.594,17.891-16.102,38.836-45.633,38.836c-10.953,0-28.648-4.555-45.523-17.336
			c-1.047-1.016-1.648-2.984-1.648-4.281l0.031-0.328c1.984-9.328,1.984-20.195,1.984-36.641c0-9.375-0.063-19.32-0.109-29.195
			c-0.117-20.047-0.227-38.977,0.109-53.281c0-9.75,5.898-12.07,10.648-13.953c2.578-0.57,4.625-1.063,6.672-1.555
			c3.984-0.953,8.094-1.945,14.188-2.922c0.828-1.922,0.898-7.656-0.242-12.563c-0.641-2.719-1.375-3.914-1.758-4.305
			c-15.305,0.531-31.008,0.992-53.656,0.992c-6.867,0-18.086-0.305-27.977-0.563c-8.016-0.211-15.609-0.43-19.922-0.438
			c-0.625,0.984-1.5,4.148-1.5,8.703c0,4.234,0.781,7.219,1.578,8.141c2.125,0.398,4.148,0.75,6.086,1.102
			c5.313,0.945,9.898,1.758,14.305,2.836c7.5,2.281,10.313,6.445,10.859,15.969c1.461,22.234,2.602,86.281-0.547,102.328
			c-5.359,25.734-20.031,38.781-43.594,38.781c-13.813,0-31.25-6.641-45.508-17.312c-2.391-1.766-4.195-6.203-4.195-10.297
			c0-7.625-0.023-16.703-0.055-26.438c-0.094-32.172-0.211-72.203,0.57-89.539c0.484-5.32,2.336-11.664,12.391-14
			c2.188-0.609,5.992-1.25,10.391-1.977c2.539-0.422,5.313-0.875,8.156-1.391c1.023-2.75,0.398-13.547-1.352-16.906
			c-4.398,0.023-9.805,0.273-16.016,0.547c-9.477,0.422-21.258,0.953-34.695,0.953c-15.813,0-26.82-0.531-35.664-0.953
			C558.852-521.923,553.711-522.173,548.578-522.197L548.578-522.197"/>
		<path id="path70" inkscape:connector-curvature="0" fill="#414044" d="M1050.445-335.345c-9.203,0-17.805-2.414-24.203-6.789
			c-17.563-10.672-26.508-31.984-26.508-63.281c0-58.609,29.391-99.539,71.445-99.539c12.414,0,22.531,3.555,30.938,10.898
			c12.93,10.531,19.781,32.047,19.781,62.172C1121.898-374.142,1093.187-335.345,1050.445-335.345L1050.445-335.345
			L1050.445-335.345z M1058.547-526.697c-76.008,0-103.086,55.688-103.086,107.797c0,36.398,14.898,64.859,44.305,84.578
			c20.898,12.836,45.852,20.219,68.391,20.219c58.008,0,98.523-41.656,98.523-101.312c0-40.547-16.195-72.563-46.813-92.563
			C1105.172-516.978,1079.695-526.697,1058.547-526.697L1058.547-526.697"/>
		<path id="path72" inkscape:connector-curvature="0" fill="#414044" d="M1837.515-335.345c-9.219,0-17.82-2.414-24.211-6.789
			c-17.563-10.672-26.508-31.969-26.508-63.281c0-58.609,29.375-99.539,71.453-99.539c12.406,0,22.523,3.555,30.93,10.898
			c12.93,10.531,19.781,32.047,19.781,62.164C1908.961-374.15,1880.242-335.345,1837.515-335.345L1837.515-335.345L1837.515-335.345
			z M1845.609-526.697c-76.008,0-103.094,55.688-103.094,107.789c0,36.414,14.914,64.875,44.32,84.602
			c20.891,12.828,45.844,20.203,68.383,20.203c58.008,0,98.523-41.664,98.523-101.305c0-40.563-16.195-72.57-46.813-92.57
			C1892.242-516.978,1866.765-526.697,1845.609-526.697L1845.609-526.697"/>
		<path id="path74" inkscape:connector-curvature="0" fill="#414044" d="M1583.172-333.353c-23.43,0-38.57-18.484-38.57-47.078
			c0-28.867,13.023-62.578,49.703-62.578c6.305,0,17.727,2.797,23.383,9.031c8.523,7.828,14.086,23.984,14.086,41.063
			C1631.773-355.618,1613.601-333.353,1583.172-333.353L1583.172-333.353z M1580.148-530.689c-8.805,0-15.211-2.555-19.031-4.703
			c-18.539-11.875-27.141-23.734-27.141-37.391c0-12.875,5.008-23.102,15.758-32.203c13.016-11.016,30.578-16.383,53.68-16.383
			c45.422,0,65.797,24.406,65.797,48.586c0,16.836-8.461,28.117-25.859,34.492C1629.953-533.392,1607.562-530.689,1580.148-530.689
			L1580.148-530.689L1580.148-530.689z M1583.172-646.611c-27.281,0-46.945,5.758-63.742,18.664
			c-16.336,12.594-23.648,31.273-23.648,44.18c0,3.711,0.875,13.305,8.945,22.469c4.758,5.398,15.766,15.5,41.203,32.977
			c0.781,0.297,1.328,1.063,1.328,2c0,1.039-0.672,1.883-1.594,2.078c-20.969,8.023-27.297,21.172-29.195,28.313
			c-0.031,0.258-0.117,0.672-0.211,1.109c-0.609,2.797-1.164,5.445,2.625,8.164c2.938,2.086,7.648,4.883,12.641,7.828
			c7.375,4.352,15.727,9.273,20.344,13.227c0.734,0.719,1.031,1.766,0.859,2.813c-0.172,1.063-0.789,1.93-1.695,2.375
			c-31.023,10.414-46.656,33.438-46.656,68.5c0,22.625,10.453,43.086,28.672,56.133c12.469,9.852,43.797,21.695,64.086,21.695
			l1.18-0.016c20.883-0.5,32.648-4.859,48.938-10.891c8.836-3.266,17.211-4.594,28.914-4.594c17.289,0,24.836,5.469,31.312,11.75
			c0.367-0.773,1.25-3.242,1.648-8.938c0.406-5.797-1.18-14.391-5.617-20.523c-3.539-4.883-11.726-8.43-19.453-8.43
			c-0.773,0-1.539,0.031-2.273,0.109c-7.953,0.781-11.695,1.938-11.727,1.961l-1.953-0.68c-0.617-0.898-0.219-1.898,0.289-3.156
			c0.125-0.313,0.242-0.594,0.289-0.781c1.016-4.047,2.82-15.852,2.82-19.164c0-36.758-14.523-52.805-30.219-64.648
			c-14.977-11.297-32.484-18.086-52.211-20.172h-0.023c-0.398,0-2.266-0.164-6.031-0.5c-2.43-0.219-5.461-0.484-5.906-0.484
			l-0.445-0.063c-3.43-0.969-12.328-5.195-12.328-13.055c0-6.539,4.039-14.648,23.273-16.102c3.898-0.297,8.078-0.586,12.445-0.883
			c25.398-1.766,57.102-3.961,72.031-9.023c20.531-7.469,33.305-25.836,33.305-47.93c0-32.992-23.492-64.023-62.82-82.977
			C1623.492-642.243,1604.117-646.611,1583.172-646.611L1583.172-646.611"/>
		<path id="path76" inkscape:connector-curvature="0" fill="#414044" d="M1458.383-504.603c-11.125,1.5-19.227,3-28.836,7.484
			c-1.516,1-3.547,5.5-3.547,7c-1.016,15.492-1.016,60.453-1.016,89.93c0,23.977-4.039,44.961-14.156,59.961
			c-12.141,16.984-29.336,26.969-51.602,26.969c-19.727,0-46.039-13.484-67.781-31.969c-0.508-0.5-3.852-3.672-3.773,1.25
			c0.07,4.906,0.828,14.914,1.289,21.211c0.461,6.289-3.313,9.258-3.313,9.258c-14.164-6.992-54.063-16.461-68.789-17.984
			c-10.766-2.07-13.484-12.406-2.016-15.984l0,0c0-0.016,0.109-0.031,0.172-0.055c12-3.602,20.078-7.461,26.109-11.43
			c4.563-3.5,4.047-8.5,4.047-12.5c0.516-33.469,0.516-84.938-1.016-112.906c-0.5-11-3.539-14.984-11.633-16.984l0.742,0.242
			c-6.078-1.492-11.133-2.492-18.719-3.492c-2.531-2.5-2.531-16.984-0.008-19.992c5.063,0,30.867,1.508,52.117,1.508
			c29.328,0,44.516-1.508,52.102-1.508c3.039,3.508,4.047,16.992,2.023,19.992c-8.609,0.5-14.672,1.5-20.742,3
			c-8.094,2-10.117,5.984-10.617,14.984c-1.016,23.484-1.016,73.438-1.016,107.422c0,9.484,2.531,13.984,5.563,16.484
			c10.109,8.992,26.813,14.977,41.484,14.977c14.156,0,23.773-4.492,30.859-10.484c9.609-7.992,13.148-19.477,14.164-27.977
			c2.023-18.984,1.508-56.953,1.508-89.93c0-17.992-1.508-22.484-8.078-24.477c-3.047-1.508-11.141-3-20.75-4
			c-3.031-3-2.023-16.984,0-19.992c13.156,0,28.336,1.508,50.586,1.508c27.836,0,45.531-1.508,52.617-1.508
			C1459.398-521.087,1460.398-508.095,1458.383-504.603"/>
		<path id="path78" inkscape:connector-curvature="0" fill="#C0BDBA" d="M2688.359-479.954h8.563c6.922,0,9.555,2.414,9.555,8.672
			c0,6.367-2.523,8.453-10.32,8.453h-7.797V-479.954z M2706.586-506.853l-10.102,21.742h-8.125v-21.742h-5.93v49.406h14.609
			c10.867,0,15.367-4.836,15.367-13.836c0-7.242-3.406-11.852-9.766-13.18l10.422-22.391H2706.586L2706.586-506.853z
			 M2697.039-446.587c-19.875,0-35.672-15.695-35.672-35.672c0-19.641,15.797-35.453,35.555-35.453
			c19.656,0,35.461,15.813,35.461,35.453C2732.383-462.181,2717.015-446.587,2697.039-446.587z M2696.922-521.22
			c-21.945,0-39.07,17.117-39.07,39.07c0,22.063,17.125,39.078,39.188,39.078c21.516,0,38.961-17.234,38.961-38.531
			C2736-503.876,2718.883-521.22,2696.922-521.22"/>
	</g>
</g>
<rect y="0" fill="none" width="360" height="360"/>
</svg>
