<?xml version="1.0" encoding="utf-8"?>
<!-- Generator: Adobe Illustrator 16.0.0, SVG Export Plug-In . SVG Version: 6.00 Build 0)  -->
<!DOCTYPE svg PUBLIC "-//W3C//DTD SVG 1.1//EN" "http://www.w3.org/Graphics/SVG/1.1/DTD/svg11.dtd">
<svg version="1.1"
	 id="svg3476" xmlns:inkscape="http://www.inkscape.org/namespaces/inkscape" xmlns:sodipodi="http://sodipodi.sourceforge.net/DTD/sodipodi-0.dtd" xmlns:svg="http://www.w3.org/2000/svg" xmlns:rdf="http://www.w3.org/1999/02/22-rdf-syntax-ns#" xmlns:cc="http://creativecommons.org/ns#" xmlns:dc="http://purl.org/dc/elements/1.1/" inkscape:version="0.91 r13725" sodipodi:docname="CSS3.svg"
	 xmlns="http://www.w3.org/2000/svg" xmlns:xlink="http://www.w3.org/1999/xlink" x="0px" y="0px" width="360px" height="360px"
	 viewBox="0 0 360 360" enable-background="new 0 0 360 360" xml:space="preserve">
<sodipodi:namedview  fit-margin-left="0" fit-margin-top="0" showgrid="false" inkscape:cy="256" inkscape:cx="181.367" inkscape:zoom="0.35" borderopacity="1.0" bordercolor="#666666" pagecolor="#ffffff" id="base" fit-margin-bottom="0" inkscape:pageopacity="0.0" inkscape:pageshadow="2" inkscape:document-units="px" inkscape:window-x="0" inkscape:current-layer="layer1" inkscape:window-y="27" inkscape:window-maximized="1" inkscape:window-width="1366" inkscape:window-height="704" fit-margin-right="0">
	</sodipodi:namedview>
<rect fill="none" width="360" height="360"/>
<g>
	<path fill="#00D8FF" d="M291.354,125.919c-3.586-1.234-7.301-2.402-11.126-3.506c0.628-2.566,1.206-5.099,1.719-7.588
		c8.422-40.88,2.915-73.813-15.888-84.655c-18.029-10.397-47.514,0.444-77.293,26.359c-2.863,2.492-5.735,5.13-8.605,7.896
		c-1.913-1.83-3.822-3.598-5.727-5.289c-31.209-27.71-62.492-39.388-81.275-28.514c-18.012,10.427-23.346,41.387-15.766,80.129
		c0.732,3.742,1.588,7.563,2.555,11.449c-4.427,1.257-8.701,2.596-12.791,4.022C30.567,138.979,7.2,158.971,7.2,179.708
		c0,21.418,25.085,42.902,63.195,55.927c3.008,1.028,6.128,2,9.345,2.923c-1.044,4.202-1.952,8.32-2.714,12.337
		c-7.228,38.069-1.583,68.298,16.381,78.658c18.555,10.7,49.696-0.298,80.019-26.805c2.396-2.095,4.802-4.317,7.211-6.646
		c3.124,3.007,6.242,5.854,9.344,8.523c29.371,25.274,58.381,35.481,76.328,25.092c18.537-10.731,24.561-43.204,16.74-82.712
		c-0.598-3.018-1.293-6.101-2.073-9.237c2.187-0.646,4.333-1.314,6.427-2.008c39.62-13.127,65.397-34.349,65.397-56.053
		C352.8,158.896,328.679,138.769,291.354,125.919z M282.76,221.748c-1.89,0.626-3.828,1.23-5.805,1.816
		c-4.375-13.847-10.277-28.571-17.501-43.784c6.894-14.85,12.567-29.386,16.819-43.143c3.536,1.023,6.967,2.102,10.273,3.24
		c31.981,11.01,51.489,27.288,51.489,39.83C338.036,193.069,316.968,210.412,282.76,221.748z M268.564,249.874
		c3.459,17.471,3.953,33.265,1.662,45.612c-2.059,11.096-6.197,18.492-11.316,21.455c-10.891,6.304-34.183-1.891-59.301-23.506
		c-2.879-2.479-5.78-5.124-8.689-7.924c9.736-10.65,19.47-23.032,28.969-36.782c16.707-1.482,32.492-3.906,46.805-7.216
		C267.399,244.358,268.025,247.147,268.564,249.874z M125.022,315.852c-10.641,3.759-19.116,3.866-24.239,0.912
		c-10.901-6.288-15.434-30.559-9.251-63.115c0.708-3.729,1.551-7.559,2.522-11.474c14.157,3.131,29.826,5.384,46.573,6.741
		c9.563,13.455,19.577,25.823,29.668,36.653c-2.205,2.127-4.401,4.154-6.585,6.063C150.302,303.354,136.865,311.669,125.022,315.852
		z M75.17,221.665c-16.852-5.76-30.768-13.245-40.308-21.414c-8.571-7.341-12.899-14.628-12.899-20.542
		c0-12.584,18.762-28.635,50.054-39.545c3.797-1.324,7.771-2.572,11.896-3.743c4.325,14.067,9.998,28.775,16.844,43.648
		c-6.935,15.094-12.688,30.037-17.055,44.269C80.761,223.491,77.912,222.602,75.17,221.665z M91.881,107.916
		C85.387,74.723,89.7,49.683,100.555,43.4c11.562-6.694,37.129,2.85,64.076,26.777c1.722,1.529,3.451,3.13,5.186,4.786
		c-10.042,10.782-19.963,23.057-29.441,36.433c-16.253,1.507-31.812,3.927-46.117,7.167
		C93.358,114.945,92.561,111.391,91.881,107.916z M240.958,144.726c-3.421-5.907-6.931-11.674-10.51-17.283
		c11.026,1.394,21.592,3.244,31.513,5.509c-2.979,9.546-6.691,19.527-11.061,29.759
		C247.766,156.759,244.449,150.758,240.958,144.726z M180.165,85.514c6.81,7.377,13.629,15.615,20.337,24.552
		c-6.759-0.319-13.602-0.485-20.502-0.485c-6.834,0-13.627,0.162-20.345,0.476C166.37,101.203,173.249,92.976,180.165,85.514z
		 M118.983,144.828c-3.417,5.923-6.67,11.892-9.756,17.872c-4.299-10.196-7.978-20.223-10.982-29.904
		c9.86-2.207,20.375-4.011,31.333-5.378C125.947,133.078,122.408,138.888,118.983,144.828L118.983,144.828z M129.893,233.055
		c-11.32-1.264-21.994-2.975-31.852-5.12c3.052-9.855,6.812-20.096,11.202-30.511c3.094,5.975,6.361,11.945,9.798,17.882h0
		C122.542,221.353,126.169,227.277,129.893,233.055z M180.573,274.944c-6.997-7.549-13.977-15.9-20.793-24.884
		c6.617,0.26,13.363,0.393,20.22,0.393c7.044,0,14.008-0.158,20.862-0.464C194.133,259.134,187.337,267.499,180.573,274.944z
		 M251.041,196.893c4.619,10.528,8.513,20.715,11.605,30.402c-10.021,2.285-20.84,4.126-32.238,5.495
		c3.588-5.686,7.129-11.552,10.607-17.586C244.537,209.1,247.88,202.985,251.041,196.893z M228.229,207.828
		c-5.402,9.367-10.949,18.309-16.579,26.75c-10.255,0.733-20.851,1.11-31.649,1.11c-10.755,0-21.216-0.334-31.291-0.987
		c-5.857-8.552-11.524-17.52-16.892-26.792h0.001c-5.354-9.247-10.281-18.572-14.746-27.846c4.464-9.295,9.378-18.63,14.701-27.861
		l-0.001,0.001c5.337-9.255,10.954-18.18,16.758-26.678c10.278-0.777,20.818-1.182,31.469-1.182h0
		c10.699,0,21.252,0.408,31.527,1.192c5.715,8.436,11.295,17.332,16.652,26.588c5.419,9.36,10.396,18.633,14.898,27.729
		C238.59,189.105,233.623,198.472,228.229,207.828z M258.685,42.96c11.573,6.674,16.073,33.59,8.802,68.885
		c-0.463,2.252-0.985,4.546-1.553,6.871c-14.338-3.308-29.908-5.77-46.209-7.299c-9.496-13.523-19.338-25.817-29.215-36.461
		c2.655-2.555,5.308-4.991,7.948-7.29C223.973,45.462,247.818,36.695,258.685,42.96z M180,148.848
		c17.043,0,30.861,13.817,30.861,30.861c0,17.044-13.818,30.862-30.861,30.862c-17.044,0-30.861-13.817-30.861-30.862
		C149.139,162.665,162.956,148.848,180,148.848z"/>
</g>
</svg>
