<?xml version="1.0" encoding="utf-8"?>
<!-- Generator: Adobe Illustrator 16.0.0, SVG Export Plug-In . SVG Version: 6.00 Build 0)  -->
<!DOCTYPE svg PUBLIC "-//W3C//DTD SVG 1.1//EN" "http://www.w3.org/Graphics/SVG/1.1/DTD/svg11.dtd">
<svg version="1.1"
	 id="svg3476" xmlns:inkscape="http://www.inkscape.org/namespaces/inkscape" xmlns:sodipodi="http://sodipodi.sourceforge.net/DTD/sodipodi-0.dtd" xmlns:svg="http://www.w3.org/2000/svg" xmlns:rdf="http://www.w3.org/1999/02/22-rdf-syntax-ns#" xmlns:cc="http://creativecommons.org/ns#" xmlns:dc="http://purl.org/dc/elements/1.1/" inkscape:version="0.91 r13725" sodipodi:docname="CSS3.svg"
	 xmlns="http://www.w3.org/2000/svg" xmlns:xlink="http://www.w3.org/1999/xlink" x="0px" y="0px" width="360px" height="360px"
	 viewBox="0 0 360 360" enable-background="new 0 0 360 360" xml:space="preserve">
<sodipodi:namedview  fit-margin-left="0" fit-margin-top="0" showgrid="false" inkscape:cy="256" inkscape:cx="181.367" inkscape:zoom="0.35" borderopacity="1.0" bordercolor="#666666" pagecolor="#ffffff" id="base" fit-margin-bottom="0" inkscape:pageopacity="0.0" inkscape:pageshadow="2" inkscape:document-units="px" inkscape:window-x="0" inkscape:current-layer="layer1" inkscape:window-y="27" inkscape:window-maximized="1" inkscape:window-width="1366" inkscape:window-height="704" fit-margin-right="0">
	</sodipodi:namedview>
<rect fill="none" width="360" height="360"/>
<g>
	<title>logo-on-white-bg</title>
	<path fill="#FFFFFF" d="M51.099,130.333l43.899,24.831v49.675l-43.899,24.83L7.2,204.838v-49.675L51.099,130.333z"/>
	<path fill="#8ED6FB" d="M87.16,203.123l-34.609,19.58v-15.246l21.564-11.865L87.16,203.123z M89.531,200.979v-40.938l-12.659,7.317
		v26.317L89.531,200.979z M14.902,203.123l34.609,19.58v-15.246l-21.575-11.865L14.902,203.123z M12.531,200.979v-40.938
		l12.659,7.317v26.317L12.531,200.979z M14.018,157.387l35.494-20.078v14.736l-22.744,12.512l-0.182,0.101
		C26.586,164.658,14.018,157.387,14.018,157.387z M88.045,157.387l-35.494-20.078v14.736l22.744,12.5l0.182,0.102L88.045,157.387z"
		/>
	<path fill="#1C78C0" d="M49.511,203.987l-21.28-11.708v-23.175l21.28,12.285V203.987z M52.551,203.987l21.281-11.696v-23.187
		L52.551,181.39V203.987z M29.671,166.427l21.36-11.74l21.359,11.74l-21.359,12.331L29.671,166.427z"/>
	<path fill="#1A1C1C" d="M139.272,195.705h9.358l9.541-31.784h-9.121l-5.649,22.55l-6.022-22.55h-7.896l-6.081,22.55l-5.592-22.55
		h-9.121l9.483,31.784h9.358l5.899-20.361L139.272,195.705L139.272,195.705z M158.658,179.903c0,9.54,6.5,16.596,16.721,16.596
		c7.904,0,12.158-4.74,13.373-6.987l-5.536-4.197c-0.907,1.338-3.403,3.891-7.724,3.891c-4.685,0-8.088-3.04-8.27-7.294h22.38
		c0.059-0.612,0.059-1.214,0.059-1.826c0-10.391-5.595-16.959-15.439-16.959C165.158,163.126,158.658,170.296,158.658,179.903
		L158.658,179.903z M167.472,176.433c0.364-3.642,2.916-6.443,6.875-6.443c3.833,0,6.625,2.552,6.806,6.443H167.472z
		 M192.825,195.705h7.906v-3.279c0.851,1.034,4.015,4.073,9.426,4.073c9.119,0,15.563-6.862,15.563-16.652
		c0-9.846-5.954-16.709-15.076-16.709c-5.466,0-8.633,3.041-9.426,4.129V151.76h-8.382v43.945H192.825z M200.969,179.903
		c0-5.955,3.528-9.358,8.146-9.358c4.865,0,8.144,3.834,8.144,9.358c0,5.649-3.403,9.178-8.144,9.178
		C204.01,189.081,200.969,184.94,200.969,179.903z M228.986,207.071h8.385v-14.655c0.793,1.031,3.947,4.072,9.426,4.072
		c9.119,0,15.074-6.862,15.074-16.709c0-9.722-6.442-16.653-15.562-16.653c-5.413,0-8.577,3.041-9.428,4.129v-3.346h-7.904v43.162
		H228.986z M237.133,179.722c0-5.048,3.038-9.177,8.143-9.177c4.743,0,8.146,3.528,8.146,9.177c0,5.536-3.278,9.359-8.146,9.359
		C240.661,189.081,237.133,185.678,237.133,179.722z M263.392,185.858c0,6.682,5.468,10.641,11.91,10.641
		c3.653,0,6.081-1.09,7.728-2.858l0.543,2.064h7.418v-20.123c0-7.113-3.041-12.456-13.249-12.456c-4.866,0-9.664,1.827-12.522,3.767
		l3.164,5.717c2.372-1.214,5.287-2.246,8.451-2.246c3.709,0,5.775,1.882,5.775,4.685v2.065c-1.16-0.794-3.654-1.759-6.877-1.759
		C268.314,175.344,263.392,179.598,263.392,185.858L263.392,185.858z M271.774,185.609c0-2.609,2.245-4.436,5.468-4.436
		c3.222,0,5.536,1.646,5.536,4.436c0,2.676-2.314,4.377-5.47,4.377C274.156,189.986,271.774,188.23,271.774,185.609z
		 M311.354,189.081c-5.288,0-9.052-3.835-9.052-9.234c0-5.105,3.345-9.302,8.755-9.302c3.586,0,6.024,1.759,7.42,3.04l2.369-7.055
		c-2.063-1.577-5.353-3.404-10.028-3.404c-9.663,0-16.9,7.113-16.9,16.777c0,9.664,7.056,16.596,16.959,16.596
		c4.617,0,8.087-1.94,9.902-3.403l-2.246-6.862C317.125,187.379,314.572,189.081,311.354,189.081L311.354,189.081z M323.934,195.705
		h8.382v-16.414l10.64,16.414h9.845l-12.032-17.39l11.182-14.406h-9.426l-10.208,13.375V151.76h-8.382V195.705L323.934,195.705z"/>
</g>
</svg>
