<?xml version="1.0" encoding="UTF-8" standalone="no"?>
<!DOCTYPE svg PUBLIC "-//W3C//DTD SVG 1.1//EN" "http://www.w3.org/Graphics/SVG/1.1/DTD/svg11.dtd">
<svg width="100%" height="100%" viewBox="0 0 1080 1080" version="1.1" xmlns="http://www.w3.org/2000/svg" xmlns:xlink="http://www.w3.org/1999/xlink" xml:space="preserve" xmlns:serif="http://www.serif.com/" style="fill-rule:evenodd;clip-rule:evenodd;stroke-linecap:square;stroke-linejoin:round;stroke-miterlimit:1.5;">
    <g transform="matrix(1.10096,0,0,1.09433,-42.5166,-38.9928)">
        <g id="Layer1">
            <rect x="-26.711" y="-25.937" width="1120.14" height="1117.34" style="fill:none;stroke:rgb(32,32,32);stroke-width:23.47px;"/>
            <rect x="-26.711" y="-25.937" width="1120.14" height="1117.34" style="fill:url(#_Radial1);"/>
        </g>
    </g>
    <g transform="matrix(0.96325,0,0,0.96325,-212.528,-167.958)">
        <path d="M1204.69,456.213L1204.69,685.844L1188.14,704.969L1162.69,674.888L1162.69,456.213L1099.23,456.213L1099.23,712.846L1156.75,771.67L1156.75,912.279L1220.67,949.258L1220.67,774.41L1269.06,735.56L1269.06,456.213L1204.69,456.213Z" style="fill:none;stroke:rgb(32,32,32);stroke-width:26.75px;"/>
        <path d="M1204.69,456.213L1204.69,685.844L1188.14,704.969L1162.69,674.888L1162.69,456.213L1099.23,456.213L1099.23,712.846L1156.75,771.67L1156.75,912.279L1220.67,949.258L1220.67,774.41L1269.06,735.56L1269.06,456.213L1204.69,456.213Z" style="fill:white;"/>
        <g transform="matrix(0.891304,0,0,0.986999,55.6425,6.65844)">
            <path d="M548.871,455.962L481.671,455.962L481.671,793.059C481.671,793.059 516.561,785.022 548.871,781.218L548.871,455.962Z" style="fill:none;stroke:rgb(32,32,32);stroke-width:28.44px;"/>
            <path d="M548.871,455.962L481.671,455.962L481.671,793.059C481.671,793.059 516.561,785.022 548.871,781.218L548.871,455.962Z" style="fill:white;"/>
        </g>
        <path d="M643.44,768.892C596.698,772.238 580.896,774.592 580.896,774.592L580.896,455.939L660.331,455.939L690.553,591.253L716.613,455.939L805.049,455.939L805.049,760.349C782.186,761.269 761.481,762.191 742.779,763.097L742.779,597.461C725.127,676.012 691.648,728.209 691.648,728.209C691.648,728.209 659.875,681.985 643.44,597.827L643.44,768.892Z" style="fill:none;stroke:rgb(32,32,32);stroke-width:26.75px;"/>
        <path d="M643.44,768.892C596.698,772.238 580.896,774.592 580.896,774.592L580.896,455.939L660.331,455.939L690.553,591.253L716.613,455.939L805.049,455.939L805.049,760.349C782.186,761.269 761.481,762.191 742.779,763.097L742.779,597.461C725.127,676.012 691.648,728.209 691.648,728.209C691.648,728.209 659.875,681.985 643.44,597.827L643.44,768.892Z" style="fill:white;"/>
        <g transform="matrix(1,0,0,1,260.035,0)">
            <path d="M643.44,766.335C627.742,764.934 580.896,764.001 580.896,764.001L580.896,455.939L660.331,455.939L690.553,591.253L716.613,455.939L805.049,455.939L805.049,786.644C783.646,779.895 767.325,775.704 742.779,772.958L742.779,597.461C725.127,676.012 696.031,731.496 696.031,731.496C696.031,731.496 659.875,681.985 643.44,597.827L643.44,766.335Z" style="fill:none;stroke:rgb(32,32,32);stroke-width:26.75px;"/>
            <path d="M643.44,766.335C627.742,764.934 580.896,764.001 580.896,764.001L580.896,455.939L660.331,455.939L690.553,591.253L716.613,455.939L805.049,455.939L805.049,786.644C783.646,779.895 767.325,775.704 742.779,772.958L742.779,597.461C725.127,676.012 696.031,731.496 696.031,731.496C696.031,731.496 659.875,681.985 643.44,597.827L643.44,766.335Z" style="fill:white;"/>
        </g>
        <path d="M491.854,410.778L1124.03,410.778L1124.03,367.979L491.854,367.979L491.854,410.778Z" style="fill:none;stroke:rgb(32,32,32);stroke-width:26.75px;"/>
        <path d="M491.854,410.778L1124.03,410.778L1124.03,367.979L491.854,367.979L491.854,410.778Z" style="fill:rgb(225,6,0);"/>
        <path d="M804.375,1032.75L577.272,921.262C530.673,928.094 504.273,934.609 504.273,934.609L803.41,1079.99L1097.91,935.957C1097.91,935.957 1074.4,928.847 1026.81,921.533L804.375,1032.75ZM805.266,946.259L728.057,907.294C701.256,908.44 676.368,910.185 653.664,912.252L805.266,990.841L947.156,912.105C926.711,910.319 904.167,908.787 879.506,907.684L805.266,946.259Z" style="fill:none;stroke:rgb(32,32,32);stroke-width:26.75px;"/>
        <path d="M804.375,1032.75L577.272,921.262C530.673,928.094 504.273,934.609 504.273,934.609L803.41,1079.99L1097.91,935.957C1097.91,935.957 1074.4,928.847 1026.81,921.533L804.375,1032.75ZM805.266,946.259L728.057,907.294C701.256,908.44 676.368,910.185 653.664,912.252L805.266,990.841L947.156,912.105C926.711,910.319 904.167,908.787 879.506,907.684L805.266,946.259Z" style="fill:rgb(225,6,0);"/>
        <path d="M381.057,456.745L381.057,827.915L345.996,852.75L345.996,717.146C311.284,724.067 284.545,745.268 284.545,745.268C284.545,745.268 285.336,846.83 284.545,932.365C284.475,939.965 296.784,950.038 304.997,948.042C342.755,938.868 447.716,873.173 447.716,873.173L447.716,456.745L381.057,456.745Z" style="fill:none;stroke:rgb(32,32,32);stroke-width:26.75px;"/>
        <path d="M381.057,456.745L381.057,827.915L345.996,852.75L345.996,717.146C311.284,724.067 284.545,745.268 284.545,745.268C284.545,745.268 285.336,846.83 284.545,932.365C284.475,939.965 296.784,950.038 304.997,948.042C342.755,938.868 447.716,873.173 447.716,873.173L447.716,456.745L381.057,456.745Z" style="fill:white;"/>
        <path d="M1029.74,876.801L1029.74,852.558L1054.1,881.894C1061.79,883.709 1065.6,884.857 1065.6,884.857L1065.6,826.616C1059.72,825.456 1053.8,824.353 1047.84,823.303L1047.84,848.818L1024.92,819.545C1021.27,818.989 1017.61,818.451 1013.96,817.931L1013.96,874.035C1019.7,874.98 1024.96,875.908 1029.74,876.801ZM979.923,846.672L979.923,837.488C975.126,836.767 968.806,835.945 964.066,835.797L964.066,828.915C970.302,828.67 978.215,829.52 982.915,830.134L982.915,813.921C970.807,812.507 958.827,811.273 947.124,810.197L947.124,865.477C960.146,866.735 972.074,868.099 982.915,869.5L982.915,854.859C978.072,854.078 969.881,852.883 964.066,852.701L964.066,845.819C969.118,845.62 975.27,846.141 979.923,846.672ZM917.541,849.619C913.201,848.89 903.512,847.373 896.899,847.166L896.899,840.284C902.962,840.046 910.61,840.843 915.35,841.451L915.35,833.26C910.465,832.479 902.556,831.343 896.899,831.166L896.899,824.284C904.02,824.004 913.328,825.153 917.541,825.746L917.541,807.749C904.348,806.775 891.724,805.994 879.923,805.37L879.923,860.703C893.186,861.333 905.721,862.1 917.541,862.969L917.541,849.619ZM828.734,859.085L851.873,804.094C846.066,803.873 840.597,803.692 835.507,803.544L821.854,830.554L810.296,802.993C799.349,802.84 793.144,802.877 793.144,802.877L816.518,858.927C820.646,858.966 824.721,859.019 828.734,859.085Z" style="fill:none;stroke:rgb(32,32,32);stroke-width:26.75px;"/>
        <path d="M1029.74,876.801L1029.74,852.558L1054.1,881.894C1061.79,883.709 1065.6,884.857 1065.6,884.857L1065.6,826.616C1059.72,825.456 1053.8,824.353 1047.84,823.303L1047.84,848.818L1024.92,819.545C1021.27,818.989 1017.61,818.451 1013.96,817.931L1013.96,874.035C1019.7,874.98 1024.96,875.908 1029.74,876.801ZM979.923,846.672L979.923,837.488C975.126,836.767 968.806,835.945 964.066,835.797L964.066,828.915C970.302,828.67 978.215,829.52 982.915,830.134L982.915,813.921C970.807,812.507 958.827,811.273 947.124,810.197L947.124,865.477C960.146,866.735 972.074,868.099 982.915,869.5L982.915,854.859C978.072,854.078 969.881,852.883 964.066,852.701L964.066,845.819C969.118,845.62 975.27,846.141 979.923,846.672ZM917.541,849.619C913.201,848.89 903.512,847.373 896.899,847.166L896.899,840.284C902.962,840.046 910.61,840.843 915.35,841.451L915.35,833.26C910.465,832.479 902.556,831.343 896.899,831.166L896.899,824.284C904.02,824.004 913.328,825.153 917.541,825.746L917.541,807.749C904.348,806.775 891.724,805.994 879.923,805.37L879.923,860.703C893.186,861.333 905.721,862.1 917.541,862.969L917.541,849.619ZM828.734,859.085L851.873,804.094C846.066,803.873 840.597,803.692 835.507,803.544L821.854,830.554L810.296,802.993C799.349,802.84 793.144,802.877 793.144,802.877L816.518,858.927C820.646,858.966 824.721,859.019 828.734,859.085Z" style="fill:white;"/>
        <path d="M697.107,861.526L697.107,839.317L714.407,860.347C718.633,860.109 723.202,859.887 728.086,859.694L728.086,805.582C728.086,805.582 722.847,805.329 712.814,805.436L712.814,831.866L688.742,805.881C686.126,806.015 682.434,806.528 679.581,806.704L679.581,863.247C679.581,863.247 685.826,862.437 697.107,861.526Z" style="fill:none;stroke:rgb(32,32,32);stroke-width:26.75px;"/>
        <path d="M697.107,861.526L697.107,839.317L714.407,860.347C718.633,860.109 723.202,859.887 728.086,859.694L728.086,805.582C728.086,805.582 722.847,805.329 712.814,805.436L712.814,831.866L688.742,805.881C686.126,806.015 682.434,806.528 679.581,806.704L679.581,863.247C679.581,863.247 685.826,862.437 697.107,861.526Z" style="fill:white;"/>
        <path d="M561.75,819.744L548.281,851.57L534.998,823.04C529.722,824.026 524.185,825.269 518.502,826.833C518.502,826.833 538.72,883.577 548.869,882.356C559.019,881.134 579.397,819.503 579.397,819.503C579.397,819.503 572.592,819.084 561.75,819.744Z" style="fill:none;stroke:rgb(32,32,32);stroke-width:26.75px;"/>
        <path d="M561.75,819.744L548.281,851.57L534.998,823.04C529.722,824.026 524.185,825.269 518.502,826.833C518.502,826.833 538.72,883.577 548.869,882.356C559.019,881.134 579.397,819.503 579.397,819.503C579.397,819.503 572.592,819.084 561.75,819.744Z" style="fill:white;"/>
        <path d="M614.577,868.651C602.991,870.25 595.499,871.791 595.499,871.791L624.109,809.336L654.214,865.246C648.227,865.414 642.371,865.76 636.821,866.208L634.206,860.946L617.19,862.816L614.577,868.651ZM623.548,838.694L619.995,846.547L627.287,845.799L623.548,838.694Z" style="fill:none;stroke:rgb(32,32,32);stroke-width:26.75px;"/>
        <path d="M614.577,868.651C602.991,870.25 595.499,871.791 595.499,871.791L624.109,809.336L654.214,865.246C648.227,865.414 642.371,865.76 636.821,866.208L634.206,860.946L617.19,862.816L614.577,868.651ZM623.548,838.694L619.995,846.547L627.287,845.799L623.548,838.694Z" style="fill:white;"/>
    </g>
    <defs>
        <radialGradient id="_Radial1" cx="0" cy="0" r="1" gradientUnits="userSpaceOnUse" gradientTransform="matrix(560.07,0,0,558.67,533.359,532.733)"><stop offset="0" style="stop-color:rgb(153,153,153);stop-opacity:1"/><stop offset="0.58" style="stop-color:rgb(84,84,84);stop-opacity:1"/><stop offset="1" style="stop-color:rgb(51,51,51);stop-opacity:1"/></radialGradient>
    </defs>
</svg>
