<?xml version="1.0" encoding="utf-8"?>
<!-- Generator: Adobe Illustrator 16.0.0, SVG Export Plug-In . SVG Version: 6.00 Build 0)  -->
<!DOCTYPE svg PUBLIC "-//W3C//DTD SVG 1.1//EN" "http://www.w3.org/Graphics/SVG/1.1/DTD/svg11.dtd">
<svg version="1.1"
	 id="svg3476" xmlns:inkscape="http://www.inkscape.org/namespaces/inkscape" xmlns:sodipodi="http://sodipodi.sourceforge.net/DTD/sodipodi-0.dtd" xmlns:svg="http://www.w3.org/2000/svg" xmlns:rdf="http://www.w3.org/1999/02/22-rdf-syntax-ns#" xmlns:cc="http://creativecommons.org/ns#" xmlns:dc="http://purl.org/dc/elements/1.1/" inkscape:version="0.91 r13725" sodipodi:docname="CSS3.svg"
	 xmlns="http://www.w3.org/2000/svg" xmlns:xlink="http://www.w3.org/1999/xlink" x="0px" y="0px" width="360px" height="360px"
	 viewBox="0 0 360 360" enable-background="new 0 0 360 360" xml:space="preserve">
<sodipodi:namedview  fit-margin-left="0" fit-margin-top="0" showgrid="false" inkscape:cy="256" inkscape:cx="181.367" inkscape:zoom="0.35" borderopacity="1.0" bordercolor="#666666" pagecolor="#ffffff" id="base" fit-margin-bottom="0" inkscape:pageopacity="0.0" inkscape:pageshadow="2" inkscape:document-units="px" inkscape:window-x="0" inkscape:current-layer="layer1" inkscape:window-y="27" inkscape:window-maximized="1" inkscape:window-width="1366" inkscape:window-height="704" fit-margin-right="0">
	</sodipodi:namedview>
<rect fill="none" width="360" height="360"/>
<g>
	<path d="M239.706,128.409l-0.072-0.694l-1.125,0.096l0.072,0.693L239.706,128.409z M247.268,146.595l0.023,0.383l0.79-0.071
		c-0.024-0.239,0.071-0.622,0.239-1.101l-0.072-0.694C247.913,145.136,247.578,145.638,247.268,146.595L247.268,146.595z
		 M217.763,169.495c-0.048-0.646-2.059-3.159-6.03-7.585c-0.071-0.813,1.292-2.034,4.092-3.637l7.992-6.963
		c1.795-2.273,2.848-5.958,3.159-11.079l-0.097-1.173c-0.311-3.541-2.871-6.389-7.729-8.566c-2.871-1.938-8.04-3.016-15.506-3.207
		c-6.174,0.526-14.238,2.727-24.168,6.628c-2.728,1.962-5.838,3.925-9.332,5.886l0.047,0.599c0.216-0.024,0.55-0.144,0.933-0.407
		c0.407-0.048,0.646,0.144,0.67,0.526l0.598-0.311l0.287-0.024l0.024,0.264c0.024,0.311-2.13,2.01-6.485,5.049l0.335,0.622
		l-0.288,0.024l-0.718-0.264c0.024,0.215-0.287,0.359-0.885,0.407l0.024,0.263l0.694,0.861c-0.215,0.024-0.55-0.072-1.005-0.239
		c-1.005,0.096-1.986,0.622-2.967,1.627l0.407-1.771c1.459-6.293,2.464-11.869,2.99-16.703l-0.071-0.312
		c-1.005-0.646-1.986-1.555-2.896-2.704c0.024-0.742,0.024-1.172,0-1.269l-0.072-0.263l-0.287,0.072
		c-3.159,4.738-9.237,12.826-18.258,24.264c-6.868,8.136-10.409,12.659-10.625,13.568c-2.8,2.895-4.14,4.643-3.996,5.24
		c-0.742,0.479-1.053,0.957-0.934,1.483c-0.215,0.048-0.359-0.023-0.407-0.239c-1.196,1.938-2.967,3.183-5.336,3.733l-2.489,0.575
		c-0.335,0.072-0.502,0.311-0.479,0.718l0.071,0.311l0.934-0.216l0.072,0.264l-2.106,0.813l-3.733,0.861l-1.962,0.12
		c-0.288,0.287,1.555-0.023,0.838,0.144l-2.441,0.575c-1.484,0.335-2.297,0.215-2.441-0.383l-0.287,0.071
		c0.048,0.263,0.071,0.455,0.024,0.622l-0.144-0.598l-1.962,0.454c-0.144-0.909-2.8-4.211-7.944-9.906
		c-0.096-1.102,1.723-2.705,5.432-4.786l10.48-9.213c2.345-3.015,3.733-7.849,4.188-14.5l-0.144-1.556
		c-0.407-4.69-3.805-8.471-10.194-11.39c-3.781-2.56-10.577-3.924-20.388-4.14c-8.136,0.694-18.761,3.589-31.826,8.639
		c-3.589,2.607-7.681,5.192-12.275,7.752l0.071,0.814c0.312-0.024,0.718-0.191,1.22-0.479c0.526-0.048,0.814,0.191,0.862,0.67
		l0.813-0.455l0.407-0.024l0.024,0.383c0.024,0.383-2.824,2.608-8.59,6.676l0.455,0.718l-0.407,0.024l-0.886-0.311
		c0.024,0.239-0.383,0.407-1.22,0.478l0.048,0.431l0.957,1.053c-0.311,0.024-0.741-0.072-1.292-0.263
		c-1.866,0.168-3.685,1.507-5.479,4.044l0.454,0.718c1.556-1.436,2.465-2.153,2.729-2.178l0.095,1.173
		c-0.263,0.024-0.67,0.191-1.22,0.479l0.98,1.484c1.853-2.003,3.952-3.764,6.246-5.241c1.125,0.288,1.723,0.646,1.747,1.029
		l0.861-0.071c6.173-4.571,12.276-7.873,18.33-9.907l0.071,0.813c-1.125,1.675-1.89,2.537-2.297,2.584
		c0.048,0.575,0.239,1.077,0.598,1.508c0.096,1.029-2.656,7.968-8.231,20.794c-12.658,29.815-23.283,51.878-31.921,66.141
		c0.023,0.286,0.191,0.669,0.502,1.148c2.129-0.503,3.47-1.029,4.043-1.532l0.455-0.047l0.072,0.813l0.79-0.072l0.814-0.454
		c0.024,0.239,0.287,0.358,0.837,0.311l0.072,0.813c0.071,0.79-0.383,1.986-1.34,3.638c-0.861,0.98-1.794,3.039-2.775,6.174
		l0.023,0.383l0.79-0.072c3.446-3.853,6.054-7.634,7.849-11.318c10.05-2.943,17.708-5.839,23.02-8.687
		c5.336-0.455,9.404-1.866,12.18-4.188l-0.048-0.431l-2.01,0.599l-0.455,0.048l-0.048-0.431c3.925-0.599,6.629-1.46,8.136-2.656
		c7.634-5.887,13.4-10.051,17.301-12.516c8.016-5.886,13.232-11.63,15.601-17.204c0.448-0.098,0.895-0.202,1.34-0.312
		c1.125-0.048,1.747-0.071,1.915-0.12c-0.048-0.215,0.048-0.334,0.263-0.383c1.794-0.19,0.933,0.12,2.082-0.144l3.015-0.693
		c-0.191,0.048-0.263,0.144-0.215,0.335l0.455-0.287c-0.096,0-0.167-0.023-0.239-0.048l0.502-0.119l-0.239,0.144
		c0.335,0.047,0.694,0.023,1.101-0.072l0.215,0.885l-13.711,21.8l-3.039,3.805l-1.483,4.978l0.287-0.072l1.483-0.622l-0.479,1.938
		l0.144,0.574l0.406,0.502c-0.191,0.049-0.262,0.168-0.215,0.383l0.072,0.312l0.622-0.144c0.91-0.79,1.292-1.507,1.149-2.153
		c0.98,0.167,1.627,0.239,1.962,0.144l0.071,0.311c-0.598,0.144-0.909,0.622-0.958,1.437l0.072,0.311l0.335-0.071
		c4.978-5.433,17.181-24.025,26.968-36.636c-0.311-1.364,4.786-3.255,15.314-5.695l0.335-0.072c0.383,1.651-0.431,5.647-2.44,11.989
		c-1.292,3.828-1.915,5.935-1.819,6.27c-1.675,5.097-2.465,7.849-2.369,8.279l-3.733,12.228c-2.417,6.27-4.259,12.851-5.551,19.79
		c0.215-0.049,0.55-0.024,1.029,0.096l0.526-0.455c0.048,0.216,0.192,0.287,0.407,0.239l-0.215-0.886l1.627-0.048
		c0.479-0.119,0.885-0.718,1.221-1.818c-0.072-1.651,0.263-2.536,1.005-2.728c1.005-3.925,1.627-5.887,1.843-5.959
		c0.933-3.9,1.627-6.126,2.082-6.676c1.412-5.073,2.44-7.682,3.111-7.85l0.144,0.623l-1.029,2.656
		c-1.795,7.968-3.614,14.262-5.456,18.88l0.526,2.297l0.335-0.071c4.45-9.572,10.863-28.523,19.214-56.856
		c0.24-2.489,1.436-4.427,3.566-5.791l-0.479-0.502l-0.071-0.264c0.958-0.215,1.627-0.598,2.01-1.125
		c-0.047-0.215-0.885-0.526-2.512-0.957l4.164-17.851c0.909-0.814,1.436-1.244,1.603-1.244l0.072,0.909
		c-0.216,0.023-0.551,0.143-0.934,0.406l0.79,1.125c1.435-1.556,2.991-2.896,4.689-4.021c0.861,0.239,1.292,0.526,1.34,0.814
		l0.622-0.048c4.738-3.47,9.38-5.958,13.95-7.466l0.049,0.598c-0.838,1.268-1.412,1.914-1.724,1.938
		c0.048,0.431,0.168,0.814,0.383,1.149c0.072,0.79-1.986,6.054-6.197,15.817c-9.62,22.613-17.684,39.34-24.24,50.203
		c0.024,0.216,0.167,0.503,0.431,0.886c1.603-0.383,2.632-0.79,3.039-1.173l0.287-0.023l0.048,0.599l0.669-0.049l0.599-0.311
		c0.023,0.167,0.239,0.239,0.646,0.216l0.047,0.646c0.048,0.574-0.287,1.483-1.029,2.728c-0.693,0.742-1.412,2.298-2.177,4.666
		l0.024,0.312l0.622-0.048c2.608-2.919,4.594-5.791,5.958-8.614c7.633-2.249,13.448-4.427,17.468-6.581
		c4.091-0.358,7.178-1.411,9.285-3.183l-0.024-0.311l-1.556,0.454l-0.334,0.024l-0.024-0.312c2.967-0.43,5.049-1.101,6.174-1.985
		c5.791-4.451,10.17-7.634,13.137-9.5C213.982,182.153,218.289,175.693,217.763,169.495L217.763,169.495z M216.184,169.902
		l0.215,2.417c-0.287,0.599-0.598,0.91-0.885,0.934l-0.359-4.116C215.824,169.375,216.159,169.615,216.184,169.902L216.184,169.902z
		 M34.992,150.424l-0.407,0.023l-0.072-0.742l1.651-0.144l0.024,0.383C35.926,149.969,35.519,150.113,34.992,150.424L34.992,150.424
		z M26.928,231.089c-0.958-0.431-1.819-0.599-2.561-0.526l-0.096-1.173c-0.047-0.454,0.216-0.766,0.79-0.886
		c0.526-0.047,0.838,0.336,0.885,1.102c1.388-1.699,2.154-2.561,2.298-2.585l0.885,0.359
		C28.843,229.772,28.101,230.993,26.928,231.089z M113.097,140.948c-0.407,0.048-1.221-1.22-2.394-3.733l-0.071-0.742
		c0.766-0.072,1.555,1.172,2.393,3.733L113.097,140.948z M111.948,132.022l-0.334,0.79l-11.702-4.881
		C107.712,128.194,111.733,129.558,111.948,132.022z M62.535,174.449l-1.651,0.144l-0.072-0.742l1.651-0.143L62.535,174.449z
		 M61.194,148.964l0.407-0.024l0.095,1.173c-0.383,0.024-0.885,0.598-1.507,1.699l-0.072-0.813
		C60.86,150.113,61.243,149.442,61.194,148.964L61.194,148.964z M57.725,157.147l0.144,1.556l-0.407,0.024l-0.144-1.556
		L57.725,157.147z M55.906,160.067l0.79-0.072c-0.072,1.292-0.43,1.986-1.077,2.034l-0.407,0.024
		C55.715,161.192,55.954,160.521,55.906,160.067z M54.542,164.135l0.454-0.048l0.024,0.383l-0.741,1.245l-0.79,0.072l-0.024-0.383
		C54.255,165.332,54.614,164.925,54.542,164.135L54.542,164.135z M53.202,167.796l-0.239,1.962l-0.407,0.024l-0.167-1.938
		L53.202,167.796z M39.778,205.963c-0.527,2.681-1.101,4.044-1.699,4.092l-0.024-0.383
		C37.911,208.356,38.486,207.112,39.778,205.963L39.778,205.963z M37.313,211.299l0.024,0.383c0.047,0.527-0.192,0.838-0.718,0.861
		l-0.023-0.383C36.548,211.706,36.787,211.419,37.313,211.299z M36.596,222.379l1.244-0.12l0.047,0.431
		c-0.311,0.023-0.717,0.191-1.22,0.479l-0.79,0.072C35.83,222.834,36.093,222.522,36.596,222.379L36.596,222.379L36.596,222.379z
		 M72.01,211.443c-6.987,3.445-11.103,5.79-12.323,7.011c-7.562,2.632-11.318,4.259-11.247,4.905
		c-6.724,2.656-11.15,4.619-13.28,5.839c-0.502,0.048-1.221-0.144-2.177-0.574c-0.12-1.364,0.502-2.465,1.818-3.35
		c1.173-0.097,2.297,0.071,3.375,0.525c1.245-0.646,3.422-1.363,6.509-2.129l-0.072-0.814l-2.488,0.216
		c0.311-0.431,2.703-1.555,7.202-3.374l1.245-0.119l0.024,0.383c-2.13,0.191-3.303,0.813-3.566,1.938
		c0.048,0.502,0.335,0.718,0.862,0.67c1.603-1.006,2.393-1.604,2.369-1.771c3.04-0.574,11.438-4.977,25.197-13.185l0.072,0.742
		C75.552,208.715,74.38,209.72,72.01,211.443L72.01,211.443z M50.905,218.382c2.011-0.167,3.733-0.98,5.169-2.393
		c0.574-0.048,0.885,0.167,0.909,0.67c-0.981,0.096-2.872,0.909-5.623,2.489l-0.407,0.023L50.905,218.382L50.905,218.382z
		 M84.956,192.228l-10.553,8.352c-7.849,5.146-12.061,7.729-12.658,7.777c-12.491,6.867-20.268,10.433-23.283,10.696l-0.455,0.047
		c0.383-1.411,5.934-12.777,16.703-34.17c4.738-0.407,12.204-2.608,22.374-6.628l2.488-0.216c5.145-0.455,8.998,0.55,11.535,2.944
		l0.143,1.555C89.335,188.088,87.229,191.295,84.956,192.228L84.956,192.228z M64.33,180.622l1.699-0.144l0.023,0.383l-1.698,0.144
		L64.33,180.622z M88.187,176.578l1.245-0.12c1.148,0.55,1.747,1.029,1.794,1.46l0.023,0.383
		C90.149,178.397,89.12,177.823,88.187,176.578z M91.561,157.363c-1.101,1.315-4.116,3.565-9.045,6.724
		c-1.627,0.144-7.681,2.489-18.162,7.083c-0.524-0.239-1.102-0.338-1.675-0.287l-0.072-0.742c-0.12-1.507,0.55-3.397,2.034-5.695
		c0.814-4.308,1.699-6.772,2.681-7.37l8.734-19.646c-0.096-1.221,1.771-2.154,5.599-2.8l1.244-0.12l0.096,1.125
		c3.756-0.575,6.102-0.909,7.011-0.981c6.939-0.598,10.553,0.814,10.84,4.188l0.79-0.072l-0.167-1.986l0.861-0.072
		c2.034,1.125,3.135,2.489,3.278,4.092c0.096,1.101-0.502,2.465-1.771,4.093c-0.526,0.047-0.837-0.335-0.885-1.101l-0.861,0.072
		l-0.191,2.393c-3.518,5.265-6.079,7.969-7.658,8.112C92.805,156.358,91.919,157.339,91.561,157.363z M96.92,171.123
		c-0.717-0.479-1.292-0.694-1.723-0.67l-0.096-1.173l0.79-0.071l1.747,1.029C97.71,170.787,97.471,171.075,96.92,171.123
		L96.92,171.123z M102.472,177.703c0.766,0.311,1.221,0.646,1.316,0.958l-0.383,0.095l0.024,0.024c-0.072,0-0.168,0.024-0.24,0.048
		l-0.574,0.455L102.472,177.703z M102.999,181.005l-0.071-0.311l1.005-0.24l0.071,0.311L102.999,181.005z M105.416,183.709
		c1.029-0.167,1.531-0.239,3.445-0.67l0.072,0.312l-3.637,0.837C105.344,184.02,105.391,183.853,105.416,183.709z M108.957,185.217
		c-1.531,0.144-1.196-0.048-3.637,0.502l-0.072-0.311l3.04-0.981l1.46-0.335l0.143,0.574
		C109.244,184.81,109.723,184.81,108.957,185.217z M112.188,184.451c-0.359,0.096-0.646-0.072-0.813-0.479l0.933-0.216
		c0.406-0.096,0.67,0.072,0.766,0.479L112.188,184.451L112.188,184.451z M120.945,175.022l-0.072-0.311l1.507-0.359l0.144,0.574
		L120.945,175.022z M130.302,232.404c0.096-0.431,0.12-0.741,0.072-0.957l0.335-0.071c0.406-0.096,0.646,0.048,0.742,0.431
		l0.071,0.311L130.302,232.404L130.302,232.404z M136.858,177.487l-0.67-0.12c-1.077,0.431-1.986,0.742-2.728,0.91l-0.622,0.144
		c-0.359,0.096-0.646-0.048-0.79-0.431l4.379-1.005l1.436-0.67l0.479,0.55C137.647,177.009,137.145,177.224,136.858,177.487
		L136.858,177.487z M140.232,176.41l-0.071-0.311c0.215-0.048,0.502-0.215,0.814-0.526l3.11-0.718l0.072,0.311
		C142.506,175.573,141.189,175.98,140.232,176.41L140.232,176.41z M140.711,170.117c-0.216,0.048-0.502,0.24-0.862,0.526
		c-0.047-0.215-0.479-0.215-1.292-0.023c-0.143-0.599,2.154-1.436,6.916-2.537l0.669-0.144l0.144,0.575
		C142.936,169.495,141.07,170.045,140.711,170.117L140.711,170.117z M149.086,161.072c-0.335,3.805-1.675,5.958-4.044,6.508
		l-0.071-0.311l-2.106,0.813l-0.934,0.216c-0.479,0.12-0.909,0.096-1.292-0.024l-0.191-0.838c-0.072-0.311,2.967-4.522,9.141-12.611
		l0.718,0.121C150.57,156.047,150.163,158.081,149.086,161.072L149.086,161.072z M163.898,148.39l-0.287,0.024l-0.048-0.598
		l1.244-0.12l0.024,0.311C164.616,148.055,164.305,148.174,163.898,148.39L163.898,148.39z M157.796,209.672
		c-0.718-0.335-1.364-0.479-1.914-0.431l-0.072-0.909c-0.024-0.311,0.167-0.526,0.575-0.646c0.407-0.047,0.646,0.239,0.693,0.862
		c1.029-1.316,1.604-1.986,1.723-1.986l0.646,0.263C159.208,208.644,158.658,209.601,157.796,209.672L157.796,209.672z
		 M223.219,141.235c-0.312,0.024-0.909-0.934-1.843-2.872l-0.048-0.598c0.599-0.048,1.221,0.885,1.842,2.799L223.219,141.235z
		 M222.357,134.391l-0.287,0.622l-8.854-3.709C219.127,131.496,222.189,132.525,222.357,134.391z M184.813,166.624l-1.245,0.12
		l-0.047-0.599l1.244-0.096L184.813,166.624L184.813,166.624z M183.783,147.265l0.335-0.024l0.071,0.91
		c-0.311,0.024-0.693,0.455-1.148,1.292l-0.047-0.598C183.544,148.15,183.807,147.624,183.783,147.265L183.783,147.265z
		 M181.175,153.487l0.096,1.172l-0.335,0.024l-0.096-1.173L181.175,153.487z M179.763,155.712l0.622-0.048
		c-0.071,1.005-0.334,1.532-0.79,1.58l-0.335,0.023C179.62,156.598,179.787,156.071,179.763,155.712L179.763,155.712z
		 M178.758,158.775l0.287-0.024l0.023,0.311l-0.55,0.957l-0.623,0.048l-0.023-0.312
		C178.519,159.708,178.806,159.373,178.758,158.775L178.758,158.775z M177.753,161.551l-0.216,1.531l-0.287,0.024l-0.12-1.507
		L177.753,161.551L177.753,161.551z M167.536,190.576c-0.407,2.011-0.837,3.04-1.292,3.087l-0.024-0.263
		C166.147,192.396,166.578,191.438,167.536,190.576z M165.645,194.621l0.023,0.263c0.048,0.431-0.143,0.671-0.574,0.693
		l-0.024-0.311C165.046,194.955,165.238,194.74,165.645,194.621z M165.119,203.044l0.957-0.072l0.024,0.312
		c-0.215,0.023-0.551,0.144-0.934,0.359l-0.622,0.047C164.52,203.354,164.712,203.14,165.119,203.044L165.119,203.044z
		 M191.991,194.74c-5.265,2.608-8.399,4.379-9.38,5.289c-5.744,2.01-8.591,3.254-8.543,3.757c-5.097,2.033-8.447,3.493-10.026,4.426
		c-0.383,0.024-0.933-0.119-1.651-0.454c-0.096-1.028,0.383-1.866,1.388-2.488c0.91-0.072,1.771,0.048,2.561,0.383
		c0.958-0.479,2.608-1.005,4.954-1.604l-0.048-0.599l-1.962,0.144c0.24-0.334,2.082-1.196,5.504-2.584l0.957-0.071l0.024,0.263
		c-1.627,0.144-2.536,0.622-2.728,1.483c0.024,0.383,0.263,0.575,0.67,0.526c1.197-0.789,1.771-1.244,1.771-1.388
		c2.297-0.406,8.663-3.757,19.12-10.026l0.048,0.599C194.671,192.658,193.786,193.424,191.991,194.74L191.991,194.74z
		 M175.959,200.005c1.555-0.144,2.871-0.742,3.972-1.795c0.406-0.048,0.646,0.144,0.669,0.526c-0.718,0.072-2.129,0.671-4.26,1.819
		l-0.334,0.023L175.959,200.005L175.959,200.005z M201.85,180.12l-7.969,6.413c-5.958,3.899-9.188,5.862-9.691,5.91
		c-9.476,5.216-15.362,7.92-17.683,8.112l-0.334,0.023c0.287-1.077,4.522-9.715,12.706-25.939c3.565-0.311,9.213-2.01,16.966-5.072
		l1.938-0.168c3.899-0.335,6.819,0.431,8.733,2.273l0.096,1.173C205.151,176.961,203.573,179.377,201.85,180.12L201.85,180.12z
		 M186.2,171.313l1.244-0.119l0.024,0.311l-1.244,0.12L186.2,171.313z M204.314,168.227l0.957-0.072
		c0.886,0.43,1.34,0.814,1.364,1.125l0.024,0.263C205.822,169.615,205.032,169.184,204.314,168.227z M206.827,153.654
		c-0.838,1.005-3.11,2.728-6.819,5.121c-1.245,0.119-5.839,1.89-13.783,5.335c-0.383-0.144-0.814-0.191-1.27-0.167l-0.047-0.599
		c-0.096-1.148,0.406-2.584,1.507-4.331c0.622-3.302,1.316-5.145,2.034-5.576l6.676-14.932c-0.071-0.885,1.341-1.603,4.213-2.153
		l0.956-0.072l0.072,0.91c2.824-0.455,4.595-0.718,5.312-0.79c5.265-0.455,8.017,0.598,8.232,3.183l0.622-0.048l-0.12-1.436
		l0.623-0.048c1.531,0.837,2.345,1.843,2.44,3.039c0.071,0.862-0.359,1.914-1.269,3.135c-0.406,0.047-0.646-0.239-0.693-0.861
		l-0.622,0.047l-0.192,1.795c-2.655,4.044-4.594,6.126-5.814,6.222C207.809,152.889,207.138,153.63,206.827,153.654L206.827,153.654
		z M209.627,163.608l-0.072-0.909l0.622-0.047l1.341,0.813c0.023,0.383-0.168,0.599-0.575,0.646
		C210.368,163.752,209.938,163.584,209.627,163.608L209.627,163.608z M98.237,221.732l-0.622,0.144l-0.526,0.454
		c0.095,0.383,0.334,0.526,0.742,0.432c0.407-0.096,0.574-0.335,0.479-0.718L98.237,221.732z M95.868,217.019l0.071,0.311
		c0.407-0.096,0.574-0.335,0.479-0.718l-0.071-0.311C95.964,216.396,95.796,216.636,95.868,217.019L95.868,217.019z
		 M112.713,176.937l0.718-0.167l-0.144-0.622l-0.717,0.167L112.713,176.937L112.713,176.937z M329.847,195.171
		c-7.274,1.627-8.185,1.34-9.716,1.46l0.049,0.599l0.67-0.048l0.358-0.024l-0.096-0.071l0.789-0.312
		c7.203-0.79,8.041-0.503,7.969-1.316L329.847,195.171z M290.675,200.363l0.048,0.599h0.096l-0.048-0.599H290.675L290.675,200.363z
		 M286.176,184.595l-0.646-0.216c-0.526,1.412-0.789,2.249-0.766,2.488l0.024,0.264C285.29,187.106,285.745,186.245,286.176,184.595
		z M331.33,195.052l0.048,0.598l1.053,0.191l-0.048-0.598L331.33,195.052L331.33,195.052z M281.82,201.105l-1.627-0.191
		l-0.287,0.622l0.024,0.312l9.69-0.813l-0.047-0.599L281.82,201.105L281.82,201.105z M277.418,179.881l-0.023-0.312l-0.336,0.024
		l-0.598,0.383l0.335,0.574C277.251,180.503,277.466,180.287,277.418,179.881L277.418,179.881z M335.924,190.648l0.455-0.048
		c0.264-0.024,0.383-0.239,0.359-0.622l-0.264-0.574c-1.65,0.144-2.416,0.216-3.757,0.957l-0.024-0.311l-1.985,0.191
		c-0.048-0.599-0.215-0.91-0.479-0.886l-1.028,0.096c-1.197,0.096-1.771,0.048-2.37,0.502c-0.023-0.215-0.095-0.311-0.215-0.311
		l-1.148,0.096l-0.67,0.383c-0.024-0.215-0.096-0.312-0.216-0.312l-0.406,0.359l-0.024-0.311l-1.604-0.12l-0.383,0.024l0.048,0.598
		l0.814,0.215l0.766-0.047c0.263,0.167,0.55,0.215,0.885,0.19l0.67-0.334l0.023,0.263c-3.756,0.934-3.732,0.766-6.317,1.197
		c-0.286-0.192-0.502-0.288-0.646-0.264l-0.048,0.048c-0.287-0.024-0.455-0.216-0.479-0.527l1.34-0.167
		c0.096,0,0.168,0.096,0.909,0.239c1.077-0.526,1.125-0.742,1.699-0.789l-0.048-0.599c-3.685,0.718-2.201,0.239-6.819,0.646
		l-0.216,0.024l-0.048-0.598c5.935-0.718,3.948-0.312,5.982-0.886c0.024,0.215,0.096,0.311,0.215,0.311
		c0.219-0.223,0.505-0.366,0.814-0.406l0.406-0.024c2.082-0.167,2.776,0.239,6.892-0.909l0.024,0.264l0.67-0.336l0.622-0.047
		c-0.048-0.599,0.861-0.694,1.173-0.719l-0.049-0.646c-7.227,1.46-9.116,1.053-11.126,1.627l-0.024-0.263
		c-1.891,0.335-1.962,0.191-2.44,0.215c-0.144,0.024-0.359,0.144-0.599,0.383c-0.023-0.215-0.096-0.312-0.239-0.312
		c-0.071,0-0.096,0.024-0.12,0.024l-6.125,1.005c-0.024-0.167-0.096-0.263-0.239-0.239c-3.183,0.67-2.321,0.79-6.581,1.173
		c-0.191,0.023-0.454,0.119-0.79,0.335c-0.023-0.167-0.119-0.263-0.334-0.239l-2.608,0.216l-1.747,0.43
		c-0.024-0.167-0.119-0.263-0.335-0.239c-0.981,0.264-1.843,0.432-2.537,0.479h-0.048c-0.43,0.047,0.216-0.12-0.119-0.264
		l-0.526,0.311c-0.766,0.072-0.359-0.047-2.991-0.023c-4.618,0.574-4.115,0.646-4.618,0.67l-1.723-0.119
		c0.023,0.167-0.072,0.287-0.264,0.287c-1.962-0.264-2.967-0.575-2.991-0.934c0.263-1.866,0.718-2.823,1.364-2.872l0.335-0.023
		l-0.287,0.622l0.335-0.023c0.622-0.335,0.909-0.646,0.886-0.934l-0.049-0.646l-0.622,0.049l-0.048-0.599
		c-0.047-0.455,0.024-0.861,0.192-1.196l1.411-2.273l0.048,0.599l0.67-0.049l-0.048-0.598l-0.383-0.551
		c0.503-0.43,0.886-0.67,1.196-0.693l-0.023-0.312l-0.909,0.072l-0.072-0.909c1.818-3.781,2.68-5.983,2.633-6.604l0.646,0.263
		c0.407-0.024,0.599-0.263,0.574-0.694l-0.622,0.048l-0.024-0.263c-0.043-0.437,0.04-0.877,0.239-1.268
		c0.981-1.029,1.437-2.058,1.341-3.135c0.191-0.024,0.287,0.072,0.312,0.287c0.837-0.479,1.483-1.747,1.962-3.853
		c1.483-2.68,3.589-8.04,6.341-16.056c5.265-14.167,5.05-15.674,5.791-19.024l-0.622,0.047c0.048,0.431-0.048,0.838-0.239,1.221
		c-0.431-0.167-0.766-0.263-1.005-0.239l-0.024-0.264c-0.096-1.221,0.407-2.68,1.556-4.403l0.287-0.024l0.526,2.058l0.622-0.047
		c-0.023-0.144,0.144-0.958,0.479-2.465c-0.023-0.312-0.263-0.502-0.742-0.526l-0.598,0.383c-0.048-0.431-0.024-1.556,0.048-3.35
		l-0.312,0.024c-0.526-0.526-0.789-0.958-0.813-1.316l-3.422,0.335c-0.023-0.239-0.144-0.598-0.383-1.052
		c-0.023-0.312,0.742-0.623,2.321-0.934l0.694,0.263l0.646-0.383c0.023,0.215,0.143,0.311,0.382,0.288l0.646-0.383
		c0.023,0.215,0.144,0.311,0.383,0.287l0.311-0.023l-0.048-0.694c-0.479,0.048-1.746,0.048-3.756-0.024l-0.646,0.431l-0.024-0.383
		c-16.056,1.316-25.173,2.058-27.351,2.273c-0.287,0.024-1.411,0-3.398-0.048c0.024,0.263-0.215,0.407-0.693,0.455l-0.694-0.312
		l-2.345,0.599c-0.551,0.047-1.483,0.023-2.775-0.12c-0.359,0.287-0.79,0.455-1.316,0.502c-0.287,0.023,3.422-0.191,6.867-0.431
		c-0.358,0.287-0.909,0.454-1.675,0.526c-0.526,0.048-0.981-0.024-1.364-0.239c-0.526,0.239-2.225,0.622-5.072,1.196l-0.694-0.263
		l-11.199,1.722c-0.431-0.215-0.933-0.287-1.507-0.239c-0.599,0.048-1.604,0.264-2.991,0.646l-5.408,2.249l0.407,0.67
		c0.263-0.024,0.646-0.167,1.101-0.43l1.914,0.167l-0.239,1.794c-1.771,0.79-2.8,1.962-3.087,3.447
		c-2.656,1.172-3.973,2.01-3.973,2.512l0.024,0.311l0.407-0.024l0.717-0.383l0.838,1.005l0.12,1.388
		c0.047,0.431-4.428,9.835-13.377,28.213c-7.753,17.708-11.82,27.399-12.203,29.145c-2.656,0.742-4.188,1.819-4.643,3.255
		c0.048,0.454,0.837,0.766,2.369,0.885l0.071,0.694l-0.693,1.148l0.119,1.389c0.072,0.717,2.011,1.268,5.814,1.65
		c-0.023-0.239,0.097-0.383,0.359-0.407c0.072,0.861-0.167,2.537-0.718,5.025l0.407-0.023c1.578-2.154,2.321-3.638,2.249-4.451
		l0.335-0.023c0.383-0.024,0.79,0.406,1.269,1.339c-0.479,0.192-2.153,3.997-5.025,11.439l0.407,0.669l0.406-0.023
		c3.518-8.901,5.719-13.831,6.628-14.765c4.619-0.406,12.611-1.22,23.954-2.44l0.717-0.431c0.024,0.239,0.168,0.359,0.432,0.335
		l0.741-0.071l0.719-0.432c0.023,0.239,0.167,0.359,0.43,0.335l8.591-0.741c2.273-0.191,3.35-0.886,3.254-2.059
		c-0.023-0.311,1.316-0.67,4.021-1.053c0.264-0.023,0.646,0.048,1.173,0.216c-0.024-0.216,1.34-0.431,4.067-0.67
		c0.072-1.436,0.526-2.201,1.341-2.273l-0.072-0.694c-0.766,0.072-1.627,0.264-2.632,0.599c-1.795-0.096-2.943-0.239-3.422-0.407
		c-0.479,0.264-0.838,0.407-1.101,0.431l-5.983,0.192l-0.717,0.383c-0.024-0.216-0.168-0.312-0.432-0.287l-0.334,0.023l-0.767,0.383
		c-0.023-0.216-0.646-0.383-1.891-0.55l-0.765,0.454l-1.484,0.119l-0.023-0.383c7.705-0.837,11.51-1.89,11.414-3.134
		c0.503-0.049,0.766,0.19,0.813,0.694l2.25-0.575l-0.072-0.694l-18.449,0.503c0.023,0.239-0.097,0.383-0.359,0.407l-2.249-0.191
		c-0.575,0.047-1.053,0.215-1.436,0.502l-0.838-0.311c-2.321,0.191-4.044,0.479-5.192,0.837c-1.58-0.119-3.326-0.096-5.265,0.072
		l-4.14,0.358l-1.914-0.215c-0.096-1.221,2.272-7.227,7.154-17.995c1.412-3.638,2.704-5.911,3.948-6.772
		c0.264-0.024,0.646,0.071,1.173,0.287l2.943-1.005l1.508,0.239c2.536-0.215,5.479-0.933,8.854-2.178
		c0.838-0.071,1.46-0.023,1.914,0.168l2.25-0.526l6.7-0.574c2.847-0.239,5.934-0.862,9.283-1.891l-0.071-0.694
		c-1.244,0.12-1.89-0.095-1.938-0.599c-0.071-0.933-0.98-1.315-2.728-1.172l-0.071-0.694l1.843-0.526l4.833-0.407l-0.072-0.694
		c-0.191,0.023-1.172,0-2.99-0.072l-0.072-0.742l1.866-0.168c0.503-0.047,0.718-0.287,0.671-0.766
		c-2.514,0.072-3.781-0.047-3.806-0.383c-17.516,0.861-26.298,1.029-26.346,0.479c-0.264,0.024-0.622,0.191-1.101,0.479
		l-0.455-0.718c4.643-9.858,7.37-14.836,8.16-14.908c0.023,0.383-0.168,1.005-0.599,1.843l0.024,0.311l0.741-0.071
		c1.843-4.403,3.398-6.676,4.69-6.772c5.504-0.479-0.766-0.838,11.008-2.68c0.479,0.215,0.813,0.311,1.053,0.287
		c4.618-0.933,11.055-1.915,19.311-2.919l-0.048-0.694l-4.403,0.407l-0.047-0.694c0.526-0.048,0.956-0.216,1.315-0.502l0.023,0.383
		c0.24-0.024,0.575-0.191,1.006-0.479c0.766-0.071,1.34,0,1.746,0.216c1.532-0.407,2.776-0.646,3.686-0.742l2.752-0.263
		c0.67-0.43,0.98-0.813,0.957-1.172l-0.023-0.312c-0.694,0.072-1.484,0.024-2.417-0.144c-0.024-0.383,0.167-0.646,0.622-0.766
		l5.121-0.479l2.345-0.599c0.023,0.263,0.144,0.359,0.335,0.359c0.239-0.024,0.574-0.192,1.005-0.479
		c0.119,0.024,0.263,0.024,0.383,0.048c-0.311,0.646-0.67,1.58-1.029,2.8l-0.67,0.048c-0.047-0.455-0.167-0.861-0.383-1.22
		l-0.335,0.024c-6.222,17.324-8.997,25.389-14.74,38.693c-1.053,3.398-1.938,5.288-2.704,5.695c0.024,0.383,0.264,0.574,0.671,0.526
		c0.143,1.675-0.24,3.326-1.173,4.953c-2.656,7.658-4.427,11.845-5.337,12.611l0.599,3.613c0.023,0.383-0.167,0.598-0.574,0.646
		l-0.622,0.049c-0.097-1.006-0.455-1.484-1.102-1.412l-0.334,0.024c-0.814,1.268-1.437,2.727-1.843,4.426l0.622-0.048
		c0.838-0.55,1.221-1.196,1.148-1.938l1.245-0.119l0.717,0.263c-0.573,0.91-0.837,1.628-0.789,2.178l0.335,0.575l-0.813,1.914
		l0.023,0.312c0.718-0.072,1.508,0.167,2.346,0.669c0.574-0.047,1.196-0.311,1.89-0.766c0.718-0.071,3.397-0.096,8.017-0.096
		l2.32-0.79c2.825-0.023,3.279,0.049,5.72-0.167l1.005-0.096l0.526-0.359l0.024,0.312c2.561-0.216,2.728-0.048,4.737,0.191
		l0.024,0.312l-1.412,0.119l0.048,0.599c0.431-0.048,0.813-0.168,1.125-0.431c0.359-0.024,0.574,0.167,0.599,0.598
		c-0.574,0.049-1.221,0.191-1.938,0.432l-0.622-0.216c-0.981,0.263-0.766,0.335-1.437,0.383l-0.98-0.191
		c0.024,0.167-0.072,0.287-0.239,0.287c0.023,0.383,0.239,0.574,0.598,0.55l1.005-0.096l5.241-0.454l1.986-0.431
		c0.023,0.168,0.095,0.264,0.263,0.239l0.957-0.359l1.795-0.144c1.388-0.119,1.364-0.215,4.379-0.693
		c-0.023-0.191,0.048-0.264,0.191-0.287l0.024,0.263c4.905-0.837,5.216-0.886,6.006-1.148l0.071,0.144
		c1.221-0.287,0.526-0.215,0.862-0.454c0.023,0.215,0.096,0.311,0.215,0.311l0.861-0.071l-0.048-0.646l-1.747-0.024l-0.023-0.047
		c-0.071,0.023-0.12,0.023-0.191,0.047h-0.239v0.049c-1.173,0.239-1.196,0.071-1.962,0.144l-4.38,0.239l-0.023-0.312l2.44-0.335
		l0.886-0.072l0.503-0.358l0.023,0.312c3.446-0.288,4.666,0.573,20.603-2.824c0.861-0.072,0.79-0.79,1.341-2.273
		c-0.292,0.02-0.584-0.047-0.838-0.191c-1.315,0.503-2.01,0.264-4.546,0.67c-0.216,0.024-0.383-0.167-0.455-0.55l-0.024-0.264
		l2.44,0.071c0.455-0.047,1.341-0.119,2.657-0.861C336.116,190.553,335.637,190.673,335.924,190.648L335.924,190.648z
		 M218.098,192.539l-1.125,0.096c-0.048-0.455,0.551-2.178,1.795-5.121l0.742-0.071
		C219.533,188.136,219.079,189.835,218.098,192.539z M219.462,187.083l-0.024-0.311c-0.024-0.383,0.216-0.646,0.742-0.767
		l0.023,0.312C220.228,186.772,219.988,187.035,219.462,187.083z M234.417,198.641l0.024,0.312l-1.867,0.167l-0.023-0.311
		L234.417,198.641L234.417,198.641z M232.168,198.449c0.023,0.383-0.55,0.813-1.795,1.244l-2.297-0.167l-0.742,0.071l-0.071-0.693
		L232.168,198.449L232.168,198.449z M247.291,128.84l-1.125,0.096l-0.023-0.383c-0.023-0.383,0.191-0.646,0.67-0.766l0.406-0.024
		l0.766,0.311C248.009,128.529,247.794,128.792,247.291,128.84z M264.4,125.49l0.359-0.024l0.047,0.693l-1.028,0.096
		C263.755,125.873,263.945,125.609,264.4,125.49z M260.093,126.997l-1.699-0.191l-0.023-0.311c2.226-0.191,2.967-0.431,4.331-0.813
		c0.024,0.263,0.264,0.358,0.694,0.311l0.048,0.694l-0.67,0.072c-0.527,0.048-0.981-0.024-1.364-0.239
		C261.002,126.782,260.571,126.949,260.093,126.997L260.093,126.997z M262.223,133.195l-0.023-0.311l2.751-0.263l0.024,0.311
		L262.223,133.195z M265.166,130.802l-0.023-0.383l1.34-0.12l0.023,0.383L265.166,130.802z M265.478,126.112l-0.359,0.024
		l0.312-0.742l3.063-0.287l0.024,0.383C267.727,125.562,266.697,125.776,265.478,126.112z M267.032,132.716l-0.048-0.693l1.341-0.12
		c0.454-0.048,0.693,0.167,0.718,0.646L267.032,132.716L267.032,132.716z M275.145,121.661l-1.723,0.479l-0.312,0.023
		c-0.813,0.072-1.866,0.048-3.11-0.071C272.226,121.948,274.354,121.78,275.145,121.661L275.145,121.661z M273.302,129.318
		l0.024,0.311l-2.369,0.216l-0.023-0.311L273.302,129.318z M277.179,131.161c-0.024-0.287-0.479-0.479-1.412-0.574l-2.368,0.67
		l-1.819,0.071c-0.406-0.287-0.622-0.479-0.646-0.622l2.105,0.12l4.738-0.766l2.416,0.096l0.024,0.383
		C279.021,130.658,278.017,130.874,277.179,131.161z M301.563,124.867c0.287,0.024,0.479,0.024,0.55,0.024
		c0.838-0.813,1.771-1.459,2.848-1.914c-0.861,3.781-2.201,6.581-4.044,8.399l-1.34-0.814
		C300.701,127.715,301.371,125.825,301.563,124.867L301.563,124.867z M297.447,131.927l0.334-0.024
		c-0.455,0.861-0.861,1.315-1.196,1.339l-0.071-0.909C296.729,132.333,297.04,132.189,297.447,131.927z M294.79,138.268
		c0.646-2.584,1.269-4.043,1.843-4.427l0.024,0.311c-0.336,2.393-0.862,3.662-1.556,3.757l0.119,1.507
		c-0.574,0.814-0.838,1.436-0.813,1.915l-0.335,0.024l-0.191-2.082C294.264,139.225,294.575,138.89,294.79,138.268L294.79,138.268z
		 M293.762,141.713c0.023,0.359-0.216,1.197-0.694,2.489l-0.335,0.024l-0.071-0.909
		C293.115,142.264,293.498,141.737,293.762,141.713z M274.451,197.755l-0.024-0.263l0.622-0.048l0.071,0.909
		C274.786,198.378,274.547,198.187,274.451,197.755z M302.041,198.474c-0.024-0.216-0.119-0.312-0.335-0.287l-1.556,0.144
		l-0.023-0.312h0.144l3.685-0.311l0.024,0.311C302.902,198.066,302.256,198.234,302.041,198.474z M300.198,197.708
		c0.144,0.071,0.072,0.144,0,0.19C300.127,197.875,300.031,197.803,300.198,197.708z M300.39,193.4l-2.058,0.167l-0.024-0.311
		l1.866-0.167l1.628-0.407c0.024,0.191,0.12,0.263,0.335,0.239c1.938-0.335,1.747-0.431,2.68-0.503
		c0.312-0.023,0.503,0.168,0.526,0.551L300.39,193.4L300.39,193.4z M307.593,192.778c-1.148-0.12-1.221-0.216-2.034-0.144
		l-0.023-0.264l1.842-0.167l0.024,0.264C307.21,192.491,307.903,192.539,307.593,192.778L307.593,192.778z M307.736,192.443
		l-0.024-0.264l1.005-0.095l0.024,0.263L307.736,192.443z M309.961,192.252l-0.023-0.264c0.167-0.023,0.406-0.143,0.718-0.383
		c0.503-0.048,0.766,0.287,0.813,0.67L309.961,192.252L309.961,192.252z M312.809,191.893l-0.023-0.311l1.221-0.096l0.023,0.311
		L312.809,191.893z M314.508,191.749c-0.023-0.358,0.12-0.574,0.432-0.622l0.406,0.526c-0.023-0.167,0.048-0.263,0.191-0.287
		l0.312,0.574L314.508,191.749L314.508,191.749z M296.441,199.551l-0.048-0.599l-0.191,0.023l0.048,0.599L296.441,199.551z
		 M338.485,188.662c0.191-0.119,0.286-0.239-0.168-0.311c-0.216,0.239,0.239,0.311-0.239,0.335l0.023,0.215
		c0.049-0.048,0.168-0.119,0.264-0.191l-0.264,0.216v0.023l-0.502,0.646l1.005-0.358h0.12l-0.048-0.599L338.485,188.662z
		 M340.231,190.026l-0.191,0.024l0.048,0.598l1.412-0.119C341.476,190.146,340.542,190.026,340.231,190.026L340.231,190.026z
		 M338.055,188.974l0.023-0.024v-0.023C338.078,188.926,338.055,188.949,338.055,188.974L338.055,188.974z"/>
	<path fill="#F9DC3E" d="M246.19,144.681l0.023,0.383l0.79-0.072c-0.024-0.239,0.071-0.622,0.239-1.101l-0.071-0.693
		C246.836,143.221,246.502,143.724,246.19,144.681L246.19,144.681z M238.629,126.495l-0.071-0.694l-1.126,0.095l0.072,0.694
		L238.629,126.495z M216.686,167.581c-0.048-0.646-2.058-3.158-6.029-7.585c-0.072-0.813,1.292-2.034,4.092-3.637l7.992-6.963
		c1.795-2.274,2.847-5.958,3.158-11.079l-0.096-1.173c-0.312-3.542-2.871-6.389-7.729-8.566c-2.872-1.938-8.041-3.015-15.506-3.207
		c-6.174,0.526-14.238,2.728-24.169,6.629c-2.728,1.962-5.839,3.924-9.333,5.886l0.048,0.599c0.215-0.024,0.55-0.144,0.934-0.407
		c0.406-0.048,0.646,0.144,0.669,0.526l0.599-0.312l0.287-0.024l0.024,0.263c0.024,0.312-2.129,2.01-6.484,5.049l0.335,0.622
		l-0.287,0.024l-0.718-0.263c0.024,0.215-0.287,0.359-0.885,0.407l0.024,0.263l0.693,0.861c-0.215,0.024-0.55-0.071-1.005-0.239
		c-1.005,0.096-1.986,0.622-2.967,1.627l0.407-1.771c1.46-6.293,2.465-11.869,2.991-16.702l-0.072-0.312
		c-1.005-0.646-1.986-1.556-2.895-2.704c0.024-0.742,0.024-1.172,0-1.268l-0.072-0.263l-0.287,0.072
		c-3.159,4.738-9.237,12.826-18.258,24.264c-6.868,8.136-10.41,12.658-10.625,13.567c-2.799,2.896-4.14,4.643-3.996,5.241
		c-0.742,0.479-1.053,0.957-0.933,1.483c-0.216,0.048-0.36-0.024-0.407-0.239c-1.196,1.938-2.967,3.182-5.336,3.733l-2.489,0.574
		c-0.335,0.072-0.502,0.312-0.479,0.718l0.072,0.311l0.933-0.215l0.072,0.263l-2.106,0.814l-3.733,0.861l-1.962,0.12
		c-0.287,0.287,1.555-0.024,0.837,0.144l-2.441,0.575c-1.483,0.334-2.297,0.215-2.441-0.383l-0.287,0.072
		c0.048,0.263,0.072,0.455,0.024,0.622l-0.144-0.598l-1.962,0.455c-0.143-0.91-2.799-4.211-7.944-9.907
		c-0.095-1.101,1.723-2.704,5.432-4.785l10.48-9.213c2.345-3.015,3.733-7.849,4.188-14.501l-0.144-1.555
		c-0.407-4.69-3.804-8.471-10.194-11.39c-3.78-2.561-10.576-3.925-20.387-4.14c-8.136,0.694-18.761,3.589-31.826,8.639
		c-3.589,2.608-7.681,5.192-12.275,7.753l0.072,0.813c0.311-0.024,0.718-0.191,1.221-0.479c0.526-0.048,0.813,0.191,0.861,0.67
		l0.814-0.455l0.407-0.024l0.023,0.383c0.024,0.383-2.823,2.608-8.59,6.676l0.455,0.718l-0.407,0.024l-0.885-0.312
		c0.024,0.239-0.383,0.407-1.221,0.479l0.048,0.431l0.957,1.053c-0.311,0.024-0.742-0.072-1.292-0.263
		c-1.867,0.167-3.686,1.507-5.48,4.043l0.455,0.718c1.556-1.436,2.464-2.153,2.728-2.177l0.096,1.172
		c-0.263,0.023-0.67,0.191-1.221,0.479l0.981,1.483c1.853-2.002,3.951-3.763,6.245-5.24c1.125,0.287,1.723,0.646,1.747,1.029
		l0.862-0.071c6.174-4.571,12.275-7.873,18.33-9.907l0.072,0.813c-1.125,1.675-1.891,2.537-2.298,2.584
		c0.048,0.575,0.24,1.077,0.599,1.508c0.095,1.029-2.657,7.969-8.232,20.794c-12.659,29.815-23.283,51.878-31.921,66.14
		c0.024,0.287,0.192,0.67,0.502,1.148c2.13-0.502,3.47-1.028,4.044-1.531l0.454-0.048l0.072,0.813l0.789-0.071l0.814-0.454
		c0.024,0.238,0.287,0.358,0.838,0.311l0.071,0.813c0.072,0.79-0.383,1.985-1.34,3.637c-0.861,0.981-1.794,3.039-2.775,6.175
		l0.024,0.382l0.79-0.071c3.445-3.853,6.054-7.634,7.849-11.318c10.05-2.943,17.708-5.839,23.02-8.687
		c5.335-0.455,9.403-1.866,12.18-4.188l-0.048-0.431l-2.01,0.598l-0.455,0.049l-0.047-0.432c3.924-0.598,6.628-1.46,8.136-2.655
		c7.633-5.888,13.399-10.051,17.3-12.516c8.017-5.886,13.233-11.63,15.602-17.205c0.43-0.096,0.861-0.191,1.34-0.311
		c1.125-0.048,1.747-0.072,1.914-0.12c-0.047-0.215,0.048-0.335,0.263-0.383c1.795-0.191,0.934,0.12,2.082-0.144l3.015-0.693
		l0.502-0.12l-0.239,0.144c0.335,0.048,0.694,0.023,1.101-0.071l0.215,0.885l-13.711,21.799l-3.039,3.806l-1.484,4.977l0.287-0.071
		l1.483-0.622l-0.479,1.938l0.144,0.574l0.407,0.502c-0.192,0.048-0.263,0.168-0.216,0.383l0.072,0.312l0.622-0.144
		c0.909-0.79,1.292-1.508,1.148-2.153c0.981,0.167,1.627,0.239,1.962,0.144l0.071,0.311c-0.598,0.144-0.909,0.622-0.957,1.436
		l0.071,0.312l0.335-0.072c4.977-5.432,17.181-24.024,26.968-36.635c-0.311-1.364,4.786-3.255,15.315-5.696l0.334-0.071
		c0.383,1.651-0.43,5.647-2.44,11.989c-1.292,3.828-1.915,5.934-1.819,6.27c-1.675,5.097-2.465,7.849-2.369,8.278l-3.733,12.229
		c-2.417,6.27-4.259,12.85-5.552,19.789c0.215-0.048,0.551-0.023,1.029,0.096l0.526-0.455c0.047,0.216,0.191,0.288,0.407,0.239
		l-0.216-0.885l1.627-0.048c0.479-0.119,0.886-0.718,1.22-1.818c-0.071-1.651,0.263-2.536,1.005-2.729
		c1.005-3.924,1.628-5.886,1.843-5.958c0.934-3.9,1.627-6.126,2.082-6.677c1.412-5.072,2.441-7.681,3.111-7.849l0.144,0.622
		l-1.029,2.657c-1.795,7.968-3.613,14.262-5.456,18.88l0.526,2.297l0.335-0.071c4.451-9.572,10.864-28.524,19.215-56.856
		c0.239-2.489,1.436-4.427,3.565-5.791l-0.479-0.502l-0.072-0.263c0.958-0.216,1.627-0.598,2.01-1.125
		c-0.048-0.216-0.885-0.526-2.513-0.958l4.164-17.851c0.909-0.813,1.436-1.244,1.603-1.244l0.072,0.909
		c-0.215,0.024-0.55,0.144-0.933,0.407l0.79,1.125c1.436-1.555,2.991-2.896,4.69-4.02c0.862,0.239,1.292,0.526,1.34,0.813
		l0.622-0.047c4.738-3.47,9.38-5.958,13.951-7.466l0.048,0.598c-0.838,1.268-1.412,1.915-1.723,1.938
		c0.047,0.431,0.167,0.814,0.383,1.148c0.071,0.79-1.986,6.054-6.198,15.817c-9.62,22.612-17.684,39.339-24.241,50.203
		c0.024,0.216,0.168,0.503,0.431,0.886c1.604-0.383,2.632-0.79,3.039-1.173l0.287-0.024l0.048,0.599l0.67-0.048l0.598-0.312
		c0.024,0.168,0.239,0.239,0.646,0.216l0.048,0.646c0.047,0.574-0.287,1.483-1.029,2.728c-0.694,0.742-1.412,2.298-2.178,4.666
		l0.023,0.312l0.623-0.048c2.608-2.919,4.594-5.791,5.958-8.614c7.634-2.249,13.449-4.428,17.468-6.581
		c4.092-0.358,7.178-1.412,9.285-3.183l-0.024-0.312l-1.555,0.455l-0.335,0.024l-0.024-0.312c2.968-0.431,5.05-1.101,6.174-1.985
		c5.791-4.451,10.17-7.634,13.138-9.501C212.905,180.239,217.213,173.778,216.686,167.581L216.686,167.581z M215.106,167.988
		l0.215,2.417c-0.286,0.599-0.598,0.909-0.885,0.934l-0.359-4.116C214.748,167.461,215.082,167.7,215.106,167.988L215.106,167.988z
		 M33.915,148.51l-0.406,0.023l-0.072-0.742l1.651-0.144l0.024,0.383C34.849,148.055,34.442,148.198,33.915,148.51z M25.851,229.174
		c-0.957-0.431-1.818-0.598-2.56-0.526l-0.096-1.172c-0.048-0.455,0.215-0.767,0.79-0.886c0.526-0.048,0.837,0.335,0.885,1.102
		c1.388-1.699,2.154-2.561,2.297-2.585l0.885,0.359C27.766,227.858,27.024,229.079,25.851,229.174z M112.02,139.033
		c-0.407,0.048-1.221-1.22-2.393-3.733l-0.072-0.742c0.766-0.071,1.556,1.173,2.393,3.733L112.02,139.033z M110.872,130.108
		l-0.335,0.79l-11.701-4.882C106.636,126.279,110.656,127.643,110.872,130.108z M61.458,172.534l-1.651,0.144l-0.071-0.743
		l1.651-0.144L61.458,172.534z M60.117,147.05l0.407-0.024l0.096,1.172c-0.383,0.024-0.885,0.598-1.508,1.699l-0.071-0.814
		C59.783,148.198,60.166,147.528,60.117,147.05L60.117,147.05z M56.647,155.233l0.144,1.555l-0.406,0.024l-0.144-1.556
		L56.647,155.233z M54.83,158.153l0.79-0.072c-0.072,1.292-0.431,1.986-1.077,2.034l-0.407,0.024
		C54.638,159.278,54.877,158.607,54.83,158.153z M53.465,162.221l0.455-0.048l0.023,0.383l-0.742,1.245l-0.79,0.072l-0.023-0.383
		C53.179,163.417,53.538,163.011,53.465,162.221L53.465,162.221z M52.125,165.882l-0.239,1.961l-0.407,0.024l-0.167-1.938
		L52.125,165.882z M38.701,204.049c-0.526,2.681-1.101,4.044-1.699,4.092l-0.023-0.383
		C36.835,206.441,37.409,205.197,38.701,204.049L38.701,204.049z M36.236,209.385l0.024,0.383c0.048,0.526-0.191,0.838-0.717,0.861
		l-0.024-0.383C35.471,209.792,35.71,209.505,36.236,209.385z M35.519,220.464l1.244-0.119l0.048,0.431
		c-0.312,0.023-0.718,0.191-1.221,0.479l-0.79,0.071C34.753,220.919,35.016,220.607,35.519,220.464L35.519,220.464z M70.934,209.528
		c-6.987,3.446-11.103,5.791-12.324,7.011c-7.562,2.633-11.318,4.26-11.246,4.906c-6.724,2.656-11.151,4.618-13.281,5.839
		c-0.502,0.047-1.22-0.144-2.178-0.575c-0.12-1.363,0.502-2.464,1.819-3.35c1.172-0.096,2.297,0.072,3.374,0.526
		c1.244-0.646,3.422-1.363,6.508-2.129l-0.071-0.814l-2.489,0.216c0.311-0.431,2.704-1.556,7.203-3.374l1.244-0.119l0.024,0.383
		c-2.129,0.19-3.302,0.813-3.565,1.938c0.048,0.502,0.335,0.717,0.861,0.669c1.604-1.005,2.393-1.603,2.37-1.771
		c3.039-0.574,11.438-4.978,25.197-13.185l0.071,0.741C74.475,206.801,73.303,207.806,70.934,209.528z M49.829,216.468
		c2.01-0.167,3.733-0.98,5.168-2.393c0.575-0.048,0.886,0.167,0.91,0.67c-0.981,0.096-2.871,0.909-5.624,2.488l-0.407,0.024
		L49.829,216.468L49.829,216.468z M83.879,190.313l-10.553,8.375c-7.849,5.145-12.06,7.729-12.683,7.777
		c-12.491,6.867-20.268,10.434-23.283,10.696l-0.455,0.048c0.383-1.412,5.935-12.778,16.703-34.171
		c4.738-0.407,12.204-2.608,22.374-6.628l2.489-0.216c5.145-0.455,8.997,0.55,11.533,2.943l0.144,1.556
		C88.259,186.174,86.152,189.381,83.879,190.313L83.879,190.313z M63.252,178.708l1.699-0.144l0.024,0.383l-1.699,0.144
		L63.252,178.708z M87.11,174.664l1.244-0.119c1.148,0.55,1.747,1.029,1.795,1.459l0.024,0.383
		C89.072,176.482,88.043,175.908,87.11,174.664z M90.483,155.449c-1.1,1.315-4.116,3.565-9.044,6.724
		c-1.628,0.144-7.682,2.489-18.163,7.083c-0.524-0.239-1.101-0.338-1.675-0.288l-0.072-0.741c-0.12-1.507,0.55-3.398,2.034-5.695
		c0.813-4.308,1.699-6.772,2.68-7.371l8.734-19.646c-0.095-1.221,1.771-2.154,5.599-2.8l1.245-0.12l0.095,1.125
		c3.757-0.575,6.102-0.91,7.011-0.982c6.94-0.598,10.553,0.814,10.84,4.188l0.79-0.072l-0.168-1.986l0.862-0.072
		c2.034,1.125,3.134,2.489,3.278,4.092c0.095,1.101-0.502,2.465-1.771,4.092c-0.526,0.047-0.838-0.335-0.885-1.101l-0.862,0.072
		l-0.191,2.393c-3.518,5.265-6.078,7.968-7.657,8.112C91.729,154.443,90.843,155.425,90.483,155.449L90.483,155.449z
		 M95.844,169.208c-0.718-0.479-1.292-0.694-1.723-0.67l-0.096-1.172l0.79-0.072l1.747,1.03
		C96.634,168.873,96.394,169.16,95.844,169.208L95.844,169.208z M101.396,175.788c0.766,0.312,1.22,0.646,1.316,0.958l-0.383,0.096
		l0.024,0.024c-0.071,0-0.167,0.024-0.239,0.048l-0.575,0.454L101.396,175.788L101.396,175.788z M101.921,179.091l-0.071-0.311
		l1.005-0.239l0.072,0.311L101.921,179.091L101.921,179.091z M104.339,181.795c1.029-0.168,1.531-0.239,3.446-0.67l0.071,0.311
		l-3.637,0.838C104.267,182.105,104.315,181.938,104.339,181.795L104.339,181.795z M107.88,183.303
		c-1.532,0.144-1.197-0.049-3.638,0.502l-0.071-0.312l3.063-0.98l1.46-0.335l0.144,0.574
		C108.167,182.896,108.646,182.896,107.88,183.303z M111.111,182.537c-0.359,0.095-0.646-0.072-0.814-0.479l0.934-0.216
		c0.407-0.096,0.67,0.072,0.766,0.479L111.111,182.537L111.111,182.537z M119.869,173.108l-0.072-0.311l1.508-0.36l0.144,0.575
		L119.869,173.108z M129.225,230.49c0.095-0.431,0.12-0.741,0.071-0.957l0.335-0.071c0.407-0.096,0.646,0.048,0.742,0.431
		l0.072,0.311L129.225,230.49L129.225,230.49z M135.782,175.573l-0.67-0.12c-1.076,0.431-1.986,0.742-2.728,0.909l-0.622,0.144
		c-0.359,0.096-0.646-0.048-0.79-0.431l4.379-1.005l1.436-0.67l0.479,0.551C136.571,175.095,136.069,175.31,135.782,175.573
		L135.782,175.573z M139.156,174.496l-0.072-0.311c0.216-0.048,0.502-0.215,0.814-0.527l3.111-0.718l0.071,0.312
		C141.429,173.659,140.112,174.066,139.156,174.496z M139.634,168.203c-0.215,0.048-0.502,0.239-0.861,0.527
		c-0.048-0.215-0.479-0.215-1.292-0.024c-0.144-0.598,2.154-1.435,6.916-2.536l0.67-0.144l0.144,0.575
		C141.86,167.581,139.993,168.131,139.634,168.203L139.634,168.203z M148.009,159.158c-0.334,3.804-1.675,5.958-4.044,6.508
		l-0.071-0.311l-2.106,0.813l-0.933,0.216c-0.479,0.12-0.91,0.096-1.292-0.024l-0.192-0.838c-0.071-0.311,2.967-4.523,9.141-12.611
		l0.718,0.12C149.493,154.133,149.086,156.167,148.009,159.158L148.009,159.158z M162.822,146.475l-0.288,0.024l-0.048-0.598
		l1.245-0.12l0.023,0.311C163.539,146.141,163.229,146.26,162.822,146.475z M156.719,207.758c-0.717-0.335-1.364-0.479-1.914-0.431
		l-0.072-0.909c-0.024-0.311,0.167-0.526,0.574-0.646c0.407-0.047,0.646,0.239,0.694,0.861c1.029-1.315,1.603-1.985,1.722-1.985
		l0.646,0.263C158.131,206.729,157.581,207.686,156.719,207.758z M222.142,139.321c-0.311,0.024-0.909-0.934-1.843-2.872
		l-0.048-0.598c0.599-0.048,1.221,0.885,1.843,2.799L222.142,139.321z M221.28,132.477l-0.287,0.622l-8.854-3.709
		C218.05,129.582,221.112,130.61,221.28,132.477z M183.735,164.709l-1.244,0.12l-0.048-0.599l1.244-0.12L183.735,164.709z
		 M182.706,145.351l0.335-0.024l0.072,0.909c-0.312,0.024-0.694,0.455-1.148,1.292l-0.048-0.598
		C182.467,146.236,182.73,145.709,182.706,145.351L182.706,145.351z M180.098,151.572l0.096,1.173l-0.335,0.024l-0.096-1.172
		L180.098,151.572z M178.686,153.797l0.622-0.047c-0.071,1.005-0.334,1.531-0.789,1.579l-0.335,0.024
		C178.542,154.684,178.71,154.157,178.686,153.797L178.686,153.797z M177.681,156.861l0.288-0.024l0.024,0.311l-0.551,0.958
		l-0.622,0.048l-0.024-0.312C177.442,157.793,177.729,157.459,177.681,156.861z M176.676,159.636l-0.215,1.532l-0.288,0.024
		l-0.12-1.507L176.676,159.636L176.676,159.636z M166.458,188.662c-0.406,2.011-0.837,3.039-1.292,3.087l-0.023-0.263
		C165.071,190.48,165.501,189.523,166.458,188.662L166.458,188.662z M164.568,192.707l0.024,0.263
		c0.048,0.431-0.144,0.67-0.575,0.693l-0.023-0.311C163.97,193.041,164.161,192.826,164.568,192.707L164.568,192.707z
		 M164.042,201.129l0.958-0.071l0.023,0.311c-0.215,0.024-0.55,0.144-0.933,0.359l-0.622,0.048
		C163.444,201.44,163.635,201.226,164.042,201.129L164.042,201.129z M190.914,192.826c-5.265,2.608-8.399,4.379-9.38,5.288
		c-5.743,2.01-8.591,3.254-8.542,3.757c-5.098,2.034-8.448,3.493-10.026,4.427c-0.383,0.024-0.934-0.119-1.652-0.454
		c-0.095-1.029,0.383-1.867,1.389-2.489c0.909-0.071,1.771,0.049,2.56,0.383c0.957-0.478,2.608-1.005,4.953-1.604l-0.047-0.598
		l-1.938,0.168c0.239-0.336,2.082-1.197,5.504-2.585l0.957-0.072l0.024,0.264c-1.627,0.144-2.536,0.623-2.728,1.484
		c0.024,0.383,0.263,0.573,0.67,0.526c1.196-0.79,1.771-1.245,1.771-1.388c2.298-0.407,8.662-3.758,19.12-10.026l0.047,0.598
		C193.594,190.744,192.709,191.51,190.914,192.826L190.914,192.826z M174.882,198.091c1.555-0.144,2.872-0.742,3.972-1.795
		c0.407-0.024,0.646,0.144,0.67,0.526c-0.718,0.071-2.13,0.67-4.259,1.818l-0.335,0.023L174.882,198.091L174.882,198.091z
		 M200.773,178.206l-7.969,6.413c-5.958,3.9-9.188,5.862-9.691,5.911c-9.476,5.216-15.363,7.92-17.684,8.111l-0.334,0.023
		c0.287-1.076,4.522-9.715,12.706-25.938c3.565-0.311,9.213-2.01,16.966-5.073l1.938-0.167c3.9-0.335,6.819,0.431,8.734,2.273
		l0.096,1.172C204.075,175.047,202.496,177.463,200.773,178.206L200.773,178.206z M185.123,169.399l1.245-0.12l0.023,0.312
		l-1.244,0.12L185.123,169.399z M203.237,166.313l0.958-0.071c0.885,0.43,1.34,0.813,1.363,1.125l0.024,0.263
		C204.745,167.7,203.956,167.27,203.237,166.313z M205.75,151.74c-0.838,1.005-3.11,2.728-6.819,5.121
		c-1.244,0.12-5.839,1.89-13.783,5.336c-0.383-0.144-0.814-0.191-1.269-0.167l-0.048-0.598c-0.096-1.148,0.407-2.584,1.508-4.331
		c0.622-3.303,1.315-5.145,2.034-5.576l6.676-14.932c-0.072-0.886,1.34-1.603,4.212-2.154l0.957-0.071l0.071,0.909
		c2.824-0.455,4.595-0.718,5.313-0.789c5.265-0.455,8.016,0.598,8.231,3.182l0.622-0.048l-0.119-1.436l0.622-0.047
		c1.531,0.837,2.345,1.842,2.44,3.039c0.071,0.861-0.358,1.915-1.268,3.135c-0.407,0.047-0.646-0.239-0.694-0.862l-0.622,0.048
		l-0.191,1.795c-2.656,4.044-4.595,6.125-5.814,6.222C206.731,150.974,206.061,151.716,205.75,151.74L205.75,151.74z
		 M208.55,161.694l-0.071-0.909l0.622-0.048l1.34,0.813c0.023,0.383-0.167,0.599-0.574,0.646
		C209.292,161.838,208.861,161.67,208.55,161.694L208.55,161.694z M97.16,219.818l-0.622,0.144l-0.526,0.454
		c0.096,0.383,0.335,0.526,0.742,0.431c0.406-0.095,0.574-0.334,0.479-0.717L97.16,219.818L97.16,219.818z M94.791,215.104
		l0.072,0.311c0.407-0.096,0.574-0.335,0.479-0.718l-0.072-0.312C94.887,214.481,94.719,214.722,94.791,215.104L94.791,215.104z
		 M111.733,183.278l0.455-0.287c-0.096,0-0.167-0.024-0.24-0.048C111.781,182.991,111.708,183.11,111.733,183.278z M111.637,175.022
		l0.718-0.167l-0.144-0.623l-0.717,0.167L111.637,175.022z M280.744,199.191L279.117,199l-0.288,0.622l0.024,0.312l9.691-0.814
		l-0.048-0.598L280.744,199.191z M289.598,198.449l0.048,0.598h0.096l-0.048-0.598H289.598z M330.253,193.137l0.048,0.599
		l1.054,0.191l-0.049-0.599L330.253,193.137z M328.77,193.257c-7.274,1.627-8.184,1.34-9.715,1.46l0.048,0.598l0.67-0.048
		l0.358-0.023l-0.096-0.072l0.79-0.311c7.203-0.79,8.04-0.503,7.969-1.316L328.77,193.257z M285.1,182.681l-0.646-0.216
		c-0.526,1.411-0.79,2.249-0.766,2.488l0.023,0.264C284.214,185.192,284.668,184.331,285.1,182.681z M276.341,177.966l-0.023-0.311
		l-0.335,0.024l-0.599,0.383l0.335,0.574C276.174,178.588,276.389,178.373,276.341,177.966L276.341,177.966z M295.365,197.636
		l-0.049-0.599l-0.19,0.024l0.047,0.598L295.365,197.636z M334.848,188.734l0.455-0.048c0.263-0.024,0.383-0.239,0.358-0.622
		l-0.264-0.575c-1.65,0.144-2.416,0.216-3.756,0.958l-0.024-0.312l-1.986,0.191c-0.047-0.599-0.215-0.909-0.479-0.885l-1.028,0.096
		c-1.197,0.095-1.771,0.048-2.37,0.502c-0.023-0.215-0.095-0.312-0.215-0.312l-1.148,0.097l-0.67,0.383
		c-0.024-0.216-0.096-0.312-0.215-0.312l-0.407,0.358l-0.024-0.311l-1.603-0.119l-0.383,0.023l0.047,0.599l0.814,0.215l0.766-0.047
		c0.263,0.167,0.551,0.215,0.885,0.19l0.671-0.335l0.023,0.264c-3.757,0.933-3.732,0.766-6.317,1.196
		c-0.287-0.191-0.502-0.287-0.646-0.264l-0.049,0.048c-0.286-0.023-0.454-0.215-0.479-0.526l1.341-0.167
		c0.096,0,0.167,0.096,0.908,0.239c1.077-0.526,1.126-0.742,1.699-0.79l-0.047-0.599c-3.686,0.719-2.202,0.239-6.82,0.646
		l-0.216,0.024l-0.047-0.599c5.935-0.718,3.948-0.312,5.981-0.885c0.024,0.215,0.097,0.311,0.216,0.311
		c0.218-0.223,0.505-0.366,0.813-0.407l0.407-0.023c2.081-0.167,2.775,0.239,6.892-0.909l0.023,0.264l0.67-0.336l0.622-0.047
		c-0.047-0.599,0.862-0.694,1.173-0.719l-0.048-0.646c-7.227,1.459-9.117,1.053-11.127,1.627l-0.024-0.263
		c-1.89,0.334-1.962,0.19-2.44,0.215c-0.144,0.024-0.359,0.144-0.599,0.383c-0.023-0.215-0.095-0.312-0.238-0.312
		c-0.072,0-0.096,0.024-0.12,0.024l-6.126,1.005c-0.023-0.167-0.096-0.264-0.239-0.239c-3.183,0.67-2.321,0.79-6.581,1.173
		c-0.19,0.023-0.454,0.119-0.789,0.334c-0.023-0.167-0.12-0.262-0.335-0.239l-2.608,0.216l-1.747,0.431
		c-0.023-0.167-0.119-0.263-0.335-0.239c-0.981,0.264-1.843,0.431-2.536,0.479h-0.048c-0.431,0.048,0.215-0.119-0.119-0.263
		l-0.527,0.311c-0.766,0.072-0.358-0.048-2.991-0.023c-4.618,0.574-4.115,0.646-4.618,0.67l-1.723-0.12
		c0.023,0.168-0.071,0.288-0.264,0.288c-1.962-0.264-2.967-0.575-2.99-0.934c0.263-1.866,0.718-2.824,1.363-2.872l0.336-0.023
		l-0.288,0.622l0.335-0.023c0.622-0.336,0.909-0.646,0.886-0.934l-0.048-0.646l-0.623,0.048l-0.047-0.599
		c-0.048-0.454,0.024-0.861,0.191-1.195l1.411-2.274l0.048,0.599l0.671-0.048l-0.049-0.598l-0.383-0.551
		c0.503-0.431,0.886-0.67,1.197-0.694l-0.024-0.311l-0.909,0.071l-0.071-0.909c1.818-3.78,2.68-5.982,2.632-6.604l0.646,0.263
		c0.407-0.024,0.599-0.263,0.575-0.694l-0.623,0.048l-0.023-0.263c-0.044-0.437,0.039-0.877,0.239-1.268
		c0.98-1.029,1.436-2.058,1.34-3.135c0.191-0.024,0.287,0.072,0.312,0.288c0.838-0.479,1.483-1.748,1.962-3.853
		c1.483-2.68,3.59-8.041,6.341-16.057c5.265-14.166,5.049-15.673,5.791-19.023l-0.622,0.047c0.048,0.431-0.048,0.838-0.239,1.221
		c-0.431-0.167-0.766-0.263-1.005-0.239l-0.024-0.263c-0.096-1.221,0.407-2.68,1.556-4.403l0.287-0.024l0.526,2.058l0.622-0.047
		c-0.023-0.144,0.145-0.958,0.479-2.465c-0.023-0.312-0.263-0.502-0.741-0.527l-0.598,0.383c-0.049-0.431-0.024-1.556,0.047-3.351
		l-0.312,0.024c-0.525-0.527-0.789-0.958-0.813-1.316l-3.423,0.335c-0.023-0.239-0.143-0.598-0.383-1.053
		c-0.023-0.311,0.742-0.622,2.321-0.933l0.694,0.263l0.646-0.383c0.023,0.215,0.144,0.311,0.383,0.287l0.646-0.383
		c0.024,0.216,0.144,0.311,0.383,0.287l0.312-0.024l-0.048-0.693c-0.479,0.047-1.747,0.047-3.757-0.024l-0.646,0.431l-0.024-0.383
		c-16.056,1.315-25.173,2.058-27.351,2.273c-0.287,0.024-1.412,0-3.397-0.048c0.023,0.263-0.216,0.407-0.694,0.455l-0.694-0.311
		l-2.344,0.599c-0.551,0.047-1.484,0.023-2.776-0.12c-0.359,0.287-0.79,0.455-1.316,0.503c-0.287,0.023,3.422-0.192,6.868-0.431
		c-0.359,0.288-0.909,0.455-1.675,0.527c-0.527,0.047-0.981-0.024-1.364-0.239c-0.526,0.239-2.226,0.622-5.073,1.196l-0.693-0.263
		l-11.199,1.723c-0.431-0.215-0.934-0.287-1.508-0.239c-0.598,0.047-1.603,0.263-2.99,0.646l-5.408,2.249l0.406,0.67
		c0.263-0.024,0.646-0.168,1.101-0.431l1.914,0.168l-0.238,1.794c-1.771,0.79-2.8,1.962-3.087,3.446
		c-2.656,1.172-3.973,2.01-3.973,2.513l0.024,0.311l0.406-0.023l0.718-0.383l0.838,1.005l0.119,1.388
		c0.048,0.431-4.427,9.834-13.376,28.212c-7.753,17.707-11.821,27.399-12.204,29.146c-2.656,0.742-4.188,1.818-4.643,3.255
		c0.048,0.454,0.838,0.766,2.369,0.885l0.072,0.693l-0.694,1.149l0.12,1.388c0.071,0.718,2.01,1.269,5.814,1.651
		c-0.023-0.239,0.096-0.383,0.359-0.407c0.071,0.861-0.168,2.536-0.719,5.025l0.407-0.024c1.579-2.153,2.321-3.637,2.249-4.45
		l0.335-0.024c0.383-0.023,0.79,0.407,1.269,1.34c-0.479,0.192-2.153,3.996-5.025,11.438l0.407,0.67l0.406-0.024
		c3.519-8.9,5.72-13.83,6.628-14.764c4.619-0.407,12.611-1.22,23.954-2.44l0.718-0.432c0.023,0.24,0.167,0.359,0.431,0.336
		l0.742-0.072l0.718-0.431c0.023,0.239,0.167,0.359,0.431,0.335l8.591-0.741c2.272-0.192,3.35-0.886,3.254-2.059
		c-0.023-0.312,1.315-0.67,4.02-1.053c0.264-0.024,0.646,0.048,1.173,0.215c-0.024-0.215,1.341-0.43,4.068-0.669
		c0.071-1.437,0.525-2.202,1.34-2.274l-0.071-0.693c-0.766,0.072-1.628,0.264-2.633,0.599c-1.795-0.096-2.943-0.239-3.422-0.407
		c-0.479,0.264-0.838,0.407-1.101,0.431l-5.982,0.191l-0.718,0.383c-0.024-0.215-0.167-0.311-0.431-0.287l-0.335,0.023l-0.767,0.384
		c-0.023-0.216-0.646-0.384-1.89-0.551l-0.766,0.455l-1.483,0.119l-0.024-0.383c7.705-0.837,11.51-1.891,11.414-3.134
		c0.503-0.049,0.766,0.19,0.813,0.693l2.25-0.574l-0.072-0.694l-18.449,0.503c0.024,0.239-0.096,0.383-0.359,0.406l-2.249-0.19
		c-0.574,0.047-1.053,0.215-1.436,0.502l-0.838-0.312c-2.321,0.192-4.044,0.479-5.192,0.838c-1.579-0.119-3.326-0.096-5.265,0.071
		l-4.139,0.359l-1.915-0.215c-0.096-1.221,2.273-7.228,7.155-17.995c1.411-3.637,2.704-5.91,3.948-6.771
		c0.263-0.024,0.646,0.071,1.172,0.287l2.943-1.005l1.508,0.239c2.536-0.215,5.479-0.933,8.854-2.178
		c0.838-0.071,1.46-0.023,1.915,0.167l2.249-0.526l6.7-0.575c2.848-0.239,5.934-0.861,9.284-1.89l-0.072-0.693
		c-1.244,0.12-1.89-0.096-1.938-0.599c-0.072-0.933-0.981-1.316-2.729-1.173l-0.071-0.693l1.843-0.526l4.833-0.407l-0.071-0.693
		c-0.192,0.023-1.173,0-2.991-0.072l-0.072-0.742l1.866-0.167c0.503-0.047,0.719-0.288,0.671-0.766
		c-2.513,0.071-3.781-0.048-3.805-0.383c-17.517,0.861-26.299,1.029-26.346,0.478c-0.264,0.024-0.623,0.192-1.102,0.479
		l-0.454-0.718c4.642-9.858,7.369-14.836,8.159-14.908c0.024,0.383-0.168,1.005-0.574,1.843l0.023,0.311l0.743-0.072
		c1.842-4.403,3.397-6.676,4.689-6.771c5.503-0.479-0.766-0.838,11.008-2.681c0.479,0.216,0.813,0.311,1.052,0.287
		c4.619-0.933,11.056-1.914,19.312-2.919l-0.048-0.694l-4.403,0.407l-0.048-0.694c0.526-0.048,0.958-0.215,1.316-0.502l0.024,0.383
		c0.239-0.023,0.573-0.191,1.005-0.479c0.766-0.072,1.34,0,1.746,0.215c1.531-0.406,2.776-0.646,3.686-0.742l2.752-0.263
		c0.67-0.431,0.981-0.813,0.957-1.173l-0.023-0.311c-0.694,0.071-1.483,0.024-2.417-0.144c-0.024-0.383,0.167-0.646,0.622-0.766
		l5.12-0.478l2.346-0.599c0.024,0.263,0.144,0.358,0.335,0.358c0.238-0.023,0.574-0.191,1.005-0.478
		c0.12,0.024,0.263,0.024,0.383,0.048c-0.312,0.646-0.67,1.58-1.029,2.8l-0.669,0.048c-0.049-0.455-0.168-0.862-0.384-1.221
		l-0.335,0.024c-6.221,17.325-8.997,25.389-14.74,38.693c-1.053,3.398-1.938,5.289-2.704,5.695c0.024,0.383,0.264,0.574,0.67,0.527
		c0.144,1.675-0.239,3.326-1.172,4.953c-2.657,7.658-4.428,11.845-5.337,12.611l0.599,3.613c0.023,0.383-0.168,0.598-0.574,0.646
		l-0.622,0.048c-0.096-1.005-0.455-1.483-1.101-1.411l-0.336,0.023c-0.813,1.268-1.436,2.728-1.842,4.427l0.622-0.048
		c0.837-0.55,1.22-1.196,1.148-1.938l1.244-0.119l0.718,0.263c-0.574,0.909-0.837,1.628-0.789,2.178l0.335,0.574l-0.814,1.915
		l0.024,0.311c0.718-0.072,1.508,0.167,2.345,0.67c0.574-0.048,1.197-0.311,1.891-0.766c0.719-0.071,3.398-0.096,8.017-0.096
		l2.321-0.79c2.823-0.023,3.277,0.049,5.719-0.167l1.005-0.096l0.526-0.359l0.024,0.312c2.56-0.216,2.728-0.048,4.737,0.191
		l0.024,0.312l-1.412,0.119l0.048,0.598c0.431-0.048,0.813-0.167,1.125-0.431c0.358-0.023,0.574,0.168,0.598,0.599
		c-0.574,0.048-1.22,0.191-1.938,0.431l-0.622-0.216c-0.98,0.264-0.766,0.335-1.436,0.384l-0.98-0.191
		c0.023,0.167-0.072,0.286-0.239,0.286c0.023,0.383,0.239,0.575,0.598,0.551l1.005-0.096l5.241-0.455l1.985-0.43
		c0.024,0.167,0.096,0.263,0.264,0.239l0.957-0.359l1.795-0.144c1.388-0.119,1.363-0.216,4.379-0.694
		c-0.023-0.19,0.048-0.263,0.191-0.287l0.024,0.264c4.905-0.838,5.216-0.886,6.006-1.148l0.071,0.144
		c1.221-0.288,0.527-0.216,0.862-0.455c0.023,0.216,0.095,0.312,0.215,0.312l0.861-0.072l-0.048-0.646l-1.746-0.024l-0.024-0.048
		c-0.072,0.023-0.12,0.023-0.191,0.048h-0.239v0.048c-1.173,0.239-1.197,0.072-1.963,0.144l-4.379,0.239l-0.023-0.311l2.44-0.335
		l0.886-0.072l0.502-0.358l0.024,0.311c3.445-0.287,4.666,0.574,20.603-2.823c0.862-0.072,0.79-0.79,1.34-2.273
		c-0.291,0.02-0.582-0.047-0.837-0.191c-1.316,0.503-2.011,0.264-4.547,0.67c-0.215,0.024-0.383-0.167-0.455-0.551l-0.023-0.263
		l2.44,0.071c0.455-0.047,1.341-0.119,2.657-0.861C335.063,188.639,334.561,188.758,334.848,188.734L334.848,188.734
		L334.848,188.734z M217.021,190.625l-1.124,0.095c-0.049-0.454,0.55-2.177,1.794-5.12l0.742-0.071
		C218.457,186.222,218.002,187.921,217.021,190.625z M218.385,185.169l-0.023-0.312c-0.024-0.383,0.215-0.646,0.741-0.766
		l0.024,0.311C219.15,184.857,218.911,185.121,218.385,185.169z M233.34,196.727l0.024,0.311l-1.866,0.168l-0.023-0.312
		L233.34,196.727z M231.092,196.535c0.023,0.383-0.551,0.813-1.795,1.244l-2.298-0.167l-0.742,0.071l-0.071-0.694L231.092,196.535z
		 M246.214,126.925l-1.124,0.096l-0.024-0.383c-0.023-0.383,0.192-0.646,0.671-0.766l0.406-0.024l0.766,0.311
		C246.932,126.614,246.717,126.877,246.214,126.925z M263.323,123.575l0.359-0.023l0.048,0.693l-1.029,0.096
		C262.678,123.958,262.868,123.695,263.323,123.575L263.323,123.575z M259.016,125.083l-1.698-0.192l-0.023-0.311
		c2.226-0.192,2.967-0.431,4.331-0.814c0.023,0.263,0.263,0.359,0.693,0.312l0.048,0.693l-0.67,0.072
		c-0.526,0.047-0.981-0.024-1.364-0.24C259.926,124.867,259.495,125.035,259.016,125.083z M261.146,131.281l-0.024-0.312
		l2.752-0.263l0.024,0.312L261.146,131.281z M264.089,128.887l-0.023-0.383l1.34-0.12l0.024,0.383L264.089,128.887z M264.4,124.198
		l-0.359,0.023l0.312-0.742l3.063-0.288l0.024,0.383C266.649,123.647,265.621,123.862,264.4,124.198z M265.956,130.802l-0.048-0.694
		l1.34-0.12c0.455-0.048,0.693,0.167,0.718,0.646L265.956,130.802L265.956,130.802z M274.067,119.747l-1.723,0.479l-0.312,0.023
		c-0.813,0.072-1.865,0.048-3.11-0.072C271.148,120.034,273.278,119.866,274.067,119.747L274.067,119.747z M272.226,127.404
		l0.023,0.311l-2.369,0.216l-0.023-0.312L272.226,127.404z M276.102,129.246c-0.023-0.287-0.479-0.479-1.411-0.574l-2.369,0.67
		l-1.819,0.072c-0.406-0.288-0.622-0.479-0.646-0.622l2.105,0.12l4.738-0.766l2.417,0.096l0.023,0.383
		C277.944,128.744,276.939,128.959,276.102,129.246L276.102,129.246z M300.485,122.953c0.288,0.024,0.479,0.024,0.551,0.024
		c0.837-0.814,1.771-1.46,2.848-1.915c-0.862,3.781-2.201,6.581-4.044,8.399l-1.341-0.813
		C299.624,125.801,300.295,123.91,300.485,122.953z M296.37,130.012l0.334-0.023c-0.454,0.861-0.861,1.316-1.195,1.34l-0.072-0.909
		C295.652,130.419,295.963,130.275,296.37,130.012z M293.714,136.354c0.646-2.584,1.269-4.044,1.842-4.427l0.024,0.311
		c-0.335,2.393-0.861,3.662-1.556,3.757l0.12,1.507c-0.574,0.814-0.838,1.436-0.814,1.914l-0.335,0.024l-0.19-2.082
		C293.188,137.311,293.498,136.976,293.714,136.354z M292.685,139.799c0.023,0.359-0.216,1.197-0.693,2.489l-0.335,0.024
		l-0.072-0.91C292.039,140.35,292.422,139.823,292.685,139.799L292.685,139.799z M273.374,195.841l-0.024-0.264l0.622-0.047
		l0.072,0.909C273.709,196.464,273.47,196.271,273.374,195.841L273.374,195.841z M300.964,196.56
		c-0.023-0.216-0.119-0.312-0.335-0.288l-1.555,0.144l-0.024-0.311h0.144l3.685-0.312l0.024,0.312
		C301.826,196.152,301.18,196.32,300.964,196.56z M299.122,195.793c0.144,0.072,0.071,0.145,0,0.191
		C299.05,195.961,298.954,195.889,299.122,195.793z M299.313,191.486l-2.058,0.167l-0.024-0.312l1.867-0.167l1.627-0.406
		c0.024,0.19,0.12,0.263,0.336,0.239c1.938-0.335,1.746-0.432,2.68-0.503c0.311-0.024,0.502,0.168,0.526,0.551L299.313,191.486z
		 M306.516,190.864c-1.148-0.12-1.22-0.216-2.034-0.145l-0.023-0.263l1.843-0.167l0.023,0.263
		C306.133,190.576,306.827,190.625,306.516,190.864z M306.659,190.529l-0.024-0.264l1.005-0.096l0.024,0.263L306.659,190.529z
		 M308.885,190.337l-0.024-0.263c0.168-0.023,0.407-0.144,0.718-0.383c0.503-0.048,0.766,0.287,0.814,0.67L308.885,190.337
		L308.885,190.337z M311.732,189.979l-0.024-0.312l1.221-0.096l0.023,0.312L311.732,189.979z M313.431,189.835
		c-0.023-0.359,0.12-0.574,0.432-0.622l0.406,0.526c-0.023-0.168,0.048-0.264,0.191-0.287l0.312,0.574L313.431,189.835
		L313.431,189.835z M336.978,187.06l0.023-0.024v-0.023C337.001,187.012,336.978,187.035,336.978,187.06L336.978,187.06z
		 M337.408,186.748c0.191-0.12,0.287-0.239-0.168-0.311c-0.215,0.239,0.239,0.311-0.239,0.335l0.024,0.215
		c0.048-0.048,0.168-0.12,0.264-0.191l-0.264,0.216v0.023l-0.502,0.646l1.004-0.359h0.12l-0.048-0.599L337.408,186.748z
		 M339.154,188.112l-0.19,0.023l0.047,0.599l1.412-0.119C340.399,188.232,339.466,188.112,339.154,188.112z"/>
</g>
</svg>
