<?xml version="1.0" encoding="utf-8"?>
<!-- Generator: Adobe Illustrator 16.0.3, SVG Export Plug-In . SVG Version: 6.00 Build 0)  -->
<!DOCTYPE svg PUBLIC "-//W3C//DTD SVG 1.1//EN" "http://www.w3.org/Graphics/SVG/1.1/DTD/svg11.dtd">
<svg version="1.1" id="Layer_1" xmlns="http://www.w3.org/2000/svg" xmlns:xlink="http://www.w3.org/1999/xlink" x="0px" y="0px"
	 width="360px" height="360px" viewBox="0 0 360 360" enable-background="new 0 0 360 360" xml:space="preserve">
<g>
	<path fill="#413000" d="M212.172,158.397c-7.104,0-12.395,3.488-12.395,11.884c0,6.325,3.487,10.716,12.013,10.716
		c7.225,0,12.133-4.257,12.133-10.977C223.923,162.404,219.531,158.398,212.172,158.397L212.172,158.397z M197.964,217.673
		c-1.681,2.063-3.356,4.256-3.356,6.843c0,5.161,6.582,6.714,15.623,6.714c7.49,0,17.692-0.524,17.692-7.487
		c0-4.139-4.909-4.395-11.111-4.784L197.964,217.673L197.964,217.673z M236.186,158.788c2.32,2.971,4.776,7.104,4.776,13.043
		c0,14.332-11.234,22.726-27.5,22.726c-4.137,0-7.881-0.516-10.202-1.16l-4.263,6.843l12.652,0.773
		c22.341,1.423,35.507,2.069,35.507,19.237c0,14.854-13.038,23.242-35.507,23.242c-23.371,0-32.28-5.941-32.28-16.141
		c0-5.813,2.583-8.905,7.102-13.173c-4.262-1.802-5.681-5.028-5.681-8.516c0-2.843,1.419-5.425,3.747-7.88
		c2.322-2.451,4.904-4.907,8.004-7.748c-6.326-3.098-11.105-9.813-11.105-19.369c0-14.848,9.814-25.044,29.566-25.044
		c5.555,0,8.914,0.511,11.883,1.29h25.182v10.973L236.186,158.788"/>
	<path fill="#413000" d="M270.796,135.323c-7.363,0-11.622-4.265-11.622-11.628c0-7.354,4.26-11.359,11.622-11.359
		c7.488,0,11.75,4.006,11.75,11.359C282.546,131.059,278.284,135.323,270.796,135.323z M254.136,212.921v-10.196l6.587-0.9
		c1.808-0.263,2.064-0.646,2.064-2.588v-37.962c0-1.418-0.385-2.325-1.68-2.71l-6.972-2.455l1.419-10.455h26.731v53.583
		c0,2.069,0.125,2.325,2.067,2.587l6.586,0.902v10.194h-36.806"/>
	<path fill="#413000" d="M342,207.917c-5.555,2.709-13.688,5.162-21.052,5.162c-15.365,0-21.175-6.192-21.175-20.789v-33.828
		c0-0.773,0-1.292-1.037-1.292H289.7v-11.491c11.366-1.295,15.882-6.978,17.304-21.052h12.268v18.342c0,0.9,0,1.291,1.034,1.291
		h18.205v12.91h-19.239v30.859c0,7.618,1.811,10.587,8.779,10.587c3.62,0,7.36-0.901,10.46-2.064L342,207.917"/>
	<path fill="#F05133" d="M150.677,174.031l-59.045-59.037c-3.397-3.4-8.912-3.4-12.313,0l-12.26,12.261l15.551,15.552
		c3.615-1.221,7.759-0.403,10.64,2.479c2.896,2.899,3.708,7.078,2.457,10.705l14.989,14.989c3.626-1.25,7.81-0.442,10.706,2.458
		c4.048,4.047,4.048,10.605,0,14.653c-4.049,4.049-10.607,4.049-14.658,0c-3.044-3.047-3.796-7.519-2.255-11.27L90.51,162.843
		l-0.001,36.784c0.987,0.489,1.918,1.142,2.741,1.96c4.047,4.047,4.047,10.604,0,14.656c-4.048,4.047-10.609,4.047-14.653,0
		c-4.048-4.053-4.048-10.609,0-14.656c1-0.999,2.158-1.755,3.393-2.261v-37.127c-1.236-0.504-2.392-1.254-3.394-2.261
		c-3.066-3.063-3.804-7.563-2.232-11.328l-15.331-15.333l-40.482,40.48c-3.401,3.403-3.401,8.918,0,12.318l59.041,59.037
		c3.399,3.4,8.912,3.4,12.316,0l58.768-58.759c3.4-3.4,3.4-8.918,0-12.318"/>
</g>
<rect fill="none" width="360" height="360"/>
</svg>
