<?xml version="1.0" encoding="utf-8"?>
<!-- Generator: Adobe Illustrator 16.0.3, SVG Export Plug-In . SVG Version: 6.00 Build 0)  -->
<!DOCTYPE svg PUBLIC "-//W3C//DTD SVG 1.1//EN" "http://www.w3.org/Graphics/SVG/1.1/DTD/svg11.dtd">
<svg version="1.1" id="Layer_1" xmlns="http://www.w3.org/2000/svg" xmlns:xlink="http://www.w3.org/1999/xlink" x="0px" y="0px"
	 width="360px" height="360px" viewBox="0 0 360 360" enable-background="new 0 0 360 360" xml:space="preserve">
<rect fill="none" width="360" height="360"/>
<g>
	<g>
		<path fill="#699F63" d="M178.141,279.216c-1.069,0-2.133-0.279-3.068-0.821l-9.77-5.78c-1.458-0.815-0.746-1.105-0.266-1.272
			c1.947-0.675,2.34-0.832,4.417-2.009c0.216-0.123,0.503-0.076,0.727,0.056l7.505,4.455c0.271,0.151,0.656,0.151,0.906,0
			l29.259-16.889c0.272-0.155,0.446-0.469,0.446-0.792v-33.767c0-0.33-0.174-0.639-0.454-0.806l-29.248-16.875
			c-0.27-0.157-0.629-0.157-0.901,0l-29.241,16.879c-0.284,0.163-0.464,0.482-0.464,0.802v33.767c0,0.323,0.18,0.629,0.461,0.782
			l8.016,4.631c4.349,2.175,7.012-0.387,7.012-2.959v-33.34c0-0.473,0.379-0.843,0.851-0.843h3.709c0.464,0,0.849,0.372,0.849,0.843
			v33.34c0,5.804-3.162,9.133-8.664,9.133c-1.691,0-3.022,0-6.74-1.832l-7.673-4.417c-1.895-1.096-3.068-3.144-3.068-5.338v-33.767
			c0-2.193,1.173-4.242,3.068-5.333l29.261-16.907c1.851-1.048,4.312-1.048,6.149,0l29.258,16.907
			c1.895,1.096,3.072,3.14,3.072,5.333v33.767c0,2.194-1.178,4.234-3.072,5.338l-29.258,16.894
			C180.286,278.937,179.226,279.216,178.141,279.216"/>
		<path fill="#699F63" d="M187.179,255.952c-12.803,0-15.486-5.876-15.486-10.807c0-0.469,0.377-0.843,0.845-0.843h3.783
			c0.423,0,0.774,0.305,0.841,0.717c0.571,3.852,2.273,5.795,10.017,5.795c6.164,0,8.788-1.394,8.788-4.664
			c0-1.885-0.743-3.285-10.322-4.224c-8.007-0.792-12.958-2.561-12.958-8.965c0-5.904,4.976-9.425,13.32-9.425
			c9.373,0,14.012,3.253,14.599,10.234c0.022,0.24-0.063,0.472-0.223,0.65c-0.161,0.168-0.384,0.271-0.62,0.271h-3.798
			c-0.394,0-0.741-0.28-0.821-0.661c-0.91-4.053-3.126-5.348-9.138-5.348c-6.73,0-7.512,2.344-7.512,4.102
			c0,2.129,0.922,2.748,10.009,3.95c8.991,1.188,13.263,2.872,13.263,9.192C201.767,252.301,196.451,255.952,187.179,255.952"/>
		<path fill="#699F63" d="M229.37,220.54c0,3.102-2.538,5.638-5.639,5.638c-3.074,0-5.64-2.506-5.64-5.638
			c0-3.192,2.627-5.641,5.64-5.641C226.775,214.899,229.37,217.348,229.37,220.54 M219.003,220.524c0,2.627,2.119,4.745,4.714,4.745
			c2.626,0,4.746-2.163,4.746-4.745c0-2.626-2.149-4.715-4.746-4.715C221.151,215.81,219.003,217.868,219.003,220.524
			 M221.612,217.375h2.181c0.746,0,2.208,0,2.208,1.673c0,1.163-0.746,1.401-1.194,1.551c0.866,0.06,0.925,0.627,1.044,1.433
			c0.061,0.506,0.15,1.373,0.328,1.671h-1.341c-0.031-0.298-0.241-1.91-0.241-1.999c-0.087-0.358-0.209-0.536-0.656-0.536h-1.104
			v2.535h-1.225V217.375z M222.807,220.15h0.985c0.804,0,0.955-0.565,0.955-0.894c0-0.866-0.599-0.866-0.926-0.866h-1.015V220.15
			L222.807,220.15z"/>
		<path fill="#333333" d="M87.534,147.104c0-1.347-0.71-2.587-1.874-3.255l-31.021-17.853c-0.525-0.309-1.113-0.47-1.707-0.494
			H52.61c-0.593,0.023-1.18,0.185-1.713,0.494l-31.021,17.853C18.72,144.517,18,145.757,18,147.104l0.068,48.073
			c0,0.669,0.348,1.29,0.936,1.619c0.576,0.345,1.288,0.345,1.861,0l18.436-10.558c1.166-0.692,1.876-1.915,1.876-3.25v-22.46
			c0-1.339,0.709-2.578,1.871-3.244l7.85-4.521c0.585-0.337,1.224-0.503,1.878-0.503c0.64,0,1.295,0.166,1.863,0.503l7.848,4.521
			c1.162,0.666,1.874,1.905,1.874,3.244v22.46c0,1.335,0.719,2.566,1.878,3.25l18.432,10.558c0.578,0.345,1.299,0.345,1.873,0
			c0.571-0.329,0.931-0.95,0.931-1.619L87.534,147.104z"/>
		<path fill="#333333" d="M236.798,81.021c-0.581-0.322-1.289-0.315-1.862,0.021c-0.571,0.336-0.924,0.952-0.924,1.616v47.607
			c0,0.468-0.251,0.902-0.655,1.136c-0.406,0.234-0.906,0.234-1.312,0l-7.771-4.477c-1.158-0.668-2.585-0.667-3.744,0.001
			l-31.033,17.909c-1.16,0.669-1.874,1.906-1.874,3.245v35.829c0,1.339,0.714,2.575,1.873,3.246l31.032,17.923
			c1.16,0.669,2.589,0.669,3.749,0l31.037-17.923c1.159-0.671,1.873-1.907,1.873-3.246V94.599c0-1.358-0.735-2.61-1.922-3.272
			L236.798,81.021z M233.919,172.136c0,0.334-0.179,0.644-0.469,0.811l-10.656,6.141c-0.289,0.167-0.646,0.167-0.935,0
			l-10.655-6.141c-0.29-0.167-0.469-0.477-0.469-0.811v-12.304c0-0.333,0.178-0.644,0.468-0.811l10.654-6.154
			c0.291-0.167,0.648-0.167,0.938,0l10.655,6.154c0.289,0.167,0.468,0.478,0.468,0.811V172.136z"/>
		<path fill="#333333" d="M340.136,159.51c1.154-0.67,1.864-1.905,1.864-3.24v-8.682c0-1.335-0.71-2.571-1.866-3.241L309.3,126.445
			c-1.16-0.675-2.592-0.675-3.755-0.006l-31.022,17.91c-1.159,0.669-1.873,1.906-1.873,3.244v35.819c0,1.348,0.722,2.59,1.893,3.256
			l30.829,17.566c1.137,0.649,2.531,0.656,3.675,0.02l18.646-10.363c0.594-0.329,0.962-0.95,0.965-1.626
			c0.004-0.676-0.355-1.301-0.94-1.637l-31.22-17.919c-0.583-0.333-0.942-0.955-0.942-1.625v-11.225
			c0-0.669,0.358-1.289,0.938-1.622l9.717-5.602c0.577-0.334,1.293-0.334,1.871,0l9.72,5.602c0.581,0.333,0.938,0.953,0.938,1.622
			v8.832c0,0.671,0.359,1.291,0.94,1.625c0.58,0.335,1.296,0.333,1.875-0.004L340.136,159.51z"/>
		<path fill="#699F63" d="M306.965,157.832c0.224-0.128,0.498-0.128,0.72,0l5.954,3.436c0.223,0.129,0.36,0.366,0.36,0.623v6.875
			c0,0.258-0.139,0.495-0.36,0.624l-5.954,3.436c-0.224,0.128-0.496,0.128-0.72,0l-5.95-3.436c-0.223-0.129-0.358-0.366-0.358-0.624
			v-6.875c0-0.257,0.137-0.494,0.358-0.623L306.965,157.832z"/>
	</g>
	<g>
		<g>
			<defs>
				<path id="SVGID_1_" d="M135.719,126.626l-30.859,17.809c-1.154,0.666-1.864,1.895-1.864,3.228v35.644
					c0,1.331,0.709,2.562,1.862,3.228l30.859,17.823c1.154,0.666,2.576,0.666,3.729,0l30.853-17.823
					c1.152-0.666,1.862-1.896,1.862-3.228v-35.646c0-1.331-0.71-2.561-1.864-3.226l-30.852-17.809c-0.577-0.333-1.22-0.5-1.863-0.5
					C136.938,126.126,136.294,126.293,135.719,126.626"/>
			</defs>
			<clipPath id="SVGID_2_">
				<use xlink:href="#SVGID_1_"  overflow="visible"/>
			</clipPath>
			
				<linearGradient id="SVGID_3_" gradientUnits="userSpaceOnUse" x1="2.0605" y1="-239.7314" x2="2.7928" y2="-239.7314" gradientTransform="matrix(-38.0649 77.6524 -77.6524 -38.0649 -18387.125 -9145.4375)">
				<stop  offset="0" style="stop-color:#41873F"/>
				<stop  offset="0.3288" style="stop-color:#418B3D"/>
				<stop  offset="0.6352" style="stop-color:#419637"/>
				<stop  offset="0.9319" style="stop-color:#3FA92D"/>
				<stop  offset="1" style="stop-color:#3FAE2A"/>
			</linearGradient>
			<polygon clip-path="url(#SVGID_2_)" fill="url(#SVGID_3_)" points="203.343,141.412 158.761,232.359 71.813,189.737 
				116.395,98.791 			"/>
		</g>
	</g>
	<g>
		<g>
			<defs>
				<path id="SVGID_4_" d="M103.762,185.57c0.293,0.385,0.664,0.714,1.096,0.964l26.472,15.29l4.407,2.533
					c0.659,0.38,1.412,0.54,2.151,0.487c0.247-0.021,0.493-0.065,0.733-0.137l32.541-59.586c-0.249-0.268-0.539-0.5-0.865-0.688
					l-20.207-11.664l-10.677-6.146c-0.305-0.175-0.633-0.302-0.969-0.385L103.762,185.57z"/>
			</defs>
			<clipPath id="SVGID_5_">
				<use xlink:href="#SVGID_4_"  overflow="visible"/>
			</clipPath>
			
				<linearGradient id="SVGID_6_" gradientUnits="userSpaceOnUse" x1="0.6934" y1="-238.2998" x2="1.4257" y2="-238.2998" gradientTransform="matrix(106.8073 -78.9149 78.9149 106.8073 18864 25676.2188)">
				<stop  offset="0" style="stop-color:#41873F"/>
				<stop  offset="0.1376" style="stop-color:#41873F"/>
				<stop  offset="0.4032" style="stop-color:#54A044"/>
				<stop  offset="0.7136" style="stop-color:#66B848"/>
				<stop  offset="0.9081" style="stop-color:#6CC04A"/>
				<stop  offset="1" style="stop-color:#6CC04A"/>
			</linearGradient>
			<polygon clip-path="url(#SVGID_5_)" fill="url(#SVGID_6_)" points="66.167,154.017 147.361,94.028 208.756,177.123 
				127.563,237.112 			"/>
		</g>
	</g>
	<g>
		<g>
			<defs>
				<path id="SVGID_7_" d="M135.719,126.626l-30.859,17.809c-1.154,0.666-1.864,1.895-1.864,3.228v35.644
					c0,1.331,0.71,2.562,1.862,3.228l30.859,17.823c1.154,0.666,2.576,0.666,3.729,0l30.853-17.823
					c1.152-0.666,1.862-1.896,1.862-3.228v-35.646c0-1.331-0.71-2.561-1.864-3.226l-30.852-17.809c-0.577-0.333-1.22-0.5-1.863-0.5
					C136.938,126.126,136.294,126.293,135.719,126.626"/>
			</defs>
			<clipPath id="SVGID_8_">
				<use xlink:href="#SVGID_7_"  overflow="visible"/>
			</clipPath>
			<g clip-path="url(#SVGID_8_)">
				<g>
					<defs>
						<polygon id="SVGID_9_" points="134.689,120.08 134.265,120.322 134.831,120.322 						"/>
					</defs>
					<clipPath id="SVGID_10_">
						<use xlink:href="#SVGID_9_"  overflow="visible"/>
					</clipPath>
					
						<linearGradient id="SVGID_11_" gradientUnits="userSpaceOnUse" x1="1.3413" y1="-237.7949" x2="2.0913" y2="-237.7949" gradientTransform="matrix(97.417 0 0 97.417 -29.5625 23285.4375)">
						<stop  offset="0" style="stop-color:#6CC04A"/>
						<stop  offset="0.0919" style="stop-color:#6CC04A"/>
						<stop  offset="0.2864" style="stop-color:#66B848"/>
						<stop  offset="0.5968" style="stop-color:#54A044"/>
						<stop  offset="0.8624" style="stop-color:#41873F"/>
						<stop  offset="1" style="stop-color:#41873F"/>
					</linearGradient>
					<rect x="134.265" y="120.08" clip-path="url(#SVGID_10_)" fill="url(#SVGID_11_)" width="0.566" height="0.242"/>
				</g>
			</g>
			<g clip-path="url(#SVGID_8_)">
				<g>
					<defs>
						<path id="SVGID_12_" d="M137.207,126.146c-0.516,0.051-1.023,0.212-1.488,0.48l-30.772,17.757l33.173,60.434
							c0.46-0.066,0.911-0.22,1.326-0.46l30.853-17.823c0.953-0.551,1.603-1.486,1.8-2.547l-33.821-57.78
							c-0.25-0.05-0.504-0.075-0.758-0.075C137.415,126.133,137.311,126.137,137.207,126.146"/>
					</defs>
					<clipPath id="SVGID_13_">
						<use xlink:href="#SVGID_12_"  overflow="visible"/>
					</clipPath>
					
						<linearGradient id="SVGID_14_" gradientUnits="userSpaceOnUse" x1="1.3496" y1="-237.9653" x2="2.0815" y2="-237.9653" gradientTransform="matrix(97.417 0 0 97.417 -29.5625 23347.25)">
						<stop  offset="0" style="stop-color:#6CC04A"/>
						<stop  offset="0.0919" style="stop-color:#6CC04A"/>
						<stop  offset="0.2864" style="stop-color:#66B848"/>
						<stop  offset="0.5968" style="stop-color:#54A044"/>
						<stop  offset="0.8624" style="stop-color:#41873F"/>
						<stop  offset="1" style="stop-color:#41873F"/>
					</linearGradient>
					<rect x="104.947" y="126.133" clip-path="url(#SVGID_13_)" fill="url(#SVGID_14_)" width="67.152" height="78.685"/>
				</g>
			</g>
			<g clip-path="url(#SVGID_8_)">
				<g>
					<defs>
						<path id="SVGID_15_" d="M135.719,126.626l-30.859,17.809c-1.154,0.666-1.864,1.895-1.864,3.228v35.644
							c0,1.331,0.71,2.562,1.862,3.228l30.859,17.823c1.154,0.666,2.576,0.666,3.729,0l30.853-17.823
							c1.152-0.666,1.862-1.896,1.862-3.228v-35.646c0-1.331-0.71-2.561-1.864-3.226l-30.852-17.809
							c-0.577-0.333-1.22-0.5-1.863-0.5C136.938,126.126,136.294,126.293,135.719,126.626"/>
					</defs>
					<clipPath id="SVGID_16_">
						<use xlink:href="#SVGID_15_"  overflow="visible"/>
					</clipPath>
					<g clip-path="url(#SVGID_16_)">
						<g>
							<defs>
								<polygon id="SVGID_17_" points="173.253,185.962 173.048,185.612 173.048,186.08 								"/>
							</defs>
							<clipPath id="SVGID_18_">
								<use xlink:href="#SVGID_17_"  overflow="visible"/>
							</clipPath>
							
								<linearGradient id="SVGID_19_" gradientUnits="userSpaceOnUse" x1="1.2485" y1="-238.041" x2="2.0819" y2="-238.041" gradientTransform="matrix(97.417 0 0 97.417 -29.5625 23375.0625)">
								<stop  offset="0" style="stop-color:#6CC04A"/>
								<stop  offset="0.0919" style="stop-color:#6CC04A"/>
								<stop  offset="0.2864" style="stop-color:#66B848"/>
								<stop  offset="0.5968" style="stop-color:#54A044"/>
								<stop  offset="0.8624" style="stop-color:#41873F"/>
								<stop  offset="1" style="stop-color:#41873F"/>
							</linearGradient>
							<rect x="173.048" y="185.612" clip-path="url(#SVGID_18_)" fill="url(#SVGID_19_)" width="0.205" height="0.469"/>
						</g>
					</g>
					<g clip-path="url(#SVGID_16_)">
						<g>
							<defs>
								<path id="SVGID_20_" d="M135.719,126.626l-30.859,17.809c-1.154,0.666-1.864,1.895-1.864,3.228v35.644
									c0,1.331,0.71,2.562,1.862,3.228l30.859,17.823c1.154,0.666,2.576,0.666,3.729,0l30.853-17.823
									c1.152-0.666,1.862-1.896,1.862-3.228v-35.646c0-1.331-0.71-2.561-1.864-3.226l-30.852-17.809
									c-0.577-0.333-1.22-0.5-1.863-0.5C136.938,126.126,136.294,126.293,135.719,126.626"/>
							</defs>
							<clipPath id="SVGID_21_">
								<use xlink:href="#SVGID_20_"  overflow="visible"/>
							</clipPath>
							<g clip-path="url(#SVGID_21_)">
								<g>
									<defs>
										<path id="SVGID_22_" d="M170.376,186.534l-30.892,17.823c-0.425,0.244-0.888,0.398-1.363,0.463l0.615,1.12l34.312-19.86
											v-0.468l-0.848-1.45C171.946,185.149,171.275,186.014,170.376,186.534"/>
									</defs>
									<clipPath id="SVGID_23_">
										<use xlink:href="#SVGID_22_"  overflow="visible"/>
									</clipPath>
									
										<linearGradient id="SVGID_24_" gradientUnits="userSpaceOnUse" x1="1.3491" y1="-238.0767" x2="2.0817" y2="-238.0767" gradientTransform="matrix(97.417 0 0 97.417 -29.5625 23387.6875)">
										<stop  offset="0" style="stop-color:#6CC04A"/>
										<stop  offset="0.0919" style="stop-color:#6CC04A"/>
										<stop  offset="0.2864" style="stop-color:#66B848"/>
										<stop  offset="0.5968" style="stop-color:#54A044"/>
										<stop  offset="0.8624" style="stop-color:#41873F"/>
										<stop  offset="1" style="stop-color:#41873F"/>
									</linearGradient>
									<rect x="138.121" y="184.163" clip-path="url(#SVGID_23_)" fill="url(#SVGID_24_)" width="34.927" height="21.777"/>
								</g>
							</g>
							<g clip-path="url(#SVGID_21_)">
								<g>
									<defs>
										<path id="SVGID_25_" d="M135.719,126.626l-30.859,17.809c-1.154,0.666-1.864,1.895-1.864,3.228v35.644
											c0,1.331,0.71,2.562,1.862,3.228l30.859,17.823c1.154,0.666,2.576,0.666,3.729,0l30.853-17.823
											c1.152-0.666,1.862-1.896,1.862-3.228v-35.646c0-1.331-0.71-2.561-1.864-3.226l-30.852-17.809
											c-0.577-0.333-1.22-0.5-1.863-0.5C136.938,126.126,136.294,126.293,135.719,126.626"/>
									</defs>
									<clipPath id="SVGID_26_">
										<use xlink:href="#SVGID_25_"  overflow="visible"/>
									</clipPath>
									<g clip-path="url(#SVGID_26_)">
										<g>
											<defs>
												<path id="SVGID_27_" d="M170.376,186.534l-30.892,17.823c-0.425,0.244-0.888,0.398-1.363,0.463l0.615,1.12l34.312-19.86
													v-0.468l-0.848-1.45C171.946,185.149,171.275,186.014,170.376,186.534"/>
											</defs>
											<clipPath id="SVGID_28_">
												<use xlink:href="#SVGID_27_"  overflow="visible"/>
											</clipPath>
											
												<linearGradient id="SVGID_29_" gradientUnits="userSpaceOnUse" x1="1.7163" y1="-239.3838" x2="2.4482" y2="-239.3838" gradientTransform="matrix(-60.0806 122.5644 -122.5644 -60.0806 -29053.25 -14454.5313)">
												<stop  offset="0" style="stop-color:#41873F"/>
												<stop  offset="0.3288" style="stop-color:#418B3D"/>
												<stop  offset="0.6352" style="stop-color:#419637"/>
												<stop  offset="0.9319" style="stop-color:#3FA92D"/>
												<stop  offset="1" style="stop-color:#3FAE2A"/>
											</linearGradient>
											<polygon clip-path="url(#SVGID_28_)" fill="url(#SVGID_29_)" points="181.656,188.382 166.281,219.745 129.514,201.723 
												144.888,170.358 											"/>
										</g>
									</g>
								</g>
							</g>
						</g>
					</g>
				</g>
			</g>
		</g>
	</g>
</g>
</svg>
