<?xml version="1.0" encoding="utf-8"?>
<!-- Generator: Adobe Illustrator 16.0.3, SVG Export Plug-In . SVG Version: 6.00 Build 0)  -->
<!DOCTYPE svg PUBLIC "-//W3C//DTD SVG 1.1//EN" "http://www.w3.org/Graphics/SVG/1.1/DTD/svg11.dtd">
<svg version="1.1"
	 id="svg3476" sodipodi:docname="CSS3.svg" inkscape:version="0.91 r13725" xmlns:inkscape="http://www.inkscape.org/namespaces/inkscape" xmlns:sodipodi="http://sodipodi.sourceforge.net/DTD/sodipodi-0.dtd" xmlns:svg="http://www.w3.org/2000/svg" xmlns:rdf="http://www.w3.org/1999/02/22-rdf-syntax-ns#" xmlns:cc="http://creativecommons.org/ns#" xmlns:dc="http://purl.org/dc/elements/1.1/"
	 xmlns="http://www.w3.org/2000/svg" xmlns:xlink="http://www.w3.org/1999/xlink" x="0px" y="0px" width="360px" height="360px"
	 viewBox="0 0 360 360" enable-background="new 0 0 360 360" xml:space="preserve">
<sodipodi:namedview  id="base" pagecolor="#ffffff" bordercolor="#666666" borderopacity="1.0" inkscape:zoom="0.35" inkscape:cx="181.367" inkscape:cy="256" showgrid="false" fit-margin-top="0" fit-margin-left="0" inkscape:window-maximized="1" inkscape:window-y="27" inkscape:window-x="0" inkscape:window-height="704" inkscape:window-width="1366" fit-margin-right="0" inkscape:current-layer="layer1" inkscape:document-units="px" inkscape:pageshadow="2" inkscape:pageopacity="0.0" fit-margin-bottom="0">
	</sodipodi:namedview>
<g id="layer1" transform="translate(-193.633,-276.3622)" inkscape:label="Calque 1" inkscape:groupmode="layer">
	<g id="g3013" transform="translate(119,276.3622)">
		<polygon id="polygon2989" fill="#264DE4" points="369.404,81.673 348.493,315.94 254.492,342 160.751,315.978 139.861,81.673 		
			"/>
		<polygon id="polygon2991" fill="#2965F1" points="330.59,301.023 348.46,100.832 254.633,100.832 254.633,322.082 		"/>
		<polygon id="polygon2993" fill="#EBEBEB" points="187.751,187.731 190.327,216.468 254.633,216.468 254.633,187.731 		"/>
		<polygon id="polygon2995" fill="#EBEBEB" points="254.633,129.568 254.534,129.568 182.575,129.568 185.188,158.305 
			254.633,158.305 		"/>
		<polygon id="polygon2997" fill="#EBEBEB" points="254.633,292.261 254.633,262.363 254.507,262.395 222.503,253.755 
			220.457,230.836 204.906,230.836 191.61,230.836 195.637,275.957 254.5,292.297 		"/>
		<path id="path2999" inkscape:connector-curvature="0" d="M193.883,18h34.805v14.555h-20.25v14.555h20.25v14.555h-34.805V18z"/>
		<path id="path3001" inkscape:connector-curvature="0" d="M235.648,18h34.805v12.656h-20.25v2.531h20.25v29.109h-34.805V49.008
			h20.251v-2.531h-20.251V18z"/>
		<path id="path3003" inkscape:connector-curvature="0" d="M277.414,18h34.805v12.656h-20.25v2.531h20.25v29.109h-34.805V49.008
			h20.25v-2.531h-20.25V18z"/>
		<polygon id="polygon3005" fill="#FFFFFF" points="289.919,216.468 286.583,253.736 254.534,262.387 254.534,292.283 
			313.444,275.957 313.878,271.101 320.629,195.448 321.331,187.731 326.518,129.568 254.534,129.568 254.534,158.305 
			295.025,158.305 292.411,187.731 254.534,187.731 254.534,216.468 		"/>
	</g>
</g>
<rect x="0" y="0" fill="none" width="360" height="360"/>
</svg>
