<?xml version="1.0" encoding="utf-8"?>
<!-- Generator: Adobe Illustrator 16.0.0, SVG Export Plug-In . SVG Version: 6.00 Build 0)  -->
<!DOCTYPE svg PUBLIC "-//W3C//DTD SVG 1.1//EN" "http://www.w3.org/Graphics/SVG/1.1/DTD/svg11.dtd">
<svg version="1.1"
	 id="svg3476" xmlns:inkscape="http://www.inkscape.org/namespaces/inkscape" xmlns:sodipodi="http://sodipodi.sourceforge.net/DTD/sodipodi-0.dtd" xmlns:svg="http://www.w3.org/2000/svg" xmlns:rdf="http://www.w3.org/1999/02/22-rdf-syntax-ns#" xmlns:cc="http://creativecommons.org/ns#" xmlns:dc="http://purl.org/dc/elements/1.1/" inkscape:version="0.91 r13725" sodipodi:docname="CSS3.svg"
	 xmlns="http://www.w3.org/2000/svg" xmlns:xlink="http://www.w3.org/1999/xlink" x="0px" y="0px" width="360px" height="360px"
	 viewBox="0 0 360 360" enable-background="new 0 0 360 360" xml:space="preserve">
<sodipodi:namedview  fit-margin-left="0" fit-margin-top="0" showgrid="false" inkscape:cy="256" inkscape:cx="181.367" inkscape:zoom="0.35" borderopacity="1.0" bordercolor="#666666" pagecolor="#ffffff" id="base" fit-margin-bottom="0" inkscape:pageopacity="0.0" inkscape:pageshadow="2" inkscape:document-units="px" inkscape:window-x="0" inkscape:current-layer="layer1" inkscape:window-y="27" inkscape:window-maximized="1" inkscape:window-width="1366" inkscape:window-height="704" fit-margin-right="0">
	</sodipodi:namedview>
<rect fill="none" width="360" height="360"/>
<g>
	<path fill-rule="evenodd" clip-rule="evenodd" fill="#181616" d="M180,22C90.542,22,18,94.526,18,184
		c0,71.575,46.417,132.3,110.786,153.722c8.095,1.499,11.069-3.516,11.069-7.794c0-3.861-0.149-16.625-0.22-30.162
		c-45.068,9.801-54.578-19.113-54.578-19.113c-7.37-18.724-17.987-23.704-17.987-23.704c-14.7-10.055,1.108-9.848,1.108-9.848
		c16.267,1.143,24.833,16.696,24.833,16.696c14.448,24.765,37.898,17.604,47.143,13.465c1.454-10.469,5.651-17.617,10.286-21.663
		c-35.983-4.095-73.81-17.987-73.81-80.061c0-17.686,6.329-32.138,16.693-43.483c-1.682-4.082-7.228-20.558,1.569-42.873
		c0,0,13.605-4.352,44.56,16.608c12.924-3.59,26.782-5.39,40.549-5.453c13.767,0.063,27.636,1.862,40.583,5.453
		c30.922-20.959,44.505-16.608,44.505-16.608c8.818,22.315,3.272,38.791,1.591,42.873c10.387,11.345,16.672,25.797,16.672,43.483
		c0,62.223-37.897,75.922-73.973,79.933c5.812,5.027,10.988,14.886,10.988,29.999c0,21.677-0.187,39.122-0.187,44.458
		c0,4.313,2.916,9.363,11.126,7.773C295.641,316.255,342,255.552,342,184C342,94.526,269.469,22,180,22z"/>
	<path fill="#181616" d="M79.358,254.596c-0.356,0.807-1.624,1.048-2.777,0.495c-1.176-0.529-1.834-1.627-1.454-2.434
		c0.349-0.828,1.617-1.059,2.79-0.506C79.094,252.681,79.764,253.789,79.358,254.596L79.358,254.596z M77.364,253.118"/>
	<path fill="#181616" d="M85.921,261.915c-0.773,0.716-2.285,0.383-3.309-0.749c-1.061-1.129-1.257-2.641-0.474-3.366
		c0.796-0.715,2.261-0.38,3.322,0.749C86.521,259.691,86.728,261.189,85.921,261.915L85.921,261.915z M84.375,260.257"/>
	<path fill="#181616" d="M92.308,271.244c-0.993,0.692-2.617,0.045-3.621-1.396c-0.993-1.44-0.993-3.17,0.024-3.861
		c1.003-0.691,2.604-0.068,3.621,1.36C93.322,268.811,93.322,270.54,92.308,271.244L92.308,271.244z M92.308,271.244"/>
	<path fill="#181616" d="M101.058,280.259c-0.888,0.98-2.779,0.716-4.163-0.62c-1.417-1.305-1.81-3.16-0.922-4.14
		c0.901-0.979,2.803-0.705,4.197,0.621C101.577,277.425,102.003,279.29,101.058,280.259L101.058,280.259z M101.058,280.259"/>
	<path fill="#181616" d="M113.13,285.493c-0.393,1.269-2.214,1.845-4.048,1.305c-1.833-0.555-3.031-2.04-2.662-3.321
		c0.38-1.278,2.211-1.879,4.058-1.303C112.31,282.727,113.51,284.202,113.13,285.493L113.13,285.493z M113.13,285.493"/>
	<path fill="#181616" d="M126.389,286.463c0.044,1.336-1.512,2.444-3.438,2.468c-1.936,0.045-3.505-1.037-3.526-2.353
		c0-1.35,1.522-2.444,3.458-2.479C124.809,284.063,126.389,285.137,126.389,286.463L126.389,286.463z M126.389,286.463"/>
	<path fill="#181616" d="M138.725,284.364c0.23,1.302-1.108,2.641-3.021,2.997c-1.881,0.346-3.621-0.461-3.862-1.753
		c-0.233-1.336,1.129-2.675,3.008-3.021C136.766,282.256,138.481,283.039,138.725,284.364L138.725,284.364z M138.725,284.364"/>
</g>
</svg>
