<?xml version="1.0" encoding="utf-8"?>
<!-- Generator: Adobe Illustrator 16.0.3, SVG Export Plug-In . SVG Version: 6.00 Build 0)  -->
<!DOCTYPE svg PUBLIC "-//W3C//DTD SVG 1.1//EN" "http://www.w3.org/Graphics/SVG/1.1/DTD/svg11.dtd">
<svg version="1.1" id="Layer_1" xmlns="http://www.w3.org/2000/svg" xmlns:xlink="http://www.w3.org/1999/xlink" x="0px" y="0px"
	 width="360px" height="360px" viewBox="0 0 360 360" enable-background="new 0 0 360 360" xml:space="preserve">
<rect fill="none" width="360" height="360"/>
<g>
	<rect x="18" y="18" fill="#F7DF1E" width="324" height="324"/>
	<path d="M235.646,271.127c6.526,10.655,15.017,18.488,30.034,18.488c12.615,0,20.675-6.305,20.675-15.018
		c0-10.439-8.281-14.138-22.166-20.211l-7.611-3.266c-21.971-9.36-36.565-21.087-36.565-45.875
		c0-22.834,17.398-40.217,44.588-40.217c19.358,0,33.275,6.738,43.303,24.377l-23.708,15.223
		c-5.22-9.359-10.851-13.047-19.595-13.047c-8.917,0-14.569,5.657-14.569,13.047c0,9.134,5.657,12.832,18.72,18.488l7.611,3.261
		c25.869,11.094,40.475,22.402,40.475,47.828c0,27.412-21.533,42.43-50.452,42.43c-28.274,0-46.542-13.475-55.48-31.136
		L235.646,271.127z M128.094,273.765c4.783,8.485,9.133,15.66,19.594,15.66c10.002,0,16.313-3.914,16.313-19.131V166.767h30.445
		v103.938c0,31.525-18.483,45.873-45.462,45.873c-24.377,0-38.494-12.614-45.674-27.809L128.094,273.765z"/>
</g>
</svg>
