<?xml version="1.0" encoding="utf-8"?>
<!-- Generator: Adobe Illustrator 16.0.3, SVG Export Plug-In . SVG Version: 6.00 Build 0)  -->
<!DOCTYPE svg PUBLIC "-//W3C//DTD SVG 1.1//EN" "http://www.w3.org/Graphics/SVG/1.1/DTD/svg11.dtd">
<svg version="1.1" id="Layer_1" xmlns="http://www.w3.org/2000/svg" xmlns:xlink="http://www.w3.org/1999/xlink" x="0px" y="0px"
	 width="360px" height="360px" viewBox="0 0 360 360" enable-background="new 0 0 360 360" xml:space="preserve">
<rect fill="none" width="360" height="360"/>
<g>
	<g>
		<g>
			<path fill="#0769AD" d="M142.792,212.137c-0.025,0.711-0.074,1.445-0.166,2.226l2.897-5.254l-0.319-1.712l2.91-0.445l1.059,7.279
				l1.338-4.563c0.106-0.448,0.163-0.78,0.174-1.114c0.011-0.334-0.022-0.691-0.139-1.18l3.048-0.58
				c0.111,0.623,0.182,1.159,0.163,1.714c-0.026,0.734-0.21,1.535-0.721,2.737l-2.454,6.591h-3.628l-0.761-4.92l-2.842,4.92h-3.516
				c0.138-4.586-0.028-7.457-0.347-10.462l3.021-0.467C142.737,208.576,142.857,210.245,142.792,212.137z"/>
			<path fill="#0769AD" d="M161.684,209.622c-1.405,0.757-1.928,1.046-3.201,1.825l-1.357,6.389h-3.137l2.216-10.573l2.773-0.467
				l-0.118,1.469c1.068-0.623,1.93-1.068,2.878-1.469L161.684,209.622z"/>
			<path fill="#0769AD" d="M163.545,207.239l3.244-0.445l-2.345,11.042h-3.136L163.545,207.239z M164.559,202.454l3.244-0.445
				l-0.718,3.337l-3.221,0.448L164.559,202.454z"/>
			<path fill="#0769AD" d="M172.568,209.511l-1.146,5.408c-0.025,0.111-0.052,0.221-0.054,0.289
				c-0.005,0.156,0.082,0.223,0.305,0.223c0.534,0,1.141-0.223,1.707-0.445l0.546,2.18c-0.906,0.489-2.211,0.892-3.479,0.892
				c-1.579,0-2.4-0.758-2.354-2.049c0.004-0.154,0.034-0.312,0.061-0.466l1.279-6.033h-1.602l0.533-2.515h1.603l0.536-2.605
				l3.242-0.443l-0.64,3.049h2.582l-0.711,2.515h-2.405V209.511z"/>
			<path fill="#0769AD" d="M176.305,210.868c0.531-2.494,1.701-4.095,5.128-4.095c2.046,0,3.572,0.889,3.51,2.715
				c-0.073,2.114-1.198,3.094-3.896,3.894c-1.329,0.4-1.351,0.4-2.294,0.646l-0.16,0.757c-0.081,0.402-0.049,0.757,0.53,0.757
				c1.135,0,2.801-0.557,4.293-1.2l0.521,2.226c-1.343,0.823-3.434,1.491-5.348,1.491c-2.249,0-3.171-0.979-3.107-2.828
				c0.014-0.4,0.074-0.846,0.179-1.312L176.305,210.868z M182.015,209.822c0.015-0.378-0.312-0.623-0.891-0.623
				c-1.135,0-1.492,0.646-1.679,1.537l-0.159,0.755c0.539-0.135,0.784-0.178,1.437-0.38
				C181.578,210.868,181.992,210.468,182.015,209.822z"/>
			<path fill="#0769AD" d="M193.039,202.565l3.243-0.445l-3.311,15.714h-3.136L193.039,202.565z"/>
			<path fill="#0769AD" d="M196.688,210.868c0.531-2.494,1.701-4.095,5.128-4.095c2.047,0,3.573,0.889,3.51,2.715
				c-0.072,2.114-1.198,3.094-3.896,3.894c-1.327,0.4-1.349,0.4-2.294,0.646l-0.16,0.757c-0.08,0.402-0.049,0.757,0.53,0.757
				c1.135,0,2.802-0.557,4.293-1.2l0.522,2.226c-1.344,0.823-3.435,1.491-5.349,1.491c-2.249,0-3.172-0.979-3.106-2.828
				c0.015-0.4,0.073-0.846,0.178-1.312L196.688,210.868z M202.398,209.822c0.014-0.378-0.313-0.623-0.89-0.623
				c-1.137,0-1.494,0.646-1.68,1.537l-0.16,0.755c0.539-0.135,0.784-0.178,1.438-0.38
				C201.962,210.868,202.377,210.468,202.398,209.822z"/>
			<path fill="#0769AD" d="M205.585,217.345l0.682-2.314c0.813,0.289,1.739,0.558,2.919,0.558c1.046,0,1.123-0.314,1.23-0.826
				c0.106-0.488-0.197-0.757-1.398-1.402c-2.226-1.202-2.288-2.003-1.941-3.628c0.505-2.337,1.216-2.96,4.222-2.96
				c1.022,0,2.328,0.223,3.207,0.512l-0.595,2.359c-0.794-0.223-1.965-0.4-2.723-0.4c-0.935,0-1.073,0.111-1.205,0.689
				c-0.105,0.511,0.001,0.622,1.028,1.18c2.446,1.337,2.808,1.803,2.438,3.517c-0.532,2.448-1.277,3.429-4.526,3.429
				C207.917,218.059,206.527,217.768,205.585,217.345z"/>
			<path fill="#0769AD" d="M214.576,217.345l0.682-2.314c0.812,0.289,1.738,0.558,2.918,0.558c1.045,0,1.123-0.314,1.231-0.826
				c0.104-0.488-0.198-0.757-1.398-1.402c-2.227-1.202-2.289-2.003-1.941-3.628c0.503-2.337,1.216-2.96,4.219-2.96
				c1.024,0,2.328,0.223,3.21,0.512l-0.595,2.359c-0.795-0.223-1.966-0.4-2.724-0.4c-0.935,0-1.073,0.111-1.205,0.689
				c-0.104,0.511,0.002,0.622,1.028,1.18c2.446,1.337,2.809,1.803,2.438,3.517c-0.531,2.448-1.276,3.429-4.527,3.429
				C216.909,218.059,215.52,217.768,214.576,217.345z"/>
			<path fill="#0769AD" d="M223.174,220.262l1.799-2.426h-1.18l0.774-3.694h3.137l-0.849,3.963l-2.579,3.071L223.174,220.262z"/>
			<path fill="#0769AD" d="M240.327,217.836l-0.058-0.935c-0.8,0.646-1.93,1.157-3.489,1.157c-2.357,0-2.887-1.426-2.381-3.852
				l0.614-2.916c0.536-2.581,1.271-4.518,5.833-4.518c0.335,0,1.021,0.043,1.31,0.111l0.906-4.319l3.22-0.443l-3.308,15.714H240.327
				L240.327,217.836z M237.46,214.585c-0.132,0.579,0.015,0.846,0.57,0.846c1.111,0,1.933-0.58,2.552-1.114l1.014-4.828
				c-0.354-0.068-0.774-0.089-1.22-0.089c-1.625,0-1.989,0.868-2.226,1.914L237.46,214.585z"/>
			<path fill="#0769AD" d="M245.896,214.431c0.009-0.246,0.041-0.515,0.094-0.758l0.533-2.517c0.586-2.782,2.001-4.383,5.783-4.383
				c2.916,0,4.17,1.669,4.102,3.605c-0.009,0.243-0.04,0.512-0.095,0.777l-0.53,2.517c-0.56,2.605-1.868,4.386-5.807,4.386
				C247.217,218.059,245.828,216.41,245.896,214.431z M253.262,210.622c0.027-0.8-0.446-1.223-1.471-1.223
				c-1.18,0-1.892,0.6-2.105,1.669l-0.562,2.693c-0.027,0.154-0.056,0.312-0.06,0.443c-0.027,0.78,0.446,1.226,1.471,1.226
				c1.201,0,1.889-0.603,2.106-1.671l0.56-2.694C253.23,210.913,253.258,210.757,253.262,210.622z"/>
			<path fill="#0769AD" d="M275.566,210.468c0.027-0.134,0.054-0.245,0.057-0.334c0.008-0.223-0.101-0.312-0.413-0.312
				c-0.578,0-1.956,0.577-2.862,1.043l-1.467,6.969h-3.116l1.547-7.368c0.026-0.135,0.055-0.243,0.058-0.335
				c0.008-0.22-0.101-0.311-0.413-0.311c-0.578,0-1.979,0.579-2.839,1.022l-1.469,6.991h-3.137l2.216-10.574l2.775-0.466l-0.064,1.2
				c1.721-0.8,3.069-1.223,4.315-1.223c1.067,0,1.607,0.466,1.825,1.269c1.679-0.957,3.182-1.269,4.429-1.269
				c1.446,0,1.951,0.825,1.903,2.203c-0.014,0.379-0.051,0.802-0.154,1.248l-1.602,7.611h-3.139L275.566,210.468z"/>
			<path fill="#0769AD" d="M279.965,214.431c0.009-0.246,0.041-0.515,0.095-0.758l0.533-2.517c0.585-2.782,2-4.383,5.783-4.383
				c2.915,0,4.169,1.669,4.103,3.605c-0.01,0.243-0.041,0.512-0.095,0.777l-0.532,2.517c-0.559,2.605-1.866,4.386-5.806,4.386
				C281.286,218.059,279.896,216.41,279.965,214.431z M287.331,210.622c0.028-0.8-0.446-1.223-1.47-1.223
				c-1.182,0-1.892,0.6-2.106,1.669l-0.561,2.693c-0.028,0.154-0.056,0.312-0.061,0.443c-0.027,0.78,0.447,1.226,1.471,1.226
				c1.202,0,1.89-0.603,2.105-1.671l0.562-2.694C287.299,210.913,287.326,210.757,287.331,210.622z"/>
			<path fill="#0769AD" d="M298.805,209.622c-1.406,0.757-1.928,1.046-3.201,1.825l-1.358,6.389h-3.138l2.217-10.573l2.775-0.467
				l-0.12,1.469c1.068-0.623,1.931-1.068,2.88-1.469L298.805,209.622z"/>
			<path fill="#0769AD" d="M299.519,210.868c0.53-2.494,1.7-4.095,5.127-4.095c2.048,0,3.574,0.889,3.511,2.715
				c-0.073,2.114-1.197,3.094-3.898,3.894c-1.326,0.4-1.348,0.4-2.291,0.646l-0.161,0.757c-0.08,0.402-0.049,0.757,0.529,0.757
				c1.137,0,2.802-0.557,4.293-1.2l0.523,2.226c-1.343,0.823-3.436,1.491-5.35,1.491c-2.248,0-3.171-0.979-3.106-2.828
				c0.015-0.4,0.075-0.846,0.18-1.312L299.519,210.868z M305.229,209.822c0.014-0.378-0.311-0.623-0.89-0.623
				c-1.137,0-1.492,0.646-1.679,1.537l-0.159,0.755c0.539-0.135,0.784-0.178,1.436-0.38
				C304.793,210.868,305.206,210.468,305.229,209.822z"/>
			<path fill="#0769AD" d="M309.439,214.14h3.137l-0.773,3.694h-3.138L309.439,214.14z"/>
		</g>
	</g>
	<path fill="#0769AD" d="M21.806,154.473c-5.304,7.621-4.649,17.534-0.59,25.631c0.091,0.199,0.196,0.385,0.294,0.576
		c0.057,0.123,0.121,0.248,0.192,0.369c0.03,0.068,0.078,0.14,0.118,0.206c0.065,0.132,0.135,0.255,0.203,0.382
		c0.131,0.219,0.261,0.441,0.391,0.659c0.073,0.121,0.145,0.243,0.226,0.364c0.138,0.236,0.299,0.466,0.443,0.702
		c0.065,0.1,0.126,0.198,0.196,0.296c0.208,0.315,0.417,0.629,0.647,0.938c0,0.009,0.008,0.016,0.017,0.021
		c0.036,0.053,0.074,0.103,0.109,0.15c0.195,0.268,0.391,0.529,0.596,0.786c0.07,0.096,0.147,0.191,0.217,0.284
		c0.187,0.228,0.37,0.452,0.552,0.678c0.07,0.079,0.14,0.166,0.213,0.248c0.243,0.293,0.5,0.584,0.76,0.87
		c0,0.005,0.009,0.012,0.013,0.019c0.008,0.011,0.018,0.022,0.035,0.031c0.252,0.277,0.509,0.548,0.77,0.818
		c0.083,0.082,0.166,0.162,0.256,0.251c0.199,0.202,0.399,0.406,0.612,0.606c0.087,0.082,0.173,0.161,0.255,0.243
		c0.279,0.26,0.557,0.521,0.848,0.771c0.005,0.005,0.01,0.007,0.013,0.012c0.047,0.041,0.1,0.082,0.144,0.123
		c0.256,0.218,0.512,0.437,0.773,0.652c0.104,0.086,0.208,0.168,0.313,0.252c0.217,0.173,0.434,0.337,0.651,0.503
		c0.113,0.084,0.226,0.17,0.344,0.261c0.234,0.176,0.478,0.346,0.717,0.517c0.087,0.063,0.173,0.125,0.265,0.184
		c0.022,0.021,0.048,0.039,0.07,0.055c0.239,0.157,0.464,0.31,0.7,0.464c0.104,0.066,0.204,0.132,0.304,0.198
		c0.364,0.233,0.729,0.457,1.09,0.675c0.104,0.055,0.209,0.111,0.309,0.171c0.269,0.156,0.543,0.312,0.822,0.459
		c0.151,0.084,0.304,0.157,0.461,0.236c0.188,0.103,0.383,0.205,0.582,0.307c0.048,0.021,0.096,0.039,0.139,0.062
		c0.083,0.036,0.161,0.077,0.239,0.118c0.305,0.15,0.617,0.291,0.939,0.435c0.061,0.027,0.125,0.055,0.191,0.089
		c0.361,0.154,0.722,0.305,1.091,0.45c0.087,0.033,0.173,0.072,0.265,0.102c0.335,0.13,0.682,0.257,1.025,0.382
		c0.044,0.019,0.083,0.032,0.126,0.046c0.381,0.132,0.76,0.255,1.146,0.375c0.091,0.025,0.183,0.057,0.278,0.082
		c0.396,0.12,0.777,0.259,1.181,0.334c25.646,4.677,33.097-15.411,33.097-15.411c-6.26,8.147-17.369,10.301-27.891,7.907
		c-0.391-0.089-0.777-0.214-1.173-0.33c-0.092-0.027-0.196-0.057-0.288-0.089c-0.381-0.115-0.76-0.241-1.129-0.366
		c-0.052-0.018-0.108-0.036-0.161-0.059c-0.334-0.113-0.665-0.241-0.994-0.368c-0.092-0.039-0.187-0.073-0.278-0.107
		c-0.364-0.143-0.726-0.298-1.077-0.452c-0.078-0.027-0.145-0.059-0.218-0.091c-0.308-0.141-0.604-0.279-0.903-0.423
		c-0.091-0.039-0.173-0.082-0.266-0.127c-0.235-0.111-0.469-0.236-0.7-0.357c-0.16-0.082-0.317-0.159-0.469-0.243
		c-0.283-0.152-0.564-0.313-0.848-0.468c-0.087-0.062-0.182-0.112-0.283-0.164c-0.364-0.219-0.734-0.441-1.094-0.673
		c-0.104-0.063-0.2-0.13-0.295-0.198c-0.266-0.166-0.526-0.343-0.782-0.516c-0.083-0.057-0.165-0.121-0.251-0.18
		c-0.249-0.175-0.492-0.351-0.738-0.532c-0.104-0.082-0.213-0.163-0.326-0.245c-0.222-0.173-0.444-0.341-0.665-0.521
		c-0.097-0.08-0.195-0.157-0.291-0.236c-0.287-0.23-0.557-0.46-0.83-0.698c-0.026-0.029-0.065-0.053-0.096-0.077
		c-0.291-0.26-0.582-0.525-0.87-0.791c-0.087-0.085-0.16-0.159-0.247-0.239c-0.208-0.202-0.417-0.402-0.622-0.609
		c-0.087-0.086-0.165-0.167-0.248-0.249c-0.261-0.263-0.517-0.534-0.77-0.812c-0.012-0.012-0.025-0.025-0.039-0.04
		c-0.266-0.291-0.522-0.586-0.777-0.887c-0.07-0.081-0.136-0.163-0.204-0.241c-0.187-0.231-0.374-0.463-0.564-0.692
		c-0.061-0.09-0.13-0.174-0.2-0.261c-0.221-0.284-0.434-0.568-0.647-0.862c-5.839-7.967-7.946-18.96-3.275-27.981"/>
	<path fill="#0769AD" d="M38.271,148.048c-3.846,5.518-3.633,12.906-0.639,18.745c0.494,0.978,1.061,1.927,1.695,2.828
		c0.573,0.825,1.208,1.803,1.976,2.465c0.269,0.304,0.56,0.599,0.86,0.898c0.073,0.073,0.148,0.146,0.226,0.223
		c0.288,0.275,0.579,0.548,0.877,0.813c0.01,0.011,0.026,0.021,0.035,0.033c0.003,0.002,0.008,0.005,0.008,0.005
		c0.334,0.295,0.674,0.577,1.025,0.85c0.083,0.059,0.157,0.123,0.239,0.183c0.349,0.271,0.704,0.532,1.065,0.788
		c0.013,0.004,0.022,0.014,0.04,0.021c0.156,0.112,0.321,0.217,0.491,0.325c0.073,0.047,0.151,0.104,0.226,0.15
		c0.265,0.171,0.526,0.332,0.795,0.491c0.04,0.021,0.078,0.041,0.118,0.061c0.226,0.137,0.464,0.271,0.704,0.394
		c0.083,0.05,0.166,0.088,0.247,0.134c0.165,0.084,0.331,0.171,0.491,0.255c0.022,0.011,0.053,0.025,0.079,0.034
		c0.339,0.168,0.682,0.322,1.021,0.478c0.083,0.032,0.152,0.059,0.23,0.092c0.278,0.121,0.56,0.238,0.839,0.344
		c0.125,0.041,0.243,0.09,0.361,0.132c0.256,0.091,0.517,0.181,0.774,0.266c0.126,0.041,0.238,0.075,0.352,0.113
		c0.364,0.115,0.734,0.262,1.121,0.324c19.794,3.282,24.372-11.965,24.372-11.965c-4.123,5.94-12.104,8.766-20.618,6.557
		c-0.383-0.098-0.755-0.207-1.121-0.325c-0.118-0.032-0.221-0.068-0.334-0.107c-0.265-0.084-0.531-0.173-0.787-0.268
		c-0.118-0.043-0.239-0.087-0.356-0.133c-0.283-0.11-0.564-0.219-0.84-0.341c-0.082-0.033-0.16-0.06-0.226-0.095
		c-0.351-0.154-0.7-0.315-1.038-0.479c-0.173-0.089-0.343-0.175-0.517-0.266c-0.104-0.052-0.204-0.103-0.296-0.15
		c-0.23-0.12-0.444-0.245-0.66-0.375c-0.051-0.027-0.104-0.055-0.156-0.084c-0.266-0.162-0.539-0.321-0.791-0.489
		c-0.087-0.049-0.16-0.107-0.243-0.159c-0.173-0.109-0.343-0.221-0.521-0.341c-0.361-0.25-0.712-0.514-1.064-0.78
		c-0.082-0.067-0.161-0.127-0.24-0.193c-3.736-2.94-6.69-6.963-8.089-11.518c-1.477-4.732-1.151-10.042,1.395-14.351"/>
	<path fill="#0769AD" d="M52.113,143.251c-2.267,3.327-2.484,7.461-0.922,11.131c1.66,3.902,5.053,6.962,9.007,8.411
		c0.16,0.063,0.321,0.116,0.486,0.171c0.074,0.021,0.143,0.045,0.221,0.069c0.23,0.073,0.461,0.159,0.7,0.205
		c10.935,2.112,13.898-5.61,14.693-6.747c-2.603,3.742-6.968,4.638-12.325,3.337c-0.421-0.102-0.882-0.253-1.29-0.401
		c-0.521-0.186-1.038-0.399-1.542-0.637c-0.942-0.458-1.855-1.01-2.698-1.649c-4.797-3.636-7.767-10.572-4.64-16.223"/>
	<path fill="#333333" d="M305.493,158.84l0.43,1.812c0.121,0.52-0.208,0.939-0.739,0.939"/>
	<path fill="#333333" d="M270.998,155.728c-0.108,0.502-0.239,1.137-0.324,1.555l-3.784,17.71l3.979-18.657L270.998,155.728z"/>
	<polygon fill="#333333" points="157.633,167.58 155.543,174.981 157.633,167.582 	"/>
	<path fill="#333333" d="M305.924,160.651l-1.091-4.612c-0.86-3.337-3.297-4.915-8.774-4.915h-23.04
		c-0.53,0-1.061,0.241-1.168,0.759l-8.741,41.453c-0.115,0.524-0.149,0.897-0.088,1.157c0.062,0.266,1.087,0.216,1.611,0.216h7.981
		c0.534,0,1.504,0.041,1.784-0.073c0.296-0.12,0.427-0.911,0.534-1.435l2.821-14.533l3.445-16.123
		c0.112-0.516,0.635-0.94,1.164-0.94l22.82-0.015C305.711,161.591,306.045,161.169,305.924,160.651"/>
	<path fill="#333333" d="M338.389,143.847c-0.534,0.005-10.121,0-10.121,0c-0.53,0-1.212,0.568-1.508,1.007l-17.765,26.137
		c-0.305,0.438-0.648,0.424-0.764-0.093l-1.313-5.727c-0.112-0.521-0.643-0.943-1.182-0.943h-11.418
		c-0.525,0-0.843,0.438-0.703,0.95l5.117,17.946c0.148,0.514,0.161,1.353,0.03,1.866l-2.389,9.089
		c-0.125,0.516,0.201,0.671,0.74,0.671h11.273c0.53,0,1.078-0.152,1.207-0.671l2.389-9.217c0.131-0.511,0.5-1.211,0.816-1.641
		l28.994-38.452c0.326-0.422,0.279-0.925-0.25-0.925L338.389,143.847z"/>
	<path fill="#333333" d="M219.507,151.161H209.2c-0.525,0-1.063,0.185-1.168,0.706l-3.407,15.938l-3.392,15.259
		c-0.109,0.518-0.635,0.481-1.166,0.481h-6.771c-6.699,0-5.927-4.232-4.548-10.577c0.016-0.063,4.296-21.101,4.296-21.101
		c0.095-0.52-0.254-0.706-0.778-0.706h-9.819c-0.53,0-1.055,0.188-1.159,0.706l-3.95,21.086
		c-1.97,11.399-2.029,21.432,11.191,21.761c0.218,0.01,20.876,0,20.876,0c0.534,0,1.059-0.173,1.173-0.688l4.484-21.144
		l4.466-21.233C219.528,151.647,219.687,151.161,219.507,151.161z"/>
	<path fill="#333333" d="M116.864,151.126h-11.048c-0.53,0-1.064,0.125-1.181,0.646l-1.994,8.626
		c-0.113,0.509,0.226,0.918,0.76,0.918h10.578c0.534,0,1.064-0.482,1.177-0.996l1.921-8.692
		C117.078,151.63,117.23,151.126,116.864,151.126z"/>
	<path fill="#333333" d="M102.684,164.227c-0.526,0-1.065,0.419-1.179,0.938l-1.489,6.58l-3.324,15.194c0,0-1.767,8.077-1.937,8.584
		c0,0-1.489,5.831-5.047,5.597c-1.655-0.108-3.547-0.488-3.547-0.488h-0.004c-0.994-0.3-1.065,0.732-1.186,1.248l-2.194,9.467
		c-0.126,0.518,0.212,0.984,0.739,0.993c0,0,4.758,0.668,8.115,0.668h0.553c8.298,0,12.681-4.876,15.481-18.125l3.285-15.333
		l3.081-14.268c0.112-0.518-0.2-1-0.73-1"/>
	<path fill="#333333" d="M245.582,151.063c-18.585,0-23.02,11.486-25.488,22.872c-2.467,11.608-2.257,20.784,16.973,20.784h0.694
		c7.63,0,16.898,0,16.898,0c0.521-0.009,1.043-0.486,1.146-1l1.891-7.363c0.109-0.523-0.243-0.676-0.769-0.676h-17.295
		c-6.266,0-8.508-1.93-8.288-6.264c-0.005-0.493,0.559-1.748,1.09-1.748h26.641c1.171-0.007,1.207-0.692,1.207-0.692
		C262.992,164.735,263.169,151.063,245.582,151.063 M250.481,169.3c0,0.577-1.818,0.466-1.818,0.466l-14.488-0.104
		c-0.5,0-0.644-0.703-0.679-1.204c-0.001-0.017,0.036-0.602,0.078-0.747c1.121-3.885,4.461-6.104,9.759-6.104
		c5.96,0,7.232,2.957,7.232,6.234"/>
	<path fill="#333333" d="M165.262,182.737c0,0,5.206-12.643,6.386-19.951c1.617-9.78-3.276-23.961-22.191-23.961
		c-18.802,0-26.962,13.539-30.085,28.261c-3.11,14.828,0.962,27.738,19.66,27.631l28.542-0.016c0.525-0.003,1.073-0.428,1.207-0.935
		l2.407-9.162c0.13-0.518-0.196-0.937-0.73-0.94l-2.298-0.017l-2.297-0.011c-0.452-0.005-0.714-0.298-0.652-0.687
		C165.217,182.88,165.228,182.81,165.262,182.737 M155.443,174.981l-2.142,7.32c-0.147,0.514-0.752,0.856-1.283,0.856H140.97
		c-8.386,0-10.422-6.48-8.386-16.149c2.046-9.882,6.101-15.998,14.346-16.619c11.275-0.848,13.582,7.112,10.849,16.265
		L155.443,174.981z"/>
</g>
</svg>
